<svg width="97" height="97" viewBox="0 0 97 97" fill="none" xmlns="http://www.w3.org/2000/svg">
<path fill-rule="evenodd" clip-rule="evenodd" d="M36.1109 28.1098C35.4332 26.9341 35.0453 25.5691 35.0453 24.1131C35.0453 19.6984 38.6112 16.1196 43.0098 16.1196C45.1307 16.1196 47.0581 16.9517 48.4854 18.3083C49.9126 16.9517 51.84 16.1196 53.9609 16.1196C58.3595 16.1196 61.9254 19.6984 61.9254 24.1131C61.9254 25.5691 61.5375 26.9341 60.8598 28.1098C61.5375 29.2856 61.9254 30.6506 61.9254 32.1066C61.9254 36.5212 58.3595 40.1 53.9609 40.1C51.84 40.1 49.9126 39.268 48.4854 37.9113C47.0581 39.268 45.1307 40.1 43.0098 40.1C38.6112 40.1 35.0453 36.5212 35.0453 32.1066C35.0453 30.6506 35.4332 29.2856 36.1109 28.1098ZM48.9831 31.1074C50.6326 31.1074 51.9698 29.7653 51.9698 28.1098C51.9698 26.4543 50.6326 25.1123 48.9831 25.1123C47.3336 25.1123 45.9965 26.4543 45.9965 28.1098C45.9965 29.7653 47.3336 31.1074 48.9831 31.1074Z" fill="#FF7535"/>
<path d="M36.1109 28.1098L36.9772 28.6092L37.2651 28.1098L36.9772 27.6105L36.1109 28.1098ZM48.4854 18.3083L47.7964 19.0332L48.4854 19.688L49.1743 19.0332L48.4854 18.3083ZM60.8598 28.1098L59.9935 27.6105L59.7056 28.1098L59.9935 28.6092L60.8598 28.1098ZM48.4854 37.9113L49.1743 37.1865L48.4854 36.5317L47.7964 37.1865L48.4854 37.9113ZM34.0453 24.1131C34.0453 25.7488 34.4815 27.2855 35.2445 28.6092L36.9772 27.6105C36.3849 26.5827 36.0453 25.3893 36.0453 24.1131H34.0453ZM43.0098 15.1196C38.0554 15.1196 34.0453 19.1496 34.0453 24.1131H36.0453C36.0453 20.2473 39.1669 17.1196 43.0098 17.1196V15.1196ZM49.1743 17.5835C47.5689 16.0576 45.3977 15.1196 43.0098 15.1196V17.1196C44.8638 17.1196 46.5472 17.8458 47.7964 19.0332L49.1743 17.5835ZM53.9609 15.1196C51.573 15.1196 49.4018 16.0576 47.7964 17.5835L49.1743 19.0332C50.4235 17.8458 52.1069 17.1196 53.9609 17.1196V15.1196ZM62.9254 24.1131C62.9254 19.1496 58.9153 15.1196 53.9609 15.1196V17.1196C57.8038 17.1196 60.9254 20.2473 60.9254 24.1131H62.9254ZM61.7262 28.6092C62.4892 27.2855 62.9254 25.7488 62.9254 24.1131H60.9254C60.9254 25.3893 60.5858 26.5827 59.9935 27.6105L61.7262 28.6092ZM62.9254 32.1066C62.9254 30.4708 62.4892 28.9341 61.7262 27.6105L59.9935 28.6092C60.5858 29.637 60.9254 30.8304 60.9254 32.1066H62.9254ZM53.9609 41.1C58.9153 41.1 62.9254 37.0701 62.9254 32.1066H60.9254C60.9254 35.9724 57.8038 39.1 53.9609 39.1V41.1ZM47.7964 38.6362C49.4018 40.1621 51.573 41.1 53.9609 41.1V39.1C52.1069 39.1 50.4235 38.3739 49.1743 37.1865L47.7964 38.6362ZM43.0098 41.1C45.3977 41.1 47.5689 40.1621 49.1743 38.6362L47.7964 37.1865C46.5472 38.3739 44.8638 39.1 43.0098 39.1V41.1ZM34.0453 32.1066C34.0453 37.0701 38.0554 41.1 43.0098 41.1V39.1C39.1669 39.1 36.0453 35.9724 36.0453 32.1066H34.0453ZM35.2445 27.6105C34.4815 28.9341 34.0453 30.4708 34.0453 32.1066H36.0453C36.0453 30.8304 36.3849 29.637 36.9772 28.6092L35.2445 27.6105ZM50.9698 28.1098C50.9698 29.2165 50.0769 30.1074 48.9831 30.1074V32.1074C51.1883 32.1074 52.9698 30.3142 52.9698 28.1098H50.9698ZM48.9831 26.1123C50.0769 26.1123 50.9698 27.0032 50.9698 28.1098H52.9698C52.9698 25.9055 51.1883 24.1123 48.9831 24.1123V26.1123ZM46.9965 28.1098C46.9965 27.0032 47.8893 26.1123 48.9831 26.1123V24.1123C46.7779 24.1123 44.9965 25.9055 44.9965 28.1098H46.9965ZM48.9831 30.1074C47.8893 30.1074 46.9965 29.2165 46.9965 28.1098H44.9965C44.9965 30.3142 46.7779 32.1074 48.9831 32.1074V30.1074Z" fill="#535665"/>
<path d="M46.49 59.298C46.3728 59.2984 46.2558 59.2989 46.1389 59.2993C45.2297 59.303 44.3297 59.3066 43.4231 59.2957C39.6887 59.2509 36.8135 58.0902 34.3939 55.9646L34.3935 55.9642C32.692 54.471 31.4729 53.2178 30.6435 51.4004C29.8797 49.7267 29.4109 47.4922 29.336 44.0322C30.1519 44.0351 31.0258 44.0301 31.6712 44.0264C31.9985 44.0245 32.2671 44.0229 32.4396 44.0229C34.5447 44.0229 36.1021 44.3058 37.4438 44.8477C38.7891 45.3911 39.9812 46.2202 41.3295 47.4047L41.3297 47.4048C44.3409 50.0489 46.2022 53.9938 46.49 59.298Z" fill="#FFB999" stroke="#535665" stroke-width="2"/>
<path d="M65.3955 44.0264C66.0409 44.0301 66.9148 44.0351 67.7307 44.0322C67.6558 47.4922 67.187 49.7267 66.4232 51.4004C65.5938 53.2178 64.3747 54.471 62.6732 55.9642L62.6728 55.9646C60.2532 58.0902 57.378 59.2509 53.6436 59.2957C52.737 59.3066 51.837 59.303 50.9278 59.2993C50.8109 59.2989 50.6939 59.2984 50.5767 59.298C50.8645 53.9938 52.7258 50.0489 55.737 47.4048L55.7372 47.4047C57.0855 46.2202 58.2776 45.3911 59.6229 44.8477C60.9646 44.3058 62.522 44.0229 64.6271 44.0229C64.7996 44.0229 65.0682 44.0245 65.3955 44.0264Z" fill="#FFB999" stroke="#535665" stroke-width="2"/>
<path d="M46.4935 80.3904C46.272 80.3911 46.051 80.392 45.8304 80.3929C44.7154 80.3973 43.6097 80.4018 42.4973 80.3885C37.8701 80.3331 34.2956 78.8957 31.2899 76.2616L31.2895 76.2612C29.1992 74.4311 27.6762 72.8741 26.64 70.6091C25.6704 68.4894 25.0902 65.6642 25.0139 61.2901C26.0737 61.2956 27.247 61.2889 28.0989 61.284C28.5014 61.2817 28.8321 61.2798 29.0453 61.2798C31.6452 61.2798 33.5833 61.6285 35.2605 62.3042C36.9412 62.9814 38.4232 64.0123 40.0849 65.4685L40.085 65.4687C43.872 68.786 46.1809 73.7444 46.4935 80.3904Z" fill="#FFB999" stroke="#535665" stroke-width="2"/>
<path d="M50.4772 80.3928C50.7898 73.746 53.0987 68.7869 56.8857 65.4692L56.8859 65.469C58.5476 64.0126 60.0296 62.9816 61.7103 62.3043C63.3874 61.6285 65.3255 61.2798 67.9254 61.2798C68.1386 61.2798 68.4693 61.2817 68.8718 61.284C69.7237 61.2889 70.897 61.2956 71.9568 61.2901C71.8806 65.6648 71.3003 68.4904 70.3307 70.6104C69.2945 72.8757 67.7715 74.4329 65.6811 76.2632L65.6807 76.2635C62.6751 78.898 59.1006 80.3356 54.4734 80.3909C53.361 80.4042 52.2553 80.3998 51.1403 80.3954C50.9197 80.3945 50.6987 80.3936 50.4772 80.3928Z" fill="#FFB999" stroke="#535665" stroke-width="2"/>
</svg>
