<svg width="97" height="97" viewBox="0 0 97 97" fill="none" xmlns="http://www.w3.org/2000/svg">
<rect x="20.0221" y="26.6655" width="46" height="56" rx="2" transform="rotate(-15 20.0221 26.6655)" fill="#7495E7" stroke="#535665" stroke-width="2"/>
<rect x="26.4854" y="19.7588" width="46" height="56" rx="2" fill="white" stroke="#535665" stroke-width="2"/>
<rect x="33.4854" y="25.7598" width="14" height="16" rx="2" fill="#8F50CE" stroke="#535665" stroke-width="2"/>
<path d="M40.4854 38.7598C42.6945 38.7598 44.4854 37.0761 44.4854 34.9991V32.5204C44.4854 30.4435 42.6945 28.7598 40.4854 28.7598C38.2762 28.7598 36.4854 30.4435 36.4854 32.5204V34.9991C36.4854 37.0761 38.2762 38.7598 40.4854 38.7598Z" fill="white"/>
<path d="M41.9399 32.7598H36.4854C36.4854 30.7598 37.649 28.7598 40.4854 28.7598C43.3217 28.7598 44.4854 30.7598 44.4854 32.7598H43.0308L42.6672 31.3685L41.9399 32.7598Z" fill="#FF9666"/>
<rect x="51.4854" y="26.7598" width="16" height="2" rx="1" fill="#535665"/>
<rect x="51.4854" y="32.7598" width="16" height="2" rx="1" fill="#535665"/>
<rect x="32.4854" y="48.7598" width="35" height="2" rx="1" fill="#535665"/>
<rect x="32.4854" y="54.7598" width="35" height="2" rx="1" fill="#535665"/>
<rect x="32.4854" y="60.7598" width="35" height="2" rx="1" fill="#535665"/>
<rect x="32.4854" y="66.7598" width="22" height="2" rx="1" fill="#535665"/>
<rect x="51.4854" y="38.7598" width="12" height="2" rx="1" fill="#535665"/>
</svg>
