<svg width="97" height="97" viewBox="0 0 97 97" fill="none" xmlns="http://www.w3.org/2000/svg">
<path d="M45.4854 56.1234V66.7598H28.4854V37.3195L45.4854 45.1282V56.1234Z" fill="#E9EAED" stroke="#535665" stroke-width="2"/>
<path d="M61.4854 46.5402V66.7598H44.4854V37.4302L61.4854 46.5402Z" fill="#E9EAED" stroke="#535665" stroke-width="2"/>
<path d="M60.5583 66.7598L63.8719 19.7598H74.0988L77.4124 66.7598H60.5583Z" fill="#B2B4BD" stroke="#535665" stroke-width="2"/>
<path d="M63.4854 28.7598H74.4854" stroke="#535665" stroke-width="2"/>
<path fill-rule="evenodd" clip-rule="evenodd" d="M59.7293 62.7598H64.4854C69.4559 62.7598 73.4854 66.7892 73.4854 71.7598V72.7598H14.4854V62.7598H20.0248L22.5463 57.4621C24.2042 53.9788 27.7179 51.7598 31.5757 51.7598H49.2767C51.7626 51.7598 54.062 53.0782 55.3178 55.2235L59.7293 62.7598Z" fill="#22BF7D"/>
<path d="M24.4854 63.7598L26.1504 59.954C27.2651 57.4061 29.7824 55.7598 32.5635 55.7598H38.4854V63.7598H24.4854Z" fill="#D9EAFD"/>
<path d="M40.4854 63.7598V55.7598H49.5465C50.6714 55.7598 51.7017 56.389 52.2154 57.3897L55.4854 63.7598H40.4854Z" fill="#D9EAFD"/>
<rect x="15.4854" y="63.7598" width="4" height="5" fill="#FF9666"/>
<path d="M65.4854 64.7598H67.4854C69.6945 64.7598 71.4854 66.5506 71.4854 68.7598H65.4854V64.7598Z" fill="#F3BC16"/>
<mask id="path-10-inside-1_649_4936" fill="white">
<path fill-rule="evenodd" clip-rule="evenodd" d="M59.7293 62.7598H64.4854C69.4559 62.7598 73.4854 66.7892 73.4854 71.7598V72.7598H14.4854V62.7598H20.0248L22.5463 57.4621C24.2042 53.9788 27.7179 51.7598 31.5757 51.7598H49.2767C51.7626 51.7598 54.062 53.0782 55.3178 55.2235L59.7293 62.7598Z"/>
</mask>
<path d="M59.7293 62.7598L58.0032 63.7701L58.5825 64.7598H59.7293V62.7598ZM73.4854 72.7598V74.7598H75.4854V72.7598H73.4854ZM14.4854 72.7598H12.4854V74.7598H14.4854V72.7598ZM14.4854 62.7598V60.7598H12.4854V62.7598H14.4854ZM20.0248 62.7598V64.7598H21.2878L21.8307 63.6193L20.0248 62.7598ZM22.5463 57.4621L20.7404 56.6026L22.5463 57.4621ZM55.3178 55.2235L57.0438 54.2132V54.2132L55.3178 55.2235ZM59.7293 64.7598H64.4854V60.7598H59.7293V64.7598ZM64.4854 64.7598C68.3513 64.7598 71.4854 67.8938 71.4854 71.7598H75.4854C75.4854 65.6846 70.5605 60.7598 64.4854 60.7598V64.7598ZM71.4854 71.7598V72.7598H75.4854V71.7598H71.4854ZM73.4854 70.7598H14.4854V74.7598H73.4854V70.7598ZM16.4854 72.7598V62.7598H12.4854V72.7598H16.4854ZM14.4854 64.7598H20.0248V60.7598H14.4854V64.7598ZM21.8307 63.6193L24.3521 58.3216L20.7404 56.6026L18.2189 61.9002L21.8307 63.6193ZM24.3521 58.3216C25.6785 55.535 28.4895 53.7598 31.5757 53.7598V49.7598C26.9464 49.7598 22.7299 52.4226 20.7404 56.6026L24.3521 58.3216ZM31.5757 53.7598H49.2767V49.7598H31.5757V53.7598ZM49.2767 53.7598C51.0523 53.7598 52.6947 54.7015 53.5918 56.2339L57.0438 54.2132C55.4292 51.4548 52.4728 49.7598 49.2767 49.7598V53.7598ZM53.5918 56.2339L58.0032 63.7701L61.4553 61.7494L57.0438 54.2132L53.5918 56.2339Z" fill="#535665" mask="url(#path-10-inside-1_649_4936)"/>
<circle cx="26.9854" cy="72.2598" r="4.5" fill="#535665" stroke="#535665" stroke-width="2"/>
<circle cx="56.9854" cy="72.2598" r="4.5" fill="#535665" stroke="#535665" stroke-width="2"/>
<circle cx="26.9854" cy="72.2598" r="1.5" fill="white"/>
<circle cx="56.9854" cy="72.2598" r="1.5" fill="white"/>
</svg>
