<svg width="97" height="97" viewBox="0 0 97 97" fill="none" xmlns="http://www.w3.org/2000/svg">
<path d="M45.4854 78.7598C63.7107 78.7598 78.4854 63.9852 78.4854 45.7598C78.4854 27.5344 63.7107 12.7598 45.4854 12.7598C27.26 12.7598 12.4854 27.5344 12.4854 45.7598C12.4854 63.9852 27.26 78.7598 45.4854 78.7598Z" fill="#D9EAFD" stroke="#535665" stroke-width="2"/>
<path d="M22.2354 23.4126C26.4035 26.8546 35.9166 29.2598 46.9854 29.2598C56.8816 29.2598 65.5343 27.3372 70.2354 24.4699" stroke="#535665" stroke-width="2"/>
<path d="M45.4854 13.5098V79.5098" stroke="#535665" stroke-width="2"/>
<path d="M78.4854 45.7598L12.4854 45.7598" stroke="#535665" stroke-width="2"/>
<path d="M75.4846 75.7596L28.9846 87.7596L25.9847 75.7596L75.4846 75.7596Z" fill="#94F0C9" stroke="#535665" stroke-width="2" stroke-miterlimit="10" stroke-linejoin="round"/>
<ellipse cx="46.2354" cy="44.2598" rx="15.75" ry="31.5" stroke="#535665" stroke-width="2"/>
<path d="M81.4845 50.2598H22.9854V78.7598H81.4845V50.2598Z" fill="#94F0C9" stroke="#535665" stroke-width="2" stroke-miterlimit="10" stroke-linejoin="round"/>
<path d="M87.4854 35.8461V28.6461C81.6827 25.3734 71.7354 18.0098 71.7354 18.0098C71.7354 18.0098 61.788 25.3734 55.9854 28.6461V36.828C55.9854 42.3916 58.9695 46.3188 63.9432 49.9188C66.2642 51.5552 72.5643 54.0098 72.5643 54.0098C72.5643 54.0098 77.76 51.5155 80.0247 49.9188C85.1642 46.1552 87.4854 41.4097 87.4854 35.8461Z" fill="#F3BC16"/>
<path fill-rule="evenodd" clip-rule="evenodd" d="M79.4819 31.1387C80.1011 31.689 80.1569 32.6372 79.6065 33.2563L71.6065 42.2563C71.3218 42.5766 70.9138 42.7598 70.4854 42.7598C70.0569 42.7598 69.6489 42.5766 69.3643 42.2563L65.3643 37.7563C64.8139 37.1372 64.8696 36.189 65.4888 35.6387C66.108 35.0883 67.0561 35.1441 67.6065 35.7632L70.4854 39.002L77.3643 31.2632C77.9146 30.6441 78.8627 30.5883 79.4819 31.1387Z" fill="#535665"/>
<path fill-rule="evenodd" clip-rule="evenodd" d="M30.4854 56.2598H42.4854C43.3138 56.2598 43.9854 56.9313 43.9854 57.7598C43.9854 58.5882 43.3138 59.2598 42.4854 59.2598H33.4854V69.7598H42.4854C43.3138 69.7598 43.9854 70.4313 43.9854 71.2598C43.9854 72.0882 43.3138 72.7598 42.4854 72.7598H30.4854V56.2598ZM73.9854 56.2598H61.9854C61.1569 56.2598 60.4854 56.9313 60.4854 57.7598C60.4854 58.5882 61.1569 59.2598 61.9854 59.2598H70.9854V69.7598H61.9854C61.1569 69.7598 60.4854 70.4313 60.4854 71.2598C60.4854 72.0882 61.1569 72.7598 61.9854 72.7598H73.9854V56.2598ZM60.4854 64.5098C60.4854 69.0661 56.7917 72.7598 52.2354 72.7598C47.679 72.7598 43.9854 69.0661 43.9854 64.5098C43.9854 59.9534 47.679 56.2598 52.2354 56.2598C56.7917 56.2598 60.4854 59.9534 60.4854 64.5098Z" fill="#22BF7D"/>
</svg>
