<svg width="97" height="97" viewBox="0 0 97 97" fill="none" xmlns="http://www.w3.org/2000/svg">
<path fill-rule="evenodd" clip-rule="evenodd" d="M43.9854 69.7598C38.5239 69.5625 34.1752 68.7086 30.3935 65.292L30.3921 65.2907C26.1588 61.4701 24.7778 57.4252 24.4854 51.7598C30.0238 52.0191 34.2276 52.869 38.2069 56.4641C41.5147 59.4511 43.3946 63.5307 43.9854 69.7598Z" fill="#A3C2F5" stroke="#535665" stroke-width="2"/>
<path fill-rule="evenodd" clip-rule="evenodd" d="M52.9854 69.7598C58.4468 69.5625 62.7955 68.7086 66.5772 65.292L66.5786 65.2907C70.8119 61.4701 72.1929 57.4252 72.4854 51.7598C66.9469 52.0191 62.7431 52.869 58.7638 56.4641C55.456 59.4511 53.5761 63.5307 52.9854 69.7598Z" fill="#A3C2F5" stroke="#535665" stroke-width="2"/>
<path fill-rule="evenodd" clip-rule="evenodd" d="M37.9854 33.2831L48.4853 41.2598L58.9854 33.2831C57.9754 29.5472 54.0408 26.2598 48.4853 26.2598C42.9299 26.2598 38.9953 29.5472 37.9854 33.2831Z" fill="#4963D4" stroke="#535665" stroke-width="2"/>
<path d="M48.4854 69.7598V48.0098" stroke="#535665" stroke-width="2" stroke-linecap="round"/>
</svg>
