<svg width="97" height="97" viewBox="0 0 97 97" fill="none" xmlns="http://www.w3.org/2000/svg">
<path d="M55.4834 37.6408L41.2445 37.2514L48.1622 25.4549L55.4834 37.6408Z" fill="#4963D4" stroke="#535665" stroke-width="2"/>
<path fill-rule="evenodd" clip-rule="evenodd" d="M39.8448 39.1102C39.8448 43.4639 43.8163 46.9932 48.7152 46.9932C53.6142 46.9932 57.5856 43.4639 57.5856 39.1102V28.5996C57.5856 28.5996 48.6903 32.979 48.7152 38.2344C48.7152 38.2344 48.6903 32.979 39.8448 28.5996C39.8448 30.7893 39.8448 39.1102 39.8448 39.1102Z" fill="#4963D4" stroke="#535665" stroke-width="2"/>
<path d="M43.6137 73.6727C43.4034 73.6734 43.1935 73.6743 42.9839 73.6751C41.8919 73.6796 40.8093 73.684 39.7199 73.6707C35.1976 73.6155 31.7033 72.1819 28.7619 69.5501L28.7616 69.5498C26.7151 67.7205 25.2231 66.1637 24.2076 63.8972C23.2566 61.7749 22.6879 58.9466 22.6133 54.57C23.6466 54.5753 24.7868 54.5686 25.6158 54.5638C26.0098 54.5615 26.3335 54.5596 26.542 54.5596C29.0847 54.5596 30.9782 54.9077 32.616 55.5814C34.258 56.2569 35.7076 57.2858 37.3351 58.742L37.3352 58.7422C41.0432 62.0583 43.3074 67.0195 43.6137 73.6727Z" fill="#A3C2F5" stroke="#535665" stroke-width="2"/>
<path d="M71.3539 54.5638C72.1829 54.5686 73.3231 54.5753 74.3564 54.57C74.2817 58.9466 73.7131 61.7749 72.7621 63.8972C71.7466 66.1637 70.2546 67.7205 68.2081 69.5498L68.2077 69.5501C65.2664 72.1819 61.7721 73.6155 57.2498 73.6707C56.1604 73.684 55.0778 73.6796 53.9858 73.6751C53.7762 73.6743 53.5663 73.6734 53.356 73.6727C53.6623 67.0195 55.9265 62.0583 59.6344 58.7422L59.6346 58.742C61.2621 57.2858 62.7116 56.2569 64.3537 55.5814C65.9915 54.9077 67.8849 54.5596 70.4277 54.5596C70.6362 54.5596 70.9599 54.5615 71.3539 54.5638Z" fill="#A3C2F5" stroke="#535665" stroke-width="2"/>
<path d="M48.4854 74.2598V52.5098" stroke="#535665" stroke-width="2" stroke-linecap="round"/>
</svg>
