<svg width="97" height="97" viewBox="0 0 97 97" fill="none" xmlns="http://www.w3.org/2000/svg">
<path d="M13.7226 42.294C11.6467 43.0496 10.5763 45.345 11.3319 47.4209L22.6186 78.4307C23.3741 80.5066 25.6695 81.577 27.7454 80.8214L78.4888 62.3523C80.5647 61.5968 81.6351 59.3014 80.8795 57.2255L69.5929 26.2156C68.8373 24.1397 66.5419 23.0694 64.466 23.8249L13.7226 42.294Z" fill="#CCA3F5" stroke="#535665" stroke-width="2" stroke-linecap="round"/>
<path d="M22.9854 20.7598C20.7762 20.7598 18.9854 22.5506 18.9854 24.7598V57.7598C18.9854 59.9689 20.7762 61.7598 22.9854 61.7598H76.9854C79.1945 61.7598 80.9854 59.9689 80.9854 57.7598V24.7598C80.9854 22.5506 79.1945 20.7598 76.9854 20.7598H22.9854Z" fill="#FF7535" stroke="#535665" stroke-width="2" stroke-linecap="round"/>
<path fill-rule="evenodd" clip-rule="evenodd" d="M54.4854 41.2598H22.9854V47.2598H54.4854V41.2598ZM72.4854 44.2598C70.0001 44.2598 67.9854 46.2745 67.9854 48.7598C67.9854 51.245 70.0001 53.2598 72.4854 53.2598C74.9706 53.2598 76.9854 51.245 76.9854 48.7598C76.9854 46.2745 74.9706 44.2598 72.4854 44.2598Z" fill="#FFDCCC"/>
<path fill-rule="evenodd" clip-rule="evenodd" d="M64.9854 24.7598H76.9854V36.7598H64.9854V24.7598ZM24.2679 74.3879C23.5596 72.4418 24.563 70.2898 26.5092 69.5815L30.7378 68.0424C32.684 67.3341 34.8359 68.3375 35.5442 70.2837C36.2526 72.2298 35.2491 74.3818 33.303 75.0901L29.0744 76.6292C27.1282 77.3375 24.9763 76.3341 24.2679 74.3879ZM22.9854 50.2598H27.4854V53.2598H22.9854V50.2598ZM31.9854 50.2598H36.4854V53.2598H31.9854V50.2598ZM45.4854 50.2598H40.9854V53.2598H45.4854V50.2598ZM49.9854 50.2598H54.4854V53.2598H49.9854V50.2598Z" fill="white"/>
</svg>
