<svg width="97" height="97" viewBox="0 0 97 97" fill="none" xmlns="http://www.w3.org/2000/svg">
<path d="M17.5737 34.2725C17.5737 32.0633 19.3645 30.2725 21.5737 30.2725H75.397C77.6062 30.2725 79.397 32.0633 79.397 34.2725V69.9904C79.397 72.1995 77.6062 73.9904 75.397 73.9904H21.5737C19.3645 73.9904 17.5737 72.1996 17.5737 69.9904V34.2725Z" fill="#4ED0CB" stroke="#40434F" stroke-width="2" stroke-linejoin="round"/>
<path d="M34.3543 30.2724V25.5288C34.3543 23.3197 36.1452 21.5288 38.3543 21.5288H58.6164C60.8256 21.5288 62.6164 23.3197 62.6164 25.5288V30.2724" stroke="#535665" stroke-width="2"/>
<path d="M21.6033 57.8629L18.1705 34.8629C17.8097 32.4454 19.6824 30.2725 22.1267 30.2725H74.844C77.2883 30.2725 79.161 32.4454 78.8002 34.8629L75.3674 57.8629C75.0749 59.8223 73.3923 61.2725 71.4112 61.2725H25.5595C23.5784 61.2725 21.8958 59.8223 21.6033 57.8629Z" fill="#DDF8F8" stroke="#535665" stroke-width="2"/>
<rect x="29.4084" y="57.5366" width="3.97436" height="7.15385" rx="1.98718" fill="#D3D4D9" stroke="#535665" stroke-width="2"/>
<rect x="63.5879" y="57.5366" width="3.97436" height="7.15385" rx="1.98718" fill="#D3D4D9" stroke="#535665" stroke-width="2"/>
<path d="M29.963 43.1054L32.2523 42.492L36.1143 44.6957L59.2439 38.4982C61.1358 37.9913 63.1535 38.3774 64.7111 39.5445L67.018 41.273L54.0495 44.6957L49.106 55.9178L46.0536 56.7357L48.3122 46.2852L36.1815 49.5356C35.9493 49.5979 35.7022 49.5249 35.5432 49.3471L29.963 43.1054Z" fill="#FF7535"/>
<path d="M41.8863 34.5129L39.3426 35.1945L46.0803 42.0254L51.6764 40.5259L41.8863 34.5129Z" fill="#FF7535"/>
<path d="M29.963 43.1054L32.2523 42.492L36.1143 44.6957L59.2439 38.4982C61.1358 37.9913 63.1535 38.3774 64.7111 39.5445L67.018 41.273L54.0495 44.6957L49.106 55.9178L46.0536 56.7357L48.3122 46.2852L36.1815 49.5356C35.9493 49.5979 35.7022 49.5249 35.5432 49.3471L29.963 43.1054Z" stroke="#535665" stroke-width="2" stroke-linejoin="round"/>
<path d="M41.8863 34.5129L39.3426 35.1945L46.0803 42.0254L51.6764 40.5259L41.8863 34.5129Z" stroke="#535665" stroke-width="2" stroke-linejoin="round"/>
</svg>
