<svg width="97" height="97" viewBox="0 0 97 97" fill="none" xmlns="http://www.w3.org/2000/svg">
<path d="M61.4854 38.7598H69.4854L78.9854 51.7598L76.0853 59.2598H61.4854V38.7598Z" fill="#F4F4F6" stroke="#535665" stroke-width="2" stroke-linecap="round"/>
<path d="M64.4854 42.7598H67.9139L71.4854 46.7598V50.7598H64.4854L64.4854 42.7598Z" fill="#D9EAFD"/>
<path d="M71.4213 72.7598H17.5678C17.1796 72.7598 16.8264 72.5351 16.662 72.1834L11.0491 60.1834C10.739 59.5204 11.223 58.7598 11.955 58.7598H67.0533C67.329 58.7598 67.5925 58.6459 67.7815 58.4451L73.7764 52.0745C73.9653 51.8736 74.2289 51.7598 74.5046 51.7598H88.7223C89.5909 51.7598 90.0465 52.7909 89.4617 53.433L72.1607 72.433C71.9712 72.6412 71.7028 72.7598 71.4213 72.7598Z" fill="white" stroke="#535665" stroke-width="2"/>
<path d="M37.4854 47.7598H41.4854V48.7598H45.4854V47.7598H49.4854V58.7598H37.4854L37.4854 47.7598Z" fill="#7495E7" stroke="#535665" stroke-width="2"/>
<path d="M31.4854 25.7598H35.5187V26.7598H39.4854V25.7598H43.4854L43.4853 36.7598H31.4854L31.4854 25.7598Z" fill="#7495E7" stroke="#535665" stroke-width="2"/>
<path d="M49.4854 47.7598L53.4854 47.7598V48.7598H57.4854V47.7598L61.4854 47.7598L61.4854 58.7598H49.4854L49.4854 47.7598Z" fill="#FF7535" stroke="#535665" stroke-width="2"/>
<path d="M25.952 47.7598H30.4854V48.7598H33.4854V47.7598H37.4854V58.7598H25.952V47.7598Z" fill="#FF9666" stroke="#535665" stroke-width="2"/>
<path d="M14.4854 47.7598H18.4854V48.7598H22.4854V47.7598H26.4854V58.7598H14.4854V47.7598Z" fill="#7495E7" stroke="#535665" stroke-width="2"/>
<path d="M43.4854 36.7598L47.4854 36.7598V37.7598H51.4854V36.7598H55.4854V47.7598L43.4854 47.7598V36.7598Z" fill="#FF9666" stroke="#535665" stroke-width="2"/>
<path d="M19.4854 36.7598L23.4854 36.7598V37.7598L27.4854 37.7598V36.7598H31.4854V47.7598L19.4854 47.7598V36.7598Z" fill="#FF7535" stroke="#535665" stroke-width="2"/>
<path d="M31.4854 36.7598H35.4854V37.7598H39.4854V36.7598L43.4854 36.7598V47.7598H31.4854V36.7598Z" fill="#FFDCCC" stroke="#535665" stroke-width="2"/>
<path d="M16.5574 72.7598L13.4854 65.7598H77.4854L71.8534 72.7598H16.5574Z" fill="#D9EAFD"/>
<path d="M71.4212 72.7598H17.5677C17.1795 72.7598 16.8264 72.5351 16.6619 72.1834L11.0491 60.1834C10.739 59.5204 11.2229 58.7598 11.9549 58.7598H67.0532C67.329 58.7598 67.5925 58.6459 67.7815 58.4451L73.7763 52.0745C73.9653 51.8736 74.2288 51.7598 74.5046 51.7598H88.7223C89.5908 51.7598 90.0464 52.7909 89.4617 53.433L72.1606 72.433C71.9711 72.6412 71.7027 72.7598 71.4212 72.7598Z" stroke="#535665" stroke-width="2"/>
</svg>
