<svg width="97" height="97" viewBox="0 0 97 97" fill="none" xmlns="http://www.w3.org/2000/svg">
<path d="M21.4854 80.7598H42.4854" stroke="#535665" stroke-width="2" stroke-linecap="round" stroke-linejoin="round"/>
<path fill-rule="evenodd" clip-rule="evenodd" d="M28.4854 80.7598H36.4854V16.7598H28.4854V80.7598Z" fill="#DDF8F8" stroke="#535665" stroke-width="2" stroke-linecap="round" stroke-linejoin="round"/>
<path d="M28.4854 29.7598L36.4854 35.1467L28.4854 41.6629L36.4854 48.179L28.4854 54.6952L36.4854 61.2113L28.4854 67.7275L36.4854 74.2436L28.4854 80.7598" stroke="#535665" stroke-width="2" stroke-linecap="round" stroke-linejoin="round"/>
<path fill-rule="evenodd" clip-rule="evenodd" d="M75.4854 29.7598H21.4854V24.7598H75.4854V29.7598Z" fill="#DDF8F8" stroke="#535665" stroke-width="2" stroke-linecap="round" stroke-linejoin="round"/>
<path d="M21.4854 24.7598L32.228 17.7598L75.4854 24.7598" stroke="#40434F" stroke-width="2" stroke-linecap="round" stroke-linejoin="round"/>
<path d="M32.4854 27.7598C33.0376 27.7598 33.4854 27.5359 33.4854 27.2598C33.4854 26.9836 33.0376 26.7598 32.4854 26.7598C31.9331 26.7598 31.4854 26.9836 31.4854 27.2598C31.4854 27.5359 31.9331 27.7598 32.4854 27.7598Z" stroke="#40434F" stroke-width="4"/>
<path d="M60.4854 29.7598V43.7598" stroke="#535665" stroke-width="2" stroke-linecap="round" stroke-linejoin="round"/>
<path d="M57.4854 29.7598V43.7598" stroke="#535665" stroke-width="2" stroke-linecap="round" stroke-linejoin="round"/>
<path fill-rule="evenodd" clip-rule="evenodd" d="M60.4854 43.2598C60.4854 44.0884 59.5902 44.7598 58.4854 44.7598C57.3806 44.7598 56.4854 44.0884 56.4854 43.2598C56.4854 42.4312 57.3806 41.7598 58.4854 41.7598C59.5902 41.7598 60.4854 42.4312 60.4854 43.2598Z" fill="#7495E7" stroke="#535665" stroke-width="2" stroke-linecap="round" stroke-linejoin="round"/>
<path d="M67.4854 49.7598L67.4854 55.6035L67.4854 60.3848L67.4854 66.7598L50.4854 66.7598L50.4854 49.7598L67.4854 49.7598Z" fill="#FF7535" stroke="#535665" stroke-width="2"/>
<path d="M59.4854 51.7598C57.761 51.7598 56.4854 50.8085 56.4854 49.6356C56.4854 48.4628 57.8289 47.5115 59.4854 47.5115V45.7598" stroke="#535665" stroke-width="2" stroke-linecap="round" stroke-linejoin="round"/>
</svg>
