<svg width="97" height="97" viewBox="0 0 97 97" fill="none" xmlns="http://www.w3.org/2000/svg">
<path d="M34.5328 14.2627L61.4451 71.9127" stroke="#535665" stroke-width="2"/>
<path fill-rule="evenodd" clip-rule="evenodd" d="M48.4854 65.2598C60.9118 65.2598 70.9854 55.1862 70.9854 42.7598C70.9854 30.3334 60.9118 20.2598 48.4854 20.2598C36.0589 20.2598 25.9854 30.3334 25.9854 42.7598C25.9854 55.1862 36.0589 65.2598 48.4854 65.2598Z" fill="#D9EAFD" stroke="#535665" stroke-width="2" stroke-linecap="round"/>
<path fill-rule="evenodd" clip-rule="evenodd" d="M65.5663 28.1138C62.6566 24.7235 58.755 22.2094 54.3114 21.0215C51.8093 21.7068 49.5185 22.7587 48.7153 23.7703C48.4748 24.0732 48.5652 24.5805 48.6754 25.1994C48.7936 25.8629 48.9346 26.6545 48.7153 27.46C48.4978 28.259 47.9553 28.9939 47.4859 29.6299C47.0407 30.2332 46.6612 30.7473 46.687 31.1426C46.788 32.6861 48.4332 33.2883 51.9234 34.5256C53.8326 35.2025 53.6424 33.2037 53.4475 31.156C53.2861 29.4604 53.1216 27.7311 54.1434 27.46C54.5014 27.365 54.9454 28.219 55.5072 29.2997C56.3297 30.8819 57.4049 32.9501 58.8331 33.2386C59.9513 33.4644 60.0882 32.3305 60.2482 31.0061C60.4322 29.4833 60.6465 27.7087 62.418 27.46C63.3993 27.3223 64.4976 27.6274 65.5663 28.1138ZM28.0871 52.268C26.7385 49.3798 25.9854 46.1578 25.9854 42.7599C25.9854 42.4795 25.9905 42.2002 26.0007 41.9223C26.0455 41.8372 26.096 41.7593 26.1527 41.6895C27.9159 39.5169 35.6327 39.5169 37.396 41.6895C39.1592 43.862 39.1338 47.4128 37.396 49.554C36.9885 50.0561 37.8772 51.3939 38.9073 52.9446C40.0426 54.6536 41.3497 56.6211 41.2829 58.0135C41.1555 60.6695 36.0231 61.3585 35.1288 60.2565C32.0859 58.0019 29.6497 54.8459 28.0871 52.268ZM63.3207 45.2209C61.3819 42.8616 49.3853 43.0413 49.3853 46.6946C49.3853 49.6255 51.2314 49.9656 52.6057 50.2187C53.3956 50.3643 54.0297 50.4811 54.0679 51.0446C54.1037 51.5738 54.0151 52.4573 53.9174 53.4319C53.73 55.3008 53.5091 57.5043 54.0679 58.1844C55.4565 59.8742 56.2586 58.5278 57.304 56.7733C57.7183 56.0778 58.1708 55.3183 58.7132 54.6582C58.9519 54.3678 59.233 54.0396 59.5386 53.6828C61.6794 51.1831 65.0174 47.2856 63.3207 45.2209Z" fill="#22BF7D"/>
<path d="M65.5663 28.1138L65.1521 29.024L66.3252 27.4625L65.5663 28.1138ZM54.3114 21.0215L54.5697 20.0555L54.3083 19.9856L54.0473 20.0571L54.3114 21.0215ZM48.7153 23.7703L47.9321 23.1485V23.1485L48.7153 23.7703ZM48.6754 25.1994L47.6909 25.3748V25.3748L48.6754 25.1994ZM48.7153 27.46L47.7504 27.1973V27.1973L48.7153 27.46ZM47.4859 29.6299L48.2905 30.2237L48.2905 30.2237L47.4859 29.6299ZM46.687 31.1426L47.6849 31.0773V31.0773L46.687 31.1426ZM51.9234 34.5256L52.2575 33.5831L51.9234 34.5256ZM53.4475 31.156L54.443 31.0613L53.4475 31.156ZM54.1434 27.46L53.8869 26.4934L54.1434 27.46ZM55.5072 29.2997L54.6199 29.761L55.5072 29.2997ZM58.8331 33.2386L58.6351 34.2188L58.8331 33.2386ZM60.2482 31.0061L59.2554 30.8862V30.8862L60.2482 31.0061ZM62.418 27.46L62.557 28.4503L62.418 27.46ZM28.0871 52.268L27.181 52.691L27.2039 52.74L27.2319 52.7863L28.0871 52.268ZM26.0007 41.9223L25.116 41.4561L25.0097 41.6578L25.0013 41.8857L26.0007 41.9223ZM26.1527 41.6895L26.9291 42.3196L26.9291 42.3196L26.1527 41.6895ZM37.396 41.6895L36.6195 42.3196L37.396 41.6895ZM37.396 49.554L38.1724 50.1842L37.396 49.554ZM38.9073 52.9446L38.0744 53.4979L38.0744 53.4979L38.9073 52.9446ZM41.2829 58.0135L42.2818 58.0614L41.2829 58.0135ZM35.1288 60.2565L35.9052 59.6264L35.8256 59.5283L35.7241 59.4531L35.1288 60.2565ZM63.3207 45.2209L62.5481 45.8558L63.3207 45.2209ZM52.6057 50.2187L52.4246 51.2022H52.4246L52.6057 50.2187ZM54.0679 51.0446L53.0702 51.1122V51.1122L54.0679 51.0446ZM53.9174 53.4319L54.9124 53.5316L53.9174 53.4319ZM54.0679 58.1844L53.2953 58.8192L54.0679 58.1844ZM57.304 56.7733L58.1631 57.2851L57.304 56.7733ZM58.7132 54.6582L59.4858 55.2931V55.2931L58.7132 54.6582ZM59.5386 53.6828L60.2981 54.3333L59.5386 53.6828ZM66.3252 27.4625C63.2874 23.923 59.2128 21.2967 54.5697 20.0555L54.0532 21.9876C58.2972 23.1222 62.0259 25.5241 64.8075 28.7651L66.3252 27.4625ZM54.0473 20.0571C52.7501 20.4123 51.4931 20.8662 50.4421 21.3727C49.4249 21.8629 48.4798 22.4587 47.9321 23.1485L49.4985 24.3921C49.754 24.0703 50.3559 23.6344 51.3104 23.1744C52.2311 22.7307 53.3706 22.316 54.5756 21.986L54.0473 20.0571ZM47.9321 23.1485C47.5964 23.5714 47.5555 24.0592 47.5642 24.3924C47.5729 24.7256 47.64 25.0886 47.6909 25.3748L49.6599 25.024C49.6007 24.6913 49.5674 24.4913 49.5635 24.3403C49.5596 24.1895 49.5937 24.2722 49.4985 24.3921L47.9321 23.1485ZM47.6909 25.3748C47.8138 26.0645 47.9022 26.6398 47.7504 27.1973L49.6802 27.7227C49.967 26.6693 49.7734 25.6612 49.6599 25.024L47.6909 25.3748ZM47.7504 27.1973C47.5909 27.7831 47.1754 28.3667 46.6813 29.0361L48.2905 30.2237C48.7352 29.6212 49.4046 28.7348 49.6802 27.7227L47.7504 27.1973ZM46.6813 29.0361C46.4688 29.324 46.2258 29.6511 46.0453 29.9616C45.8798 30.2463 45.6556 30.6956 45.6892 31.2079L47.6849 31.0773C47.6896 31.1496 47.6735 31.1801 47.6841 31.1493C47.6945 31.119 47.7198 31.0606 47.7743 30.9669C47.8884 30.7707 48.0578 30.539 48.2905 30.2237L46.6813 29.0361ZM45.6892 31.2079C45.77 32.443 46.5196 33.2273 47.5331 33.8143C48.4924 34.3699 49.8818 34.8629 51.5892 35.4682L52.2575 33.5831C50.4747 32.9511 49.2964 32.5243 48.5354 32.0836C47.8285 31.6742 47.7051 31.3857 47.6849 31.0773L45.6892 31.2079ZM51.5892 35.4682C52.1763 35.6763 52.841 35.7683 53.4427 35.4665C54.0626 35.1555 54.3281 34.5739 54.445 34.1037C54.5623 33.6315 54.5758 33.0998 54.5595 32.6085C54.5429 32.107 54.491 31.5659 54.443 31.0613L52.452 31.2508C52.5014 31.77 52.5464 32.2467 52.5606 32.6747C52.5751 33.1129 52.5534 33.4225 52.504 33.6214C52.4541 33.8222 52.4213 33.7413 52.546 33.6788C52.6526 33.6253 52.625 33.7134 52.2575 33.5831L51.5892 35.4682ZM54.443 31.0613C54.3592 30.181 54.292 29.4325 54.347 28.8713C54.4083 28.245 54.5571 28.3848 54.3999 28.4265L53.8869 26.4934C52.7078 26.8063 52.428 27.9463 52.3565 28.6764C52.2786 29.4714 52.3744 30.4354 52.452 31.2508L54.443 31.0613ZM54.3999 28.4265C54.0286 28.525 53.7905 28.3255 53.79 28.325C53.7793 28.3161 53.8223 28.3528 53.9185 28.4962C54.106 28.7756 54.3285 29.2004 54.6199 29.761L56.3945 28.8385C56.124 28.3182 55.8436 27.7757 55.5792 27.3817C55.4495 27.1884 55.2792 26.9618 55.067 26.7858C54.865 26.6182 54.4371 26.3474 53.8869 26.4934L54.3999 28.4265ZM54.6199 29.761C55.0238 30.5378 55.5328 31.5215 56.1364 32.3453C56.7165 33.1371 57.5346 33.9965 58.6351 34.2188L59.0311 32.2584C58.7034 32.1922 58.2698 31.8732 57.7497 31.1633C57.253 30.4853 56.8131 29.6438 56.3945 28.8385L54.6199 29.761ZM58.6351 34.2188C59.0804 34.3087 59.554 34.2856 59.9866 34.0468C60.4084 33.814 60.6572 33.4497 60.8081 33.1224C61.0832 32.5257 61.1686 31.7253 61.241 31.1261L59.2554 30.8862C59.2146 31.2246 59.1795 31.5121 59.1331 31.7657C59.086 32.0234 59.0371 32.1868 58.9918 32.285C58.9487 32.3785 58.9436 32.3381 59.0203 32.2957C59.1077 32.2475 59.1449 32.2814 59.0311 32.2584L58.6351 34.2188ZM61.241 31.1261C61.3376 30.3263 61.4263 29.6643 61.6504 29.1642C61.8381 28.7453 62.0795 28.5173 62.557 28.4503L62.279 26.4697C60.985 26.6513 60.2336 27.435 59.8252 28.3463C59.4533 29.1764 59.3428 30.1632 59.2554 30.8862L61.241 31.1261ZM62.557 28.4503C63.2569 28.352 64.1442 28.5653 65.1521 29.024L65.9806 27.2037C64.8509 26.6895 63.5416 26.2925 62.279 26.4697L62.557 28.4503ZM24.9854 42.7599C24.9854 46.307 25.7719 49.6731 27.181 52.691L28.9932 51.8449C27.7052 49.0864 26.9854 46.0086 26.9854 42.7599H24.9854ZM25.0013 41.8857C24.9907 42.1758 24.9854 42.4673 24.9854 42.7599H26.9854C26.9854 42.4917 26.9903 42.2246 27 41.9589L25.0013 41.8857ZM26.8853 42.3885C26.9033 42.3545 26.9185 42.3327 26.9291 42.3196L25.3762 41.0593C25.2734 41.1859 25.1877 41.32 25.116 41.4561L26.8853 42.3885ZM26.9291 42.3196C27.1705 42.0223 27.7347 41.686 28.6677 41.4324C29.5639 41.1887 30.6581 41.06 31.7743 41.06C32.8905 41.06 33.9847 41.1887 34.8809 41.4324C35.8139 41.686 36.3782 42.0223 36.6195 42.3196L38.1724 41.0593C37.5321 40.2704 36.4706 39.7919 35.4056 39.5024C34.3039 39.2029 33.0281 39.06 31.7743 39.06C30.5205 39.06 29.2447 39.2029 28.143 39.5024C27.078 39.7919 26.0165 40.2704 25.3762 41.0593L26.9291 42.3196ZM36.6195 42.3196C38.0823 44.122 38.0617 47.1469 36.6195 48.9239L38.1724 50.1842C40.2059 47.6787 40.2361 43.6021 38.1724 41.0593L36.6195 42.3196ZM36.6195 48.9239C36.2473 49.3825 36.2671 49.9199 36.3331 50.2654C36.4014 50.6225 36.5557 50.9834 36.7208 51.3087C37.0533 51.9637 37.5715 52.741 38.0744 53.4979L39.7403 52.3913C39.213 51.5975 38.7718 50.9306 38.5042 50.4034C38.3694 50.1377 38.3135 49.9731 38.2976 49.8897C38.2794 49.7947 38.3409 49.9766 38.1724 50.1842L36.6195 48.9239ZM38.0744 53.4979C38.6486 54.3624 39.2283 55.2367 39.6599 56.0615C40.1084 56.9184 40.3038 57.5541 40.284 57.9656L42.2818 58.0614C42.3288 57.0806 41.904 56.0362 41.4319 55.1341C40.9429 54.1997 40.3013 53.2358 39.7403 52.3913L38.0744 53.4979ZM40.284 57.9656C40.2692 58.276 40.1155 58.574 39.7591 58.8663C39.3909 59.1684 38.8551 59.4171 38.242 59.5764C37.6331 59.7345 37.016 59.7867 36.5297 59.7476C36.2866 59.7281 36.1041 59.688 35.9835 59.6446C35.8523 59.5974 35.8599 59.5706 35.9052 59.6264L34.3523 60.8867C34.6212 61.218 34.9848 61.4107 35.306 61.5264C35.6377 61.6458 36.0039 61.7119 36.3697 61.7412C37.1013 61.7999 37.9429 61.7204 38.7449 61.5121C39.5426 61.3049 40.3697 60.9522 41.0276 60.4126C41.6973 59.8632 42.233 59.079 42.2818 58.0614L40.284 57.9656ZM35.7241 59.4531C32.8196 57.301 30.4638 54.2598 28.9423 51.7496L27.2319 52.7863C28.8356 55.432 31.3521 58.7028 34.5334 61.06L35.7241 59.4531ZM50.3853 46.6946C50.3853 46.4233 50.6058 45.9713 51.6831 45.5108C52.6931 45.0791 54.128 44.8005 55.6896 44.701C57.2405 44.6021 58.8385 44.6846 60.1439 44.9255C60.797 45.046 61.3519 45.2016 61.781 45.3802C62.2264 45.5656 62.4547 45.7421 62.5481 45.8558L64.0933 44.586C63.7021 44.1099 63.1314 43.7759 62.5495 43.5338C61.9515 43.2849 61.2511 43.096 60.5068 42.9587C59.0176 42.6839 57.253 42.5972 55.5623 42.705C53.8824 42.8121 52.197 43.1161 50.897 43.6718C49.6644 44.1987 48.3853 45.1392 48.3853 46.6946H50.3853ZM52.7869 49.2353C52.0584 49.1011 51.4988 48.9801 51.0866 48.6657C50.7573 48.4146 50.3853 47.9261 50.3853 46.6946H48.3853C48.3853 48.3939 48.9363 49.541 49.8737 50.2559C50.7281 50.9076 51.7787 51.0832 52.4246 51.2022L52.7869 49.2353ZM55.0656 50.977C55.0425 50.6362 54.9212 50.32 54.7022 50.0576C54.4961 49.8106 54.2443 49.6598 54.0288 49.5629C53.632 49.3844 53.1384 49.3 52.7869 49.2353L52.4246 51.2022C52.6278 51.2396 52.7903 51.2698 52.9333 51.3034C53.0774 51.3373 53.1616 51.3658 53.2086 51.3869C53.2552 51.4079 53.2184 51.401 53.1666 51.3389C53.1019 51.2615 53.0742 51.1712 53.0702 51.1122L55.0656 50.977ZM54.9124 53.5316C55.0056 52.6026 55.1086 51.6121 55.0656 50.977L53.0702 51.1122C53.0988 51.5354 53.0247 52.312 52.9224 53.3321L54.9124 53.5316ZM54.8405 57.5495C54.8694 57.5847 54.8146 57.5307 54.7688 57.2541C54.7273 57.0041 54.7086 56.6714 54.7128 56.2641C54.721 55.4484 54.8175 54.478 54.9124 53.5316L52.9224 53.3321C52.8299 54.2546 52.7222 55.3205 52.7129 56.2438C52.7082 56.706 52.7273 57.1685 52.7957 57.5812C52.8598 57.9675 52.987 58.444 53.2953 58.8192L54.8405 57.5495ZM56.4449 56.2614C56.1782 56.709 55.9525 57.0868 55.7348 57.396C55.5103 57.7151 55.3518 57.8756 55.2508 57.9446C55.189 57.9868 55.2327 57.946 55.2934 57.9638C55.296 57.9646 55.257 57.9537 55.175 57.8902C55.0923 57.8261 54.9805 57.7198 54.8405 57.5495L53.2953 58.8192C53.6955 59.3062 54.1636 59.7169 54.7313 59.8832C55.3656 60.0689 55.9355 59.8988 56.3786 59.5963C56.7823 59.3206 57.1072 58.9211 57.3704 58.5471C57.6405 58.1633 57.9071 57.7147 58.1631 57.2851L56.4449 56.2614ZM57.9406 54.0234C57.3423 54.7515 56.8525 55.5773 56.4449 56.2614L58.1631 57.2851C58.5841 56.5784 58.9994 55.8851 59.4858 55.2931L57.9406 54.0234ZM58.779 53.0323C58.4754 53.3868 58.1871 53.7235 57.9406 54.0234L59.4858 55.2931C59.7167 55.0122 59.9906 54.6923 60.2981 54.3333L58.779 53.0323ZM62.5481 45.8558C62.7446 46.0949 62.8353 46.4137 62.7584 46.9093C62.6777 47.4294 62.4196 48.0649 62.0022 48.7895C61.1674 50.2387 59.8639 51.7657 58.779 53.0323L60.2981 54.3333C61.3541 53.1003 62.79 51.4286 63.7352 49.7879C64.2078 48.9676 64.5999 48.0853 64.7348 47.2159C64.8735 46.3218 64.7451 45.3792 64.0933 44.586L62.5481 45.8558Z" fill="#535665"/>
<mask id="path-5-outside-1_649_4942" maskUnits="userSpaceOnUse" x="40.4854" y="69.7598" width="16" height="14" fill="black">
<rect fill="white" x="40.4854" y="69.7598" width="16" height="14"/>
<path fill-rule="evenodd" clip-rule="evenodd" d="M49.9854 71.7598H46.9854V78.807C44.3975 78.9735 42.4854 79.5608 42.4854 80.2598C42.4854 81.0882 45.1716 81.7598 48.4854 81.7598C51.7991 81.7598 54.4854 81.0882 54.4854 80.2598C54.4854 79.5608 52.5732 78.9735 49.9854 78.807V71.7598Z"/>
</mask>
<path fill-rule="evenodd" clip-rule="evenodd" d="M49.9854 71.7598H46.9854V78.807C44.3975 78.9735 42.4854 79.5608 42.4854 80.2598C42.4854 81.0882 45.1716 81.7598 48.4854 81.7598C51.7991 81.7598 54.4854 81.0882 54.4854 80.2598C54.4854 79.5608 52.5732 78.9735 49.9854 78.807V71.7598Z" fill="#FF9666"/>
<path d="M46.9854 71.7598V69.7598H44.9854V71.7598H46.9854ZM49.9854 71.7598H51.9854V69.7598H49.9854V71.7598ZM46.9854 78.807L47.1138 80.8029L48.9854 80.6825V78.807H46.9854ZM49.9854 78.807H47.9854V80.6825L49.8569 80.8029L49.9854 78.807ZM46.9854 73.7598H49.9854V69.7598H46.9854V73.7598ZM48.9854 78.807V71.7598H44.9854V78.807H48.9854ZM44.4854 80.2598C44.4854 80.6533 44.3451 80.9559 44.2198 81.1377C44.1049 81.3047 43.997 81.3818 43.9822 81.3922C43.9621 81.4065 44.0617 81.3381 44.3713 81.2396C44.9643 81.0509 45.9147 80.88 47.1138 80.8029L46.8569 76.8111C45.4682 76.9005 44.1685 77.1065 43.1586 77.4279C42.6666 77.5844 42.1264 77.8043 41.6669 78.1304C41.2647 78.4159 40.4854 79.1054 40.4854 80.2598H44.4854ZM48.4854 79.7598C46.9428 79.7598 45.6134 79.6015 44.7278 79.3801C44.2696 79.2656 44.0407 79.161 43.9745 79.1219C43.7744 79.0036 44.4854 79.3232 44.4854 80.2598H40.4854C40.4854 81.6105 41.532 82.3247 41.9392 82.5654C42.4802 82.8852 43.13 83.1038 43.7576 83.2607C45.0436 83.5822 46.7142 83.7598 48.4854 83.7598V79.7598ZM52.4854 80.2598C52.4854 79.3232 53.1963 79.0036 52.9962 79.1219C52.93 79.161 52.7011 79.2656 52.2429 79.3801C51.3573 79.6015 50.0279 79.7598 48.4854 79.7598V83.7598C50.2565 83.7598 51.9271 83.5822 53.2131 83.2607C53.8407 83.1038 54.4905 82.8852 55.0315 82.5654C55.4387 82.3247 56.4854 81.6105 56.4854 80.2598H52.4854ZM49.8569 80.8029C51.056 80.88 52.0064 81.0509 52.5994 81.2396C52.909 81.3381 53.0086 81.4065 52.9885 81.3922C52.9737 81.3818 52.8658 81.3047 52.7509 81.1377C52.6256 80.9559 52.4854 80.6533 52.4854 80.2598H56.4854C56.4854 79.1054 55.706 78.4159 55.3038 78.1304C54.8443 77.8043 54.3041 77.5844 53.8121 77.4279C52.8022 77.1065 51.5025 76.9005 50.1138 76.8111L49.8569 80.8029ZM47.9854 71.7598V78.807H51.9854V71.7598H47.9854Z" fill="#535665" mask="url(#path-5-outside-1_649_4942)"/>
<path d="M59.3382 67.5227C45.8935 73.7383 29.9558 67.878 23.7402 54.4334C17.5247 40.9888 23.385 25.051 36.8296 18.8354" stroke="#535665" stroke-width="2"/>
</svg>
