<svg width="97" height="97" viewBox="0 0 97 97" fill="none" xmlns="http://www.w3.org/2000/svg">
<path d="M48.4854 79.2598C60.6356 79.2598 70.4854 69.41 70.4854 57.2598V42.7598C70.4854 30.6095 60.6356 20.7598 48.4854 20.7598C36.3351 20.7598 26.4854 30.6095 26.4854 42.7598V57.2598C26.4854 69.41 36.3351 79.2598 48.4854 79.2598Z" fill="#D9EAFD" stroke="#535665" stroke-width="2"/>
<path d="M22.4854 41.7402V41.7402C22.4854 27.9439 33.6695 16.7598 47.4657 16.7598H48.4806C62.7618 16.7598 74.2621 28.4812 73.9901 42.7598V42.7598" stroke="#535665" stroke-width="2"/>
<path d="M56.4854 43.7598H26.4854C26.4854 34.7598 32.8854 20.7598 48.4854 20.7598C64.0854 20.7598 70.4854 33.7598 70.4854 43.7598H62.4854L61.141 38.3823C60.9158 37.4816 59.6916 37.3472 59.2764 38.1776L56.4854 43.7598Z" fill="#29327A" stroke="#535665" stroke-width="2"/>
<path d="M43.2133 54.0025C42.6561 53.4453 41.9947 53.0034 41.2667 52.7018C40.5388 52.4003 39.7586 52.2451 38.9706 52.2451C38.1827 52.2451 37.4025 52.4003 36.6745 52.7018C35.9466 53.0034 35.2851 53.4453 34.728 54.0025" stroke="#535665" stroke-width="2"/>
<path d="M62.3346 54.0025C61.7775 53.4453 61.116 53.0034 60.3881 52.7018C59.6601 52.4003 58.8799 52.2451 58.092 52.2451C57.304 52.2451 56.5238 52.4003 55.7959 52.7018C55.0679 53.0034 54.4065 53.4453 53.8493 54.0025" stroke="#535665" stroke-width="2"/>
<path d="M15.4854 45.7598C15.4854 43.5506 17.2762 41.7598 19.4854 41.7598H23.4854C24.5899 41.7598 25.4854 42.6552 25.4854 43.7598V61.7598C25.4854 62.8643 24.5899 63.7598 23.4854 63.7598H19.4854C17.2762 63.7598 15.4854 61.9689 15.4854 59.7598V45.7598Z" fill="#FF9666" stroke="#535665" stroke-width="2"/>
<path d="M22.4854 41.7598H24.4854C25.5899 41.7598 26.4854 42.6552 26.4854 43.7598V61.7598C26.4854 62.8643 25.5899 63.7598 24.4854 63.7598H22.4854V41.7598Z" fill="#FFDCCC" stroke="#535665" stroke-width="2"/>
<path d="M81.4854 59.7598C81.4854 61.9689 79.6945 63.7598 77.4854 63.7598L73.4854 63.7598C72.3808 63.7598 71.4854 62.8643 71.4854 61.7598L71.4854 43.7598C71.4854 42.6552 72.3808 41.7598 73.4854 41.7598L77.4854 41.7598C79.6945 41.7598 81.4854 43.5506 81.4854 45.7598L81.4854 59.7598Z" fill="#FF9666" stroke="#535665" stroke-width="2"/>
<path d="M74.4854 63.7598L72.4854 63.7598C71.3808 63.7598 70.4854 62.8643 70.4854 61.7598L70.4854 43.7598C70.4854 42.6552 71.3808 41.7598 72.4854 41.7598L74.4854 41.7598L74.4854 63.7598Z" fill="#FFDCCC" stroke="#535665" stroke-width="2"/>
<path d="M74.4854 61.5098V61.5098C74.4854 67.0326 70.0082 71.5098 64.4854 71.5098H52.4854" stroke="#535665" stroke-width="2"/>
<rect x="43.4854" y="68.5098" width="11" height="5" rx="2.5" fill="#FF9666" stroke="#535665" stroke-width="2"/>
</svg>
