<svg width="97" height="97" viewBox="0 0 97 97" fill="none" xmlns="http://www.w3.org/2000/svg">
<path d="M24.1049 29.5233C23.9455 28.3246 24.8781 27.2598 26.0874 27.2598H70.8835C72.0928 27.2598 73.0254 28.3246 72.8661 29.5233L66.2856 79.0233C66.1535 80.0173 65.3058 80.7598 64.3031 80.7598H32.6679C31.6652 80.7598 30.8174 80.0173 30.6853 79.0233L24.1049 29.5233Z" fill="#D9EAFD" stroke="#535665" stroke-width="2"/>
<path d="M24.1635 49.1761C23.8987 47.9318 24.8475 46.7598 26.1197 46.7598H70.8515C72.1237 46.7598 73.0725 47.9318 72.8077 49.1761L69.6153 64.1761C69.4187 65.0995 68.6032 65.7598 67.6591 65.7598H29.3121C28.368 65.7598 27.5525 65.0995 27.3559 64.1761L24.1635 49.1761Z" fill="#FF9666" stroke="#535665" stroke-width="2"/>
<path d="M25.4854 18.7598C25.4854 17.6552 26.3808 16.7598 27.4854 16.7598H69.4854C70.5899 16.7598 71.4854 17.6552 71.4854 18.7598V24.7598C71.4854 25.8643 70.5899 26.7598 69.4854 26.7598H27.4854C26.3808 26.7598 25.4854 25.8643 25.4854 24.7598V18.7598Z" fill="#7495E7" stroke="#535665" stroke-width="2"/>
<path d="M20.9854 27.7598C20.9854 26.6552 21.8808 25.7598 22.9854 25.7598H73.9854C75.0899 25.7598 75.9854 26.6552 75.9854 27.7598V30.7598C75.9854 31.8643 75.0899 32.7598 73.9854 32.7598H22.9854C21.8808 32.7598 20.9854 31.8643 20.9854 30.7598V27.7598Z" fill="#7495E7" stroke="#535665" stroke-width="2"/>
</svg>
