<svg width="97" height="97" viewBox="0 0 97 97" fill="none" xmlns="http://www.w3.org/2000/svg">
<path d="M20.4854 37.7598L47.2641 58.4089C47.9837 58.9639 48.987 58.9639 49.7066 58.4089L76.4854 37.7598V73.7598C76.4854 74.8643 75.5899 75.7598 74.4854 75.7598H22.4854C21.3808 75.7598 20.4854 74.8643 20.4854 73.7598V37.7598Z" fill="#D9EAFD" stroke="#535665" stroke-width="2" stroke-linejoin="round"/>
<path d="M75.4854 75.7598L48.4854 49.7598L21.4853 75.7598" stroke="#535665" stroke-width="2" stroke-linejoin="round"/>
<path d="M49.721 16.7306L76.4854 37.7598L49.721 58.7889C48.9958 59.3587 47.9749 59.3587 47.2497 58.7889L20.4853 37.7598L47.2497 16.7306C47.9749 16.1608 48.9958 16.1608 49.721 16.7306Z" fill="white" stroke="#535665" stroke-width="2" stroke-linejoin="round"/>
<mask id="mask0_649_4937" style="mask-type:alpha" maskUnits="userSpaceOnUse" x="20" y="14" width="57" height="45">
<path d="M48.4854 14.7598L76.4854 37.2088L49.7052 57.8209C48.9861 58.3743 47.9846 58.3743 47.2655 57.8209L20.4853 37.2088L48.4854 14.7598Z" fill="white"/>
</mask>
<g mask="url(#mask0_649_4937)">
<rect x="37.4914" y="27.8755" width="32.4928" height="35.9131" transform="rotate(15.1364 37.4914 27.8755)" fill="#FFDCCC" stroke="#535665" stroke-width="2" stroke-linejoin="round"/>
<path d="M48.9913 42.7781C47.1913 42.2912 45.474 43.5182 44.9103 45.6018C44.3222 47.7759 45.2581 49.7984 47.1309 50.305C48.4036 50.6493 49.4311 50.1689 50.0069 49.4108C50.071 50.4003 50.6813 51.246 52.0813 51.6247C54.4086 52.2542 56.2295 50.8607 56.9597 48.1612C58.0428 44.1572 55.6563 40.284 51.4199 39.138C46.8925 37.9134 42.5907 40.3273 41.3949 44.7481C40.2187 49.0963 42.8638 53.3117 47.5366 54.5757C49.7003 55.1609 51.6537 55.0088 53.4107 54.3564L53.9204 52.4721C52.3046 53.3961 50.2861 53.8611 47.8133 53.1922C44.086 52.184 42.0343 48.732 43.0047 45.1446C43.9898 41.503 47.4935 39.5148 51.1299 40.4984C54.5118 41.4132 56.3628 44.5971 55.4561 47.9489C55.064 49.3983 54.1377 50.5866 53.0468 50.2915C52.5013 50.1439 52.1679 49.6454 52.3198 49.0838L53.6431 44.192L51.243 43.5427L50.9573 44.671C50.7164 43.6142 49.8822 43.0191 48.9913 42.7781ZM50.6016 46.1302L50.0674 48.1051C49.6918 48.4118 49.1923 48.7433 48.4469 48.5417C47.5014 48.2859 47.0842 47.3759 47.3782 46.2888C47.6723 45.2017 48.4816 44.6623 49.4271 44.9181C50.2089 45.1296 50.4451 45.699 50.6016 46.1302Z" fill="#FF7535"/>
</g>
</svg>
