<svg xmlns="http://www.w3.org/2000/svg" width="126.5075" height="40" viewBox="0 0 126.5075 40"><path d="M116.9782 0H9.5347c-.3667 0-.729 0-1.0948.002-.3061.002-.6098.0078-.9189.0127a13.2148 13.2148 0 0 0-2.0039.1767 6.665 6.665 0 0 0-1.9009.627 6.4378 6.4378 0 0 0-1.6186 1.1787A6.2584 6.2584 0 0 0 .8193 3.618a6.6012 6.6012 0 0 0-.625 1.9034 12.993 12.993 0 0 0-.1791 2.002C.0059 7.83.0049 8.1377 0 8.4443v23.1143c.0049.3105.0059.6113.0152.9219a12.9923 12.9923 0 0 0 .1792 2.0019 6.5876 6.5876 0 0 0 .625 1.9043 6.2078 6.2078 0 0 0 1.1782 1.6143 6.2744 6.2744 0 0 0 1.6186 1.1787 6.7008 6.7008 0 0 0 1.9009.6308 13.4551 13.4551 0 0 0 2.0039.1768c.309.0068.6128.0107.919.0107.3657.002.728.002 1.0947.002h107.4435c.3594 0 .7246 0 1.084-.002.3047 0 .6172-.0039.922-.0107a13.279 13.279 0 0 0 2-.1768 6.8043 6.8043 0 0 0 1.9081-.6308 6.2774 6.2774 0 0 0 1.6172-1.1787 6.3948 6.3948 0 0 0 1.1816-1.6143 6.6041 6.6041 0 0 0 .6191-1.9043 13.5064 13.5064 0 0 0 .1856-2.0019c.004-.3106.004-.6114.004-.9219.0077-.3633.0077-.7246.0077-1.0938V9.5361c0-.3662 0-.7295-.0078-1.0918 0-.3066 0-.6142-.0039-.9209a13.507 13.507 0 0 0-.1856-2.002 6.6177 6.6177 0 0 0-.619-1.9033 6.4662 6.4662 0 0 0-2.7989-2.7998 6.7675 6.7675 0 0 0-1.9082-.627 13.044 13.044 0 0 0-2-.1767c-.3047-.005-.6172-.0108-.9219-.0127-.3594-.002-.7246-.002-1.084-.002Z" fill="#a6a6a6"/><path d="M8.4448 39.125c-.3047 0-.602-.0039-.9043-.0107a12.6871 12.6871 0 0 1-1.8691-.1631 5.8838 5.8838 0 0 1-1.6567-.5479 5.4057 5.4057 0 0 1-1.397-1.0166 5.3208 5.3208 0 0 1-1.0206-1.3965 5.7219 5.7219 0 0 1-.543-1.6572 12.4135 12.4135 0 0 1-.1665-1.875c-.0063-.2109-.0146-.9131-.0146-.9131V8.4443s.0089-.6914.0147-.8945a12.3714 12.3714 0 0 1 .1655-1.872 5.7558 5.7558 0 0 1 .5435-1.6622 5.3736 5.3736 0 0 1 1.0151-1.398 5.5656 5.5656 0 0 1 1.4024-1.0224 5.823 5.823 0 0 1 1.6533-.544A12.5858 12.5858 0 0 1 7.543.8873L8.4453.875h109.612l.9131.0127a12.385 12.385 0 0 1 1.8584.1626 5.9383 5.9383 0 0 1 1.671.5478 5.5938 5.5938 0 0 1 2.415 2.42 5.7627 5.7627 0 0 1 .5351 1.6489 12.995 12.995 0 0 1 .1738 1.8872c.003.2832.003.5874.003.8901.0078.375.0078.732.0078 1.0918v20.9287c0 .3633 0 .7178-.0079 1.0752 0 .3252 0 .6231-.0039.9297a12.7313 12.7313 0 0 1-.1709 1.8535 5.739 5.739 0 0 1-.54 1.67 5.4803 5.4803 0 0 1-1.0156 1.3857 5.4129 5.4129 0 0 1-1.3994 1.0225 5.8617 5.8617 0 0 1-1.668.5498 12.5422 12.5422 0 0 1-1.8692.1631 39.1495 39.1495 0 0 1-.8974.0107l-1.084.002Z"/><g data-name="&lt;Group&gt;" fill="#fff"><path data-name="&lt;Path&gt;" d="M24.7718 20.3007a4.9488 4.9488 0 0 1 2.3566-4.152 5.0657 5.0657 0 0 0-3.9912-2.1578c-1.6792-.1762-3.3072 1.0049-4.1629 1.0049-.8723 0-2.1898-.9874-3.6085-.9582a5.3153 5.3153 0 0 0-4.473 2.7279c-1.934 3.3484-.4913 8.2695 1.3613 10.976.9269 1.3254 2.0102 2.8059 3.4276 2.7534 1.387-.0575 1.9051-.8845 3.5794-.8845 1.6588 0 2.1448.8845 3.591.8511 1.4884-.0242 2.4261-1.3312 3.3205-2.6691a10.962 10.962 0 0 0 1.5184-3.0925 4.782 4.782 0 0 1-2.9192-4.3992ZM22.0402 12.2109a4.8725 4.8725 0 0 0 1.1145-3.4906 4.9575 4.9575 0 0 0-3.2076 1.6596 4.6363 4.6363 0 0 0-1.1437 3.3614 4.099 4.099 0 0 0 3.2368-1.5304Z"/></g><g fill="#fff" data-name="&lt;Group&gt;"><path d="M35.6553 14.7017V9.578h-1.877V8.735h4.6767v.8432h-1.873v5.1236ZM42.7647 13.4858a1.828 1.828 0 0 1-1.9512 1.3028 2.0453 2.0453 0 0 1-2.08-2.3243 2.0768 2.0768 0 0 1 2.076-2.3525c1.253 0 2.0089.856 2.0089 2.27v.31h-3.1797v.0499a1.1902 1.1902 0 0 0 1.1992 1.29 1.0793 1.0793 0 0 0 1.0713-.546Zm-3.126-1.4511h2.2744a1.0865 1.0865 0 0 0-1.1084-1.1665 1.1516 1.1516 0 0 0-1.166 1.1665Zm.6367-2.5889 1.038-1.4224h1.042l-1.162 1.4224ZM44.0527 8.441h.8887v6.2607h-.8887ZM50.208 13.4858a1.828 1.828 0 0 1-1.9512 1.3028 2.0453 2.0453 0 0 1-2.08-2.3243 2.0768 2.0768 0 0 1 2.0761-2.3525c1.253 0 2.0088.856 2.0088 2.27v.31H47.082v.0499a1.1902 1.1902 0 0 0 1.1992 1.29 1.0793 1.0793 0 0 0 1.0713-.546Zm-3.126-1.4511h2.2744a1.0865 1.0865 0 0 0-1.1084-1.1665 1.1516 1.1516 0 0 0-1.166 1.1665Zm.6367-2.5889 1.0381-1.4224h1.042l-1.162 1.4224ZM54.4033 11.6704a1.0055 1.0055 0 0 0-1.0635-.7646c-.744 0-1.1992.5703-1.1992 1.5298 0 .976.459 1.559 1.1993 1.559a.9787.9787 0 0 0 1.0634-.7402h.8643a1.762 1.762 0 0 1-1.9229 1.5342 2.068 2.068 0 0 1-2.1132-2.353 2.053 2.053 0 0 1 2.1084-2.3238 1.7773 1.7773 0 0 1 1.9277 1.5586ZM56.4473 8.441h.8808v2.4814h.0703a1.3856 1.3856 0 0 1 1.373-.8067 1.4834 1.4834 0 0 1 1.5508 1.6787v2.9073h-.8896v-2.688c0-.7193-.335-1.0835-.963-1.0835a1.052 1.052 0 0 0-1.1337 1.1416v2.6299h-.8887ZM61.4395 13.4282c0-.8105.6035-1.2778 1.6748-1.3442l1.2197-.0703v-.3887c0-.4756-.3145-.7441-.9219-.7441-.496 0-.8398.182-.9385.5004h-.8603c.0908-.7734.8183-1.2695 1.8398-1.2695 1.129 0 1.7652.562 1.7652 1.5132v3.0767h-.855v-.6329h-.0703a1.515 1.515 0 0 1-1.3525.707 1.3603 1.3603 0 0 1-1.501-1.3476Zm2.8945-.3848v-.3764l-1.0996.0703c-.6201.0415-.9014.2524-.9014.6494 0 .4053.3516.6411.835.6411a1.0615 1.0615 0 0 0 1.166-.9843ZM66.6099 10.1987h.8554v.6905h.0664a1.221 1.221 0 0 1 1.2159-.7652 1.8684 1.8684 0 0 1 .3964.0371v.877a2.4344 2.4344 0 0 0-.496-.0537 1.055 1.055 0 0 0-1.1495 1.0586v2.6587H66.61ZM69.9614 15.1523h.9092c.0752.3267.4512.5376 1.0508.5376.7402 0 1.1787-.3515 1.1787-.9467v-.8643h-.0664a1.5143 1.5143 0 0 1-1.3897.7563c-1.1494 0-1.8603-.8886-1.8603-2.2368 0-1.373.7188-2.2744 1.8691-2.2744a1.5604 1.5604 0 0 1 1.4141.794h.0703v-.7193h.8516v4.54c0 1.0298-.8067 1.6831-2.0801 1.6831-1.125 0-1.8525-.5043-1.9473-1.2695Zm3.1553-2.7583c0-.897-.4639-1.4716-1.2207-1.4716-.7646 0-1.1943.5747-1.1943 1.4716 0 .8975.4297 1.4722 1.1943 1.4722.7617 0 1.2207-.5703 1.2207-1.4722ZM79.2124 13.4858a1.828 1.828 0 0 1-1.9512 1.3028 2.0453 2.0453 0 0 1-2.08-2.3243 2.0768 2.0768 0 0 1 2.0761-2.3525c1.253 0 2.0088.856 2.0088 2.27v.31h-3.1797v.0499a1.1902 1.1902 0 0 0 1.1993 1.29 1.0793 1.0793 0 0 0 1.0712-.546Zm-3.126-1.4511h2.2744a1.0865 1.0865 0 0 0-1.1084-1.1665 1.1516 1.1516 0 0 0-1.166 1.1665ZM80.4595 10.1987h.8555v.6905h.0664a1.221 1.221 0 0 1 1.2158-.7652 1.8684 1.8684 0 0 1 .3965.0371v.877a2.4344 2.4344 0 0 0-.496-.0537 1.055 1.055 0 0 0-1.1495 1.0586v2.6587h-.8887ZM86.1958 12.4482c0-1.4228.7315-2.3242 1.8691-2.3242a1.484 1.484 0 0 1 1.381.79h.0663V8.441h.8887v6.2607h-.8516v-.7115h-.0703a1.5628 1.5628 0 0 1-1.414.7857c-1.1456 0-1.8692-.9014-1.8692-2.3277Zm.918 0c0 .9551.4502 1.5298 1.2031 1.5298.749 0 1.212-.583 1.212-1.5258 0-.9385-.4678-1.5298-1.212-1.5298-.748 0-1.2031.5786-1.2031 1.5258ZM91.602 13.4282c0-.8105.6036-1.2778 1.6749-1.3442l1.2197-.0703v-.3887c0-.4756-.3145-.7441-.9219-.7441-.496 0-.8398.182-.9385.5004h-.8603c.0908-.7734.8184-1.2695 1.8398-1.2695 1.129 0 1.7657.562 1.7657 1.5132v3.0767h-.8555v-.6329h-.0703a1.515 1.515 0 0 1-1.3526.707 1.3603 1.3603 0 0 1-1.501-1.3476Zm2.8946-.3848v-.3764l-1.0996.0703c-.6201.0415-.9014.2524-.9014.6494 0 .4053.3516.6411.835.6411a1.0615 1.0615 0 0 0 1.166-.9843ZM96.773 10.1987h.8555v.7154h.0664a1.348 1.348 0 0 1 1.3437-.8023 1.4646 1.4646 0 0 1 1.5586 1.6748v2.915h-.8887v-2.6918c0-.7237-.3144-1.0835-.9716-1.0835a1.033 1.033 0 0 0-1.0752 1.141v2.6344h-.8887ZM103.6177 10.1118c1.0127 0 1.6748.4712 1.7617 1.2652h-.8525c-.082-.3306-.4053-.5415-.9092-.5415-.4961 0-.873.2353-.873.5869 0 .269.2275.4385.7158.5503l.748.1733c.8565.1987 1.2578.5669 1.2578 1.2285 0 .8477-.79 1.414-1.8652 1.414-1.0713 0-1.7695-.4838-1.8486-1.2817h.8896a.9136.9136 0 0 0 .9795.562c.5537 0 .9473-.248.9473-.6079 0-.2685-.211-.4424-.6621-.5498l-.7852-.1821c-.8565-.2026-1.253-.587-1.253-1.2568 0-.7984.7315-1.3604 1.749-1.3604Z"/></g><g fill="#fff"><path d="M35.1983 18.0669h1.8593v12.4184h-1.8593ZM39.2979 22.6108l1.0156-4.544H42.12l-1.2304 4.544ZM49.1465 27.129H44.413l-1.1367 3.3564h-2.005l4.4835-12.4185h2.083l4.4834 12.4185h-2.039Zm-4.2432-1.549h3.752l-1.8496-5.4477h-.0517ZM62.003 25.959c0 2.8135-1.506 4.621-3.7784 4.621a3.0693 3.0693 0 0 1-2.8486-1.584h-.043v4.4845h-1.8584V21.431h1.7988v1.5059h.0342a3.2116 3.2116 0 0 1 2.8828-1.6006c2.2979 0 3.8125 1.8164 3.8125 4.6226Zm-1.9102 0c0-1.8335-.9473-3.0386-2.3926-3.0386-1.42 0-2.375 1.2305-2.375 3.0386 0 1.8242.955 3.0459 2.375 3.0459 1.4453 0 2.3926-1.1963 2.3926-3.0459ZM71.9673 25.959c0 2.8135-1.5059 4.621-3.7783 4.621a3.0693 3.0693 0 0 1-2.8486-1.584h-.043v4.4845h-1.858V21.431h1.7984v1.5059h.0342a3.2116 3.2116 0 0 1 2.8828-1.6006c2.2979 0 3.8125 1.8164 3.8125 4.6226Zm-1.9102 0c0-1.8335-.9472-3.0386-2.3925-3.0386-1.42 0-2.375 1.2305-2.375 3.0386 0 1.8242.955 3.0459 2.375 3.0459 1.4453 0 2.3925-1.1963 2.3925-3.0459ZM78.5532 27.0254c.1377 1.2314 1.334 2.04 2.9688 2.04 1.5664 0 2.6933-.8086 2.6933-1.919 0-.9638-.6797-1.541-2.289-1.9365l-1.6094-.3882c-2.2803-.5507-3.3389-1.6171-3.3389-3.3476 0-2.1426 1.8672-3.6142 4.5186-3.6142 2.624 0 4.4228 1.4716 4.4833 3.6142H84.104c-.1123-1.2392-1.1367-1.9873-2.6338-1.9873s-2.5215.7569-2.5215 1.8584c0 .878.6543 1.3945 2.255 1.79l1.368.336c2.548.6025 3.6065 1.6264 3.6065 3.4428 0 2.3233-1.8506 3.7783-4.794 3.7783-2.7538 0-4.6132-1.4209-4.7333-3.667ZM90.19 19.2886v2.1426h1.7217v1.4716H90.19v4.9917c0 .7754.3447 1.1367 1.1016 1.1367a5.8075 5.8075 0 0 0 .6113-.043v1.463a5.1035 5.1035 0 0 1-1.0322.0859c-1.833 0-2.5479-.6885-2.5479-2.4444v-5.1899h-1.3164v-1.4717h1.3164v-2.1425ZM92.9077 25.959c0-2.8491 1.6778-4.6392 4.294-4.6392 2.625 0 4.2949 1.79 4.2949 4.6392 0 2.8565-1.6611 4.6387-4.295 4.6387-2.6327 0-4.2939-1.7823-4.2939-4.6387Zm6.6953 0c0-1.9546-.8955-3.108-2.4013-3.108s-2.4004 1.1622-2.4004 3.108c0 1.962.8945 3.1065 2.4004 3.1065s2.4013-1.1446 2.4013-3.1065ZM103.0288 21.4311h1.7725v1.541h.043a2.1594 2.1594 0 0 1 2.1777-1.6357 2.8662 2.8662 0 0 1 .6367.0693v1.7383a2.598 2.598 0 0 0-.835-.1123 1.8728 1.8728 0 0 0-1.9365 2.0835v5.3701h-1.8584ZM116.226 27.8262c-.25 1.6435-1.8505 2.7715-3.8984 2.7715-2.6338 0-4.2685-1.7647-4.2685-4.5957 0-2.8404 1.6435-4.6822 4.1904-4.6822 2.5049 0 4.0801 1.7207 4.0801 4.4663v.6367h-6.3945v.1124a2.358 2.358 0 0 0 2.4355 2.5644 2.0483 2.0483 0 0 0 2.0908-1.2734Zm-6.2821-2.7022h4.5263a2.1774 2.1774 0 0 0-2.2207-2.2983 2.2921 2.2921 0 0 0-2.3056 2.2983Z"/></g></svg>