<svg width="97" height="97" viewBox="0 0 97 97" fill="none" xmlns="http://www.w3.org/2000/svg">
<rect x="16.4854" y="58.7598" width="56" height="5" rx="2.5" fill="#7495E7" stroke="#535665" stroke-width="2"/>
<path d="M47.4854 30.7598H40.4854C40.4854 28.5506 42.0524 26.7598 43.9854 26.7598C45.9183 26.7598 47.4854 28.5506 47.4854 30.7598Z" fill="#7495E7" stroke="#535665" stroke-width="2"/>
<path d="M69.4854 58.7598C69.4854 55.3279 68.8258 50.0629 67.5443 46.8923C66.2628 43.7217 64.3845 40.8407 62.0166 38.414C59.6487 35.9873 56.8376 34.0624 53.7438 32.749C50.65 31.4357 47.3341 30.7598 43.9853 30.7598C40.6366 30.7598 37.3207 31.4357 34.2269 32.749C31.1331 34.0624 28.322 35.9873 25.9541 38.414C23.5862 40.8407 21.7079 43.7217 20.4264 46.8923C19.1449 50.0629 18.4854 55.3279 18.4854 58.7598L43.9854 58.7598H69.4854Z" fill="#D9EAFD" stroke="#535665" stroke-width="2"/>
<path d="M59.5276 53.8762L75.8433 53.8762C75.9429 53.8762 76.0419 53.8911 76.137 53.9203L84.6611 56.5391C85.0809 56.6681 85.3674 57.0559 85.3674 57.495L85.3674 69.01L64.7448 68.9422L50.6839 67.0674C48.7983 66.5287 48.7983 63.8566 50.6839 63.3179L63.5591 63.3179C63.7243 63.3179 63.8893 63.3042 64.0523 63.2771L72.0715 61.9405C73.022 61.7821 73.2206 60.5032 72.3629 60.064L69.4317 58.5632L63.8241 58.6037C61.5545 58.6201 59.5088 57.2385 58.6762 55.127C58.4394 54.5265 58.8821 53.8762 59.5276 53.8762Z" fill="#FFDCCC" stroke="#535665" stroke-width="2" stroke-linecap="round" stroke-linejoin="round"/>
</svg>
