<svg width="97" height="97" viewBox="0 0 97 97" fill="none" xmlns="http://www.w3.org/2000/svg">
<path d="M34.4854 18.7598C34.4854 16.8268 36.0524 15.2598 37.9854 15.2598H40.9854C42.9183 15.2598 44.4854 16.8268 44.4854 18.7598V22.2598H34.4854V18.7598Z" fill="#EBD8FD" stroke="#535665" stroke-width="2"/>
<path d="M52.4854 18.7598C52.4854 16.8268 54.0524 15.2598 55.9854 15.2598H58.9854C60.9183 15.2598 62.4854 16.8268 62.4854 18.7598V22.2598H52.4854V18.7598Z" fill="#EBD8FD" stroke="#535665" stroke-width="2"/>
<path d="M29.9854 24.7598C29.9854 22.8268 31.5524 21.2598 33.4854 21.2598H63.4853C65.4183 21.2598 66.9854 22.8268 66.9854 24.7598V47.7598H29.9854V24.7598Z" fill="#EBD8FD" stroke="#535665" stroke-width="2"/>
<path d="M14.9854 44.2598C14.9854 42.3268 16.5524 40.7598 18.4854 40.7598H21.4854C23.4183 40.7598 24.9854 42.3268 24.9854 44.2598V47.7598H14.9854V44.2598Z" fill="#22BF7D" stroke="#535665" stroke-width="2"/>
<path d="M71.9854 44.2598C71.9854 42.3268 73.5524 40.7598 75.4854 40.7598H78.4854C80.4183 40.7598 81.9854 42.3268 81.9854 44.2598V47.7598H71.9854V44.2598Z" fill="#FF7535" stroke="#535665" stroke-width="2"/>
<path d="M11.9854 50.2598C11.9854 48.4563 13.7232 46.7598 16.1777 46.7598H50.793C53.2475 46.7598 54.9854 48.4563 54.9854 50.2598V62.2598C54.9854 64.0632 53.2475 65.7598 50.793 65.7598H16.1777C13.7232 65.7598 11.9854 64.0632 11.9854 62.2598V50.2598Z" fill="#22BF7D" stroke="#535665" stroke-width="2"/>
<path d="M47.9854 50.2598C47.9854 48.3268 49.5524 46.7598 51.4854 46.7598H81.4854C83.4183 46.7598 84.9854 48.3268 84.9854 50.2598V68.2598C84.9854 70.1928 83.4184 71.7598 81.4854 71.7598H51.4854C49.5524 71.7598 47.9854 70.1928 47.9854 68.2598V50.2598Z" fill="#FF7535" stroke="#535665" stroke-width="2" stroke-linecap="round"/>
</svg>
