<svg width="97" height="97" viewBox="0 0 97 97" fill="none" xmlns="http://www.w3.org/2000/svg">
<path d="M29.4854 19.7598H26.4854C24.2762 19.7598 22.4854 21.5506 22.4854 23.7598V25.7807C22.4854 34.0625 25.9089 41.9759 31.9451 47.6462L38.9854 54.2598M38.9854 54.2598L46.0256 47.6462C52.0618 41.9759 55.4854 34.0625 55.4854 25.7807V23.7598C55.4854 21.5506 53.6945 19.7598 51.4854 19.7598H48.4854M38.9854 54.2598V74.5098C38.9854 79.0661 42.679 82.7598 47.2354 82.7598V82.7598C51.7917 82.7598 55.4854 79.0661 55.4854 74.5098V50.2598C55.4854 46.9461 58.1716 44.2598 61.4854 44.2598V44.2598C64.7991 44.2598 67.4854 46.9461 67.4854 50.2598V56.2598" stroke="#717484" stroke-width="2"/>
<circle cx="67.4854" cy="62.7598" r="7" fill="#79E2E2" stroke="#717484" stroke-width="2"/>
<circle cx="67.4854" cy="62.7598" r="3" fill="#DDF8F8" stroke="#717484" stroke-width="2"/>
<circle cx="31.4854" cy="19.7598" r="3" fill="#FFDCCC" stroke="#717484" stroke-width="2"/>
<circle cx="46.4854" cy="19.7598" r="3" fill="#FFDCCC" stroke="#717484" stroke-width="2"/>
</svg>
