<svg width="97" height="97" viewBox="0 0 97 97" fill="none" xmlns="http://www.w3.org/2000/svg">
<path d="M25.4854 37.7598C25.4854 27.2664 33.9919 18.7598 44.4854 18.7598H52.4853C62.9788 18.7598 71.4854 27.2664 71.4854 37.7598V74.7598H25.4854V37.7598Z" stroke="#535665" stroke-width="2"/>
<rect x="21.4854" y="73.7598" width="54" height="4" fill="#FF9666" stroke="#535665" stroke-width="2"/>
<circle cx="24.9854" cy="80.2598" r="2.5" fill="#4963D4" stroke="#535665" stroke-width="2"/>
<circle cx="71.9854" cy="80.2598" r="2.5" fill="#4963D4" stroke="#535665" stroke-width="2"/>
<rect x="47.4854" y="16.7598" width="2" height="10" fill="#535665"/>
<rect x="28.4854" y="27.7598" width="2" height="40" transform="rotate(-90 28.4854 27.7598)" fill="#535665"/>
<ellipse cx="48.4854" cy="16.2598" rx="2" ry="1.5" fill="#FF9666" stroke="#535665" stroke-width="2"/>
<rect x="35.4854" y="23.7598" width="2" height="7" rx="1" fill="#535665"/>
<rect x="32.4854" y="28.7598" width="8" height="24" rx="1" fill="#4963D4"/>
<path d="M27.8161 61.0059C27.8161 59.9013 28.7115 59.0059 29.8161 59.0059H47.4161C48.5207 59.0059 49.4161 59.9013 49.4161 61.0059V71.4059C49.4161 72.5104 48.5207 73.4059 47.4161 73.4059H29.8161C28.7115 73.4059 27.8161 72.5104 27.8161 71.4059V61.0059Z" fill="#4ED0CB" stroke="#535665" stroke-width="2" stroke-linejoin="round"/>
<path d="M33.6623 59.0061V59.0061C33.6623 57.3238 35.0261 55.96 36.7084 55.96H40.4623C42.1446 55.96 43.5084 57.3238 43.5084 59.0061V59.0061" stroke="#535665" stroke-width="2"/>
<path d="M28.8072 64.7111L28.2067 61.3585C27.9871 60.1323 28.9297 59.0059 30.1754 59.0059H46.9953C48.241 59.0059 49.1836 60.1323 48.964 61.3585L48.3635 64.7111C48.022 66.6178 46.3633 68.0059 44.4262 68.0059H32.7445C30.8074 68.0059 29.1487 66.6178 28.8072 64.7111Z" fill="#DDF8F8" stroke="#535665" stroke-width="2"/>
<path d="M67.4854 45.7598C68.5899 45.7598 69.4854 46.6552 69.4854 47.7598L69.4854 68.7598C69.4854 69.8643 68.5899 70.7598 67.4854 70.7598L55.4854 70.7598C54.3808 70.7598 53.4854 69.8643 53.4854 68.7598L53.4854 47.7598C53.4854 46.6552 54.3808 45.7598 55.4854 45.7598L67.4854 45.7598Z" fill="#DDF8F8" stroke="#535665" stroke-width="2" stroke-linejoin="round"/>
<rect x="54.4854" y="70.7598" width="3" height="3" rx="1.5" fill="#4ED0CB" stroke="#535665" stroke-width="2" stroke-linejoin="round"/>
<rect x="64.4854" y="70.7598" width="3" height="3" rx="1.5" fill="#4ED0CB" stroke="#535665" stroke-width="2" stroke-linejoin="round"/>
<rect x="59.4854" y="46.7598" width="3" height="23" fill="#4ED0CB"/>
<path d="M57.4854 44.7598V43.7598C57.4854 42.6552 58.3808 41.7598 59.4854 41.7598H62.4854C63.5899 41.7598 64.4854 42.6552 64.4854 43.7598V44.7598" stroke="#535665" stroke-width="2"/>
</svg>
