<svg width="97" height="97" viewBox="0 0 97 97" fill="none" xmlns="http://www.w3.org/2000/svg">
<path d="M36.4854 47.7598C43.1128 47.7598 48.4854 42.2035 48.4854 35.3495V27.17C48.4854 20.316 43.1128 14.7598 36.4854 14.7598C29.8579 14.7598 24.4854 20.316 24.4854 27.17V35.3495C24.4854 42.2035 29.8579 47.7598 36.4854 47.7598Z" fill="#D9EAFD" stroke="#535665" stroke-width="2"/>
<path d="M36.952 14.7598C27.152 14.7598 22.4854 20.4354 22.4854 29.1026V49.7598H27.152V29.1026C34.6911 29.1026 38.7295 28.7216 41.9452 24.0872C42.4212 23.4013 43.5043 23.4523 43.8352 24.2188L46.2854 29.8949L45.8187 49.7598H50.4854V29.1026C50.4854 21.3814 46.2854 14.7598 36.952 14.7598Z" fill="#FF9666"/>
<path d="M22.4854 49.7598H21.4854V50.7598H22.4854V49.7598ZM50.4854 49.7598V50.7598H51.4854V49.7598H50.4854ZM45.8187 49.7598L44.819 49.7363L44.7949 50.7598H45.8187V49.7598ZM27.152 29.1026V28.1026H26.152V29.1026H27.152ZM27.152 49.7598V50.7598H28.152V49.7598H27.152ZM41.9452 24.0872L41.1236 23.5171V23.5171L41.9452 24.0872ZM46.2854 29.8949L47.2851 29.9184C47.2885 29.7742 47.2606 29.631 47.2035 29.4986L46.2854 29.8949ZM43.8352 24.2188L44.7533 23.8225V23.8225L43.8352 24.2188ZM23.4854 29.1026C23.4854 24.9403 24.6045 21.6341 26.7666 19.3719C28.921 17.1179 32.2456 15.7598 36.952 15.7598V13.7598C31.8584 13.7598 27.9497 15.2395 25.3208 17.9901C22.6995 20.7325 21.4854 24.5977 21.4854 29.1026H23.4854ZM36.952 15.7598C41.3613 15.7598 44.4511 17.3123 46.4552 19.6815C48.4806 22.076 49.4854 25.4109 49.4854 29.1026H51.4854C51.4854 25.073 50.3901 21.2366 47.9822 18.3899C45.5529 15.518 41.876 13.7598 36.952 13.7598V15.7598ZM23.4854 49.7598V29.1026H21.4854V49.7598H23.4854ZM49.4854 29.1026V49.7598H51.4854V29.1026H49.4854ZM50.4854 48.7598H45.8187V50.7598H50.4854V48.7598ZM26.152 29.1026V49.7598H28.152V29.1026H26.152ZM27.152 48.7598H22.4854V50.7598H27.152V48.7598ZM41.1236 23.5171C39.6428 25.6512 38.0193 26.7626 35.8944 27.3715C33.696 28.0014 30.9401 28.1026 27.152 28.1026V30.1026C30.903 30.1026 33.9358 30.0132 36.4453 29.2941C39.0283 28.5539 41.0319 27.1576 42.7668 24.6573L41.1236 23.5171ZM46.8184 49.7833L47.2851 29.9184L45.2856 29.8714L44.819 49.7363L46.8184 49.7833ZM47.2035 29.4986L44.7533 23.8225L42.9171 24.6152L45.3672 30.2912L47.2035 29.4986ZM42.7668 24.6573C42.7792 24.6394 42.7936 24.6279 42.8119 24.6194C42.8328 24.6099 42.8585 24.6049 42.8833 24.6065C42.9079 24.608 42.9192 24.6149 42.9193 24.615C42.9193 24.615 42.9192 24.6149 42.9189 24.6147C42.9187 24.6145 42.9184 24.6143 42.918 24.6139C42.9172 24.6132 42.9163 24.6123 42.9156 24.6115C42.9137 24.6092 42.9146 24.6094 42.9171 24.6152L44.7533 23.8225C44.0704 22.2404 41.9864 22.2736 41.1236 23.5171L42.7668 24.6573Z" fill="#535665"/>
<path d="M62.9854 82.7598C69.3366 82.7598 74.4854 77.2035 74.4854 70.3495V62.17C74.4854 55.316 69.3366 49.7598 62.9854 49.7598C56.6341 49.7598 51.4854 55.316 51.4854 62.17V70.3495C51.4854 77.2035 56.6341 82.7598 62.9854 82.7598Z" fill="#D9EAFD" stroke="#535665" stroke-width="2"/>
<path d="M33.6285 33.457C33.3151 33.1436 32.9431 32.895 32.5337 32.7255C32.1242 32.5559 31.6854 32.4686 31.2422 32.4686C30.7991 32.4686 30.3602 32.5559 29.9508 32.7255C29.5414 32.895 29.1693 33.1436 28.856 33.457" stroke="#535665" stroke-width="2"/>
<path d="M44.3833 33.457C44.0699 33.1436 43.6979 32.895 43.2884 32.7255C42.879 32.5559 42.4402 32.4686 41.997 32.4686C41.5538 32.4686 41.115 32.5559 40.7056 32.7255C40.2961 32.895 39.9241 33.1436 39.6107 33.457" stroke="#535665" stroke-width="2"/>
<path d="M33.8478 40.5321C34.0966 41.1514 34.5235 41.6831 35.0744 42.0598C35.6254 42.4365 36.2757 42.6414 36.9431 42.6486C37.6106 42.6557 38.2651 42.4648 38.824 42.0999C39.3829 41.735 39.821 41.2126 40.083 40.5988" stroke="#535665" stroke-width="2"/>
<rect x="47.4854" y="63.7598" width="4" height="8" rx="2" fill="#D9EAFD" stroke="#535665" stroke-width="2"/>
<rect x="74.4854" y="63.7598" width="4" height="8" rx="2" fill="#D9EAFD" stroke="#535665" stroke-width="2"/>
<path d="M39.4854 60.7598C39.4854 58.5506 37.6945 56.7598 35.4854 56.7598H18.4854C16.2762 56.7598 14.4854 58.5506 14.4854 60.7598V67.7598C14.4854 69.9689 16.2762 71.7598 18.4854 71.7598H39.4854V60.7598Z" fill="#8F50CE"/>
<path d="M56.4854 24.7598C56.4854 22.5506 58.2762 20.7598 60.4854 20.7598H76.4854C78.6945 20.7598 80.4854 22.5506 80.4854 24.7598V31.7598C80.4854 33.9689 78.6945 35.7598 76.4854 35.7598H56.4854V24.7598Z" fill="#FF999E"/>
</svg>
