<svg width="97" height="97" viewBox="0 0 97 97" fill="none" xmlns="http://www.w3.org/2000/svg">
<rect x="62.4854" y="29.7598" width="21" height="39" rx="1" fill="#D3D4D9" stroke="#535665" stroke-width="2"/>
<rect x="13.4854" y="29.7598" width="42" height="31" rx="1" fill="#FF9666" stroke="#535665" stroke-width="2"/>
<rect x="30.4854" y="60.7598" width="8" height="8" rx="1" fill="#FF9666" stroke="#535665" stroke-width="2"/>
<rect x="13.4854" y="34.7598" width="42" height="21" fill="white" stroke="#535665" stroke-width="2"/>
<path d="M48.4854 60.7598V63.7598C48.4854 64.8643 49.3808 65.7598 50.4854 65.7598H62.4854" stroke="#535665" stroke-width="2"/>
<rect x="62.4854" y="33.7598" width="21" height="2" fill="#535665"/>
<rect x="62.4854" y="33.7598" width="21" height="2" fill="#535665"/>
<rect x="65.4854" y="45.7598" width="14" height="2" fill="white"/>
<rect x="65.4854" y="49.7598" width="14" height="2" fill="white"/>
<rect x="26.4854" y="67.7598" width="16" height="2" fill="#535665"/>
<rect x="62.4854" y="54.7598" width="21" height="2" fill="#535665"/>
<circle cx="72.9854" cy="62.2598" r="3.5" fill="#29327A"/>
<rect x="65.4854" y="38.7598" width="14" height="5" fill="#29327A"/>
</svg>
