<svg width="97" height="97" viewBox="0 0 97 97" fill="none" xmlns="http://www.w3.org/2000/svg">
<path d="M46.49 55.4581C46.3728 55.4585 46.2558 55.459 46.1389 55.4595C45.2297 55.4631 44.3297 55.4667 43.4231 55.4559C39.6887 55.4111 36.8135 54.2503 34.3939 52.1247L34.3935 52.1244C32.692 50.6312 31.4729 49.3779 30.6435 47.5606C29.8797 45.8868 29.4109 43.6523 29.336 40.1923C30.1519 40.1952 31.0258 40.1902 31.6712 40.1865C31.9985 40.1846 32.2671 40.1831 32.4396 40.1831C34.5447 40.1831 36.1021 40.466 37.4438 41.0079C38.7891 41.5513 39.9812 42.3803 41.3295 43.5648L41.3297 43.565C44.3409 46.209 46.2022 50.154 46.49 55.4581Z" fill="#FFDCCC" stroke="#535665" stroke-width="2"/>
<path d="M65.3955 40.1865C66.0409 40.1902 66.9148 40.1952 67.7307 40.1923C67.6558 43.6523 67.187 45.8868 66.4232 47.5606C65.5938 49.3779 64.3747 50.6312 62.6732 52.1244L62.6728 52.1247C60.2532 54.2503 57.378 55.4111 53.6436 55.4559C52.737 55.4667 51.837 55.4631 50.9278 55.4595C50.8109 55.459 50.6939 55.4585 50.5767 55.4581C50.8645 50.154 52.7258 46.209 55.737 43.565L55.7372 43.5648C57.0855 42.3803 58.2776 41.5513 59.6229 41.0079C60.9646 40.466 62.522 40.1831 64.6271 40.1831C64.7996 40.1831 65.0682 40.1846 65.3955 40.1865Z" fill="#FFDCCC" stroke="#535665" stroke-width="2"/>
<path d="M46.4935 76.5505C46.272 76.5513 46.051 76.5522 45.8304 76.553C44.7154 76.5575 43.6097 76.5619 42.4973 76.5486C37.8701 76.4933 34.2956 75.0558 31.2899 72.4217L31.2895 72.4214C29.1992 70.5913 27.6762 69.0342 26.64 66.7692C25.6704 64.6495 25.0902 61.8243 25.0139 57.4502C26.0737 57.4557 27.247 57.449 28.0989 57.4441C28.5014 57.4418 28.8321 57.4399 29.0453 57.4399C31.6452 57.4399 33.5833 57.7886 35.2605 58.4644C36.9412 59.1416 38.4232 60.1724 40.0849 61.6287L40.085 61.6288C43.872 64.9461 46.1809 69.9046 46.4935 76.5505Z" fill="#FFDCCC" stroke="#535665" stroke-width="2"/>
<path d="M50.4772 76.553C50.7898 69.9061 53.0987 64.947 56.8857 61.6293L56.8859 61.6292C58.5476 60.1727 60.0296 59.1418 61.7103 58.4645C63.3874 57.7886 65.3255 57.4399 67.9254 57.4399C68.1386 57.4399 68.4693 57.4418 68.8718 57.4441C69.7237 57.449 70.897 57.4557 71.9568 57.4502C71.8806 61.8249 71.3003 64.6505 70.3307 66.7705C69.2945 69.0358 67.7715 70.5931 65.6811 72.4234L65.6807 72.4237C62.6751 75.0581 59.1006 76.4957 54.4734 76.5511C53.361 76.5644 52.2553 76.56 51.1403 76.5555C50.9197 76.5546 50.6987 76.5537 50.4772 76.553Z" fill="#FFDCCC" stroke="#535665" stroke-width="2"/>
<path d="M38.9187 30.903L38.3186 30.4905L38.527 29.7928C39.5288 26.4391 43.296 23.7603 48.2716 23.7603C53.2473 23.7603 57.0144 26.4391 58.0162 29.7928L58.2247 30.4905L57.6246 30.903L48.8381 36.9437L48.2716 37.3332L47.7051 36.9437L38.9187 30.903Z" fill="#FF7535" stroke="#535665" stroke-width="2"/>
</svg>
