<svg width="97" height="97" viewBox="0 0 97 97" fill="none" xmlns="http://www.w3.org/2000/svg">
<path d="M55.3663 60.439L62.6535 57.7598L69.7024 76.5185L62.6547 79.0836L55.3663 60.439Z" fill="#FF7535"/>
<path fill-rule="evenodd" clip-rule="evenodd" d="M36.4357 76.3019L38.011 75.741C38.011 75.741 33.2726 62.4353 32.4849 62.7158C31.6973 62.9963 36.4357 76.3019 36.4357 76.3019ZM33.8467 78.9992L41.7229 76.1943L41.1619 74.6191L33.2858 77.424L33.8467 78.9992Z" fill="#FF7535"/>
<path fill-rule="evenodd" clip-rule="evenodd" d="M49.3878 55.6105L41.6466 52.4521L41.015 54.0004L44.1117 55.2638C44.0968 55.3004 39.0293 67.7239 39.8023 68.0393C40.5753 68.3547 45.645 55.9321 45.6599 55.8955L48.7561 57.1587L49.3878 55.6105Z" fill="#4ED0CB"/>
<path fill-rule="evenodd" clip-rule="evenodd" d="M25.7057 59.8065L27.8907 62.3387L26.6248 63.4311L21.1627 57.1013L22.4287 56.0089L24.6133 58.5406C24.6691 58.4924 35.5827 49.0777 36.1275 49.7091C36.6723 50.3405 25.7615 59.7584 25.7057 59.8065Z" fill="#3645AB"/>
<path d="M46.2354 33.7598L61.9854 78.7598L69.4854 76.5098L53.7354 31.5098" stroke="#535665" stroke-width="2"/>
<path d="M33.9379 27.7743L29.7405 28.8984L32.9506 37.7182L36.4597 36.441C36.4597 36.441 37.5843 34.0716 40.2161 33.1137C42.8479 32.1558 44.0401 32.7018 45.2323 33.2478L46.4921 36.7092L55.2648 33.5162L53.0601 27.4588C60.0784 24.9049 67.1304 30.1779 67.5466 29.046C67.9628 27.914 58.8186 21.4436 52.61 20.763C47.6262 20.2167 43.5225 23.091 42.0828 24.5945C41.1721 25.5455 40.3039 28.1541 38.4889 28.6263C36.3208 29.1905 33.9379 27.7743 33.9379 27.7743Z" fill="#4ED0CB"/>
</svg>
