<svg width="97" height="97" viewBox="0 0 97 97" fill="none" xmlns="http://www.w3.org/2000/svg">
<path d="M46.4895 54.9181C46.3723 54.9185 46.2553 54.919 46.1385 54.9194C45.2292 54.9231 44.3292 54.9267 43.4226 54.9158C39.6882 54.871 36.8131 53.7103 34.3934 51.5847L34.3931 51.5844C32.6915 50.0911 31.4724 48.8379 30.6431 47.0205C29.8792 45.3468 29.4105 43.1123 29.3355 39.6523C30.1514 39.6552 31.0253 39.6502 31.6708 39.6465C31.9981 39.6446 32.2667 39.6431 32.4392 39.6431C34.5443 39.6431 36.1017 39.926 37.4434 40.4679C38.7887 41.0112 39.9807 41.8403 41.3291 43.0248L41.3293 43.0249C44.3405 45.669 46.2017 49.6139 46.4895 54.9181Z" fill="#FFD6D8" stroke="#535665" stroke-width="2"/>
<path d="M65.395 39.6465C66.0405 39.6502 66.9144 39.6552 67.7303 39.6523C67.6553 43.1123 67.1865 45.3468 66.4227 47.0205C65.5934 48.8379 64.3743 50.0911 62.6727 51.5844L62.6723 51.5847C60.2527 53.7103 57.3776 54.871 53.6432 54.9158C52.7366 54.9267 51.8365 54.9231 50.9273 54.9194C50.8104 54.919 50.6934 54.9185 50.5762 54.9181C50.864 49.6139 52.7253 45.669 55.7365 43.0249L55.7367 43.0248C57.0851 41.8403 58.2771 41.0112 59.6224 40.4679C60.9641 39.926 62.5215 39.6431 64.6266 39.6431C64.7991 39.6431 65.0677 39.6446 65.395 39.6465Z" fill="#FFD6D8" stroke="#535665" stroke-width="2"/>
<path d="M47.9796 37.6202C48.1683 37.7785 48.339 37.9176 48.4864 38.0356C48.6361 37.9157 48.8098 37.7739 49.002 37.6123C49.6764 37.0456 50.572 36.2419 51.4633 35.291C52.3576 34.337 53.2272 33.2562 53.867 32.1369C54.5107 31.0107 54.884 29.9113 54.8783 28.9006C54.8726 27.8904 54.4914 26.8177 53.8453 25.7354C53.2023 24.6582 52.3324 23.6312 51.4383 22.7307C50.5473 21.8332 49.6533 21.0825 48.9805 20.5554C48.7801 20.3984 48.6001 20.2619 48.4465 20.1477C48.2938 20.2641 48.115 20.4035 47.9159 20.5636C47.2487 21.1005 46.3628 21.8649 45.4814 22.7782C44.597 23.6945 43.7379 24.7394 43.1063 25.8348C42.4719 26.9349 42.1005 28.0275 42.1063 29.0585C42.1118 30.037 42.4889 31.1113 43.1349 32.2187C43.7763 33.3184 44.6435 34.3835 45.5335 35.3253C46.4205 36.2639 47.3102 37.059 47.9796 37.6202Z" fill="#E9353E" stroke="#535665" stroke-width="2"/>
<path d="M46.4931 76.01C46.2716 76.0108 46.0506 76.0116 45.8299 76.0125C44.715 76.017 43.6092 76.0214 42.4968 76.0081C37.8696 75.9527 34.2951 74.5153 31.2895 71.8812L31.2891 71.8808C29.1987 70.0508 27.6757 68.4937 26.6396 66.2287C25.6699 64.109 25.0897 61.2838 25.0135 56.9097C26.0733 56.9152 27.2465 56.9085 28.0984 56.9036C28.5009 56.9013 28.8317 56.8994 29.0449 56.8994C31.6447 56.8994 33.5829 57.2481 35.26 57.9238C36.9407 58.601 38.4227 59.6319 40.0844 61.0882L40.0846 61.0883C43.8716 64.4056 46.1804 69.364 46.4931 76.01Z" fill="#FFD6D8" stroke="#535665" stroke-width="2"/>
<path d="M50.4767 76.0125C50.7893 69.3656 53.0982 64.4065 56.8852 61.0888L56.8854 61.0886C58.5471 59.6322 60.0291 58.6012 61.7098 57.924C63.3869 57.2481 65.325 56.8994 67.9249 56.8994C68.1381 56.8994 68.4689 56.9013 68.8713 56.9036C69.7233 56.9085 70.8965 56.9152 71.9563 56.9097C71.8801 61.2844 71.2999 64.11 70.3302 66.23C69.294 68.4953 67.771 70.0525 65.6806 71.8828L65.6803 71.8832C62.6746 74.5176 59.1001 75.9552 54.4729 76.0106C53.3606 76.0239 52.2548 76.0194 51.1399 76.015C50.9192 76.0141 50.6982 76.0132 50.4767 76.0125Z" fill="#FFD6D8" stroke="#535665" stroke-width="2"/>
</svg>
