<svg width="97" height="97" viewBox="0 0 97 97" fill="none" xmlns="http://www.w3.org/2000/svg">
<g clip-path="url(#clip0_649_4893)">
<path d="M72.4854 81.7598C72.4854 78.8707 71.8387 76.0099 70.5823 73.3407C69.326 70.6716 67.4845 68.2463 65.163 66.2034C62.8416 64.1605 60.0856 62.54 57.0524 61.4344C54.0193 60.3288 50.7684 59.7598 47.4853 59.7598C44.2023 59.7598 40.9514 60.3288 37.9183 61.4344C34.8851 62.54 32.1291 64.1605 29.8077 66.2034C27.4862 68.2463 25.6447 70.6716 24.3884 73.3407C23.132 76.0099 22.4854 78.8707 22.4854 81.7598L47.4854 81.7598H72.4854Z" fill="#D9EAFD" stroke="#535665" stroke-width="2"/>
<path d="M47.4854 55.7598C56.3219 55.7598 63.4854 48.7188 63.4854 40.0333V31.4863C63.4854 22.8008 56.3219 15.7598 47.4854 15.7598C38.6488 15.7598 31.4854 22.8008 31.4854 31.4863V40.0333C31.4854 48.7188 38.6488 55.7598 47.4854 55.7598Z" fill="#D9EAFD" stroke="#535665" stroke-width="2"/>
<path d="M53.3035 33.7598H31.4854C31.4854 23.3752 36.1399 15.7598 47.4854 15.7598C58.8308 15.7598 63.4854 24.0675 63.4854 33.7598H57.6672L56.2126 27.9805L53.3035 33.7598Z" fill="#FF7535"/>
<path d="M31.4854 33.7598H30.4854V34.7598H31.4854V33.7598ZM53.3035 33.7598V34.7598H53.9197L54.1968 34.2094L53.3035 33.7598ZM56.2126 27.9805L57.1824 27.7364C57.0804 27.3314 56.7375 27.0323 56.3223 26.9865C55.9071 26.9407 55.5072 27.1578 55.3194 27.5309L56.2126 27.9805ZM57.6672 33.7598L56.6974 34.0038L56.8877 34.7598H57.6672V33.7598ZM63.4854 33.7598V34.7598H64.4854V33.7598H63.4854ZM31.4854 34.7598H53.3035V32.7598H31.4854V34.7598ZM54.1968 34.2094L57.1058 28.4301L55.3194 27.5309L52.4103 33.3101L54.1968 34.2094ZM55.2429 28.2246L56.6974 34.0038L58.6369 33.5157L57.1824 27.7364L55.2429 28.2246ZM57.6672 34.7598H63.4854V32.7598H57.6672V34.7598ZM32.4854 33.7598C32.4854 28.6968 33.6226 24.4531 36.0093 21.4932C38.3666 18.5697 42.0551 16.7598 47.4854 16.7598V14.7598C41.5701 14.7598 37.2587 16.7575 34.4523 20.2378C31.6754 23.6818 30.4854 28.4381 30.4854 33.7598H32.4854ZM47.4854 16.7598C52.8863 16.7598 56.5819 18.7221 58.9534 21.7427C61.3537 24.8 62.4854 29.0558 62.4854 33.7598H64.4854C64.4854 28.7714 63.2897 24.0272 60.5264 20.5076C57.7343 16.9513 53.4298 14.7598 47.4854 14.7598V16.7598Z" fill="#535665"/>
<path d="M43.685 38.8042C43.2834 38.4026 42.8066 38.0841 42.2819 37.8667C41.7572 37.6494 41.1949 37.5375 40.6269 37.5375C40.059 37.5375 39.4966 37.6494 38.9719 37.8667C38.4472 38.0841 37.9704 38.4026 37.5688 38.8042" stroke="#535665" stroke-width="2"/>
<path d="M57.4678 38.8042C57.0662 38.4026 56.5895 38.0841 56.0648 37.8667C55.5401 37.6494 54.9777 37.5375 54.4098 37.5375C53.8418 37.5375 53.2794 37.6494 52.7547 37.8667C52.23 38.0841 51.7533 38.4026 51.3517 38.8042" stroke="#535665" stroke-width="2"/>
<path d="M43.9662 47.8715C44.2851 48.6652 44.8322 49.3466 45.5383 49.8294C46.2444 50.3122 47.0777 50.5747 47.9331 50.5839C48.7884 50.593 49.6272 50.3483 50.3434 49.8807C51.0597 49.4132 51.6212 48.7437 51.957 47.957" stroke="#535665" stroke-width="2"/>
<path d="M57.0751 55.2471H63.2803L62.5594 68.0264C62.4996 69.0855 61.6234 69.9137 60.5626 69.9137H59.7928C58.732 69.9137 57.8558 69.0855 57.796 68.0264L57.0751 55.2471Z" fill="#FFDCCC" stroke="#535665" stroke-width="2"/>
<path d="M58.2033 69.9136H62.152L61.9545 70.76C61.7618 71.5858 61.0256 72.17 60.1777 72.17C59.3297 72.17 58.5935 71.5858 58.4008 70.76L58.2033 69.9136Z" fill="#FF7535" stroke="#535665" stroke-width="2"/>
<circle cx="60.1777" cy="49.8881" r="4.79487" fill="#FF7535" stroke="#535665" stroke-width="2"/>
<rect x="54.8187" y="51.8623" width="10.7179" height="3.38461" rx="1.69231" fill="#FFDCCC" stroke="#535665" stroke-width="2"/>
<rect x="59.3315" y="57.5034" width="1.69231" height="3.94872" rx="0.846154" fill="#FF7535"/>
<rect x="59.3315" y="62.5801" width="1.69231" height="1.69231" rx="0.846154" fill="#FF7535"/>
<path d="M60.1777 72.1699V73.2061C60.1777 74.6853 61.3768 75.8845 62.8561 75.8845V75.8845C64.4418 75.8845 65.6803 77.2545 65.5209 78.8321L65.1853 82.1538" stroke="#535665" stroke-width="2"/>
</g>
<defs>
<clipPath id="clip0_649_4893">
<rect width="96" height="96" fill="white" transform="translate(0.485352 0.759766)"/>
</clipPath>
</defs>
</svg>
