<svg width="97" height="97" viewBox="0 0 97 97" fill="none" xmlns="http://www.w3.org/2000/svg">
<path fill-rule="evenodd" clip-rule="evenodd" d="M21.8685 47.23C23.543 44.0248 27.2027 42.7598 30.8189 42.7598H36.4853C38.1422 42.7598 39.4854 44.1029 39.4854 45.7598V63.7598C39.4854 65.4166 38.1422 66.7598 36.4854 66.7598H30.8189C27.2027 66.7598 23.543 65.4947 21.8685 62.2895C20.8458 60.3322 19.9854 57.786 19.9854 54.7598C19.9854 51.7335 20.8458 49.1874 21.8685 47.23Z" fill="#7495E7" stroke="#535665" stroke-width="2"/>
<path fill-rule="evenodd" clip-rule="evenodd" d="M75.1022 47.23C73.4277 44.0248 69.768 42.7598 66.1518 42.7598H60.4854C58.8285 42.7598 57.4854 44.1029 57.4854 45.7598V63.7598C57.4854 65.4166 58.8285 66.7598 60.4854 66.7598H66.1518C69.768 66.7598 73.4277 65.4947 75.1022 62.2895C76.1249 60.3322 76.9854 57.786 76.9854 54.7598C76.9854 51.7335 76.1249 49.1874 75.1022 47.23Z" fill="#7495E7" stroke="#535665" stroke-width="2"/>
<path fill-rule="evenodd" clip-rule="evenodd" d="M36.4854 42.7598C38.9706 42.7598 40.9854 45.1103 40.9854 48.0098V61.5098C40.9854 64.4093 38.9706 66.7598 36.4854 66.7598C34.0001 66.7598 31.9854 64.4093 31.9854 61.5098V48.0098C31.9854 45.1103 34.0001 42.7598 36.4854 42.7598ZM58.9854 42.7598C61.4706 42.7598 63.4854 45.1103 63.4854 48.0098V61.5098C63.4854 64.4093 61.4706 66.7598 58.9854 66.7598C56.5001 66.7598 54.4854 64.4093 54.4854 61.5098V48.0098C54.4854 45.1103 56.5001 42.7598 58.9854 42.7598Z" fill="#D9EAFD"/>
<path d="M41.9854 48.0098C41.9854 44.7082 39.662 41.7598 36.4854 41.7598V43.7598C38.2793 43.7598 39.9854 45.5124 39.9854 48.0098H41.9854ZM41.9854 61.5098V48.0098H39.9854V61.5098H41.9854ZM36.4854 67.7598C39.662 67.7598 41.9854 64.8114 41.9854 61.5098H39.9854C39.9854 64.0071 38.2793 65.7598 36.4854 65.7598V67.7598ZM30.9854 61.5098C30.9854 64.8114 33.3087 67.7598 36.4854 67.7598V65.7598C34.6914 65.7598 32.9854 64.0071 32.9854 61.5098H30.9854ZM30.9854 48.0098V61.5098H32.9854V48.0098H30.9854ZM36.4854 41.7598C33.3087 41.7598 30.9854 44.7082 30.9854 48.0098H32.9854C32.9854 45.5124 34.6914 43.7598 36.4854 43.7598V41.7598ZM64.4854 48.0098C64.4854 44.7082 62.162 41.7598 58.9854 41.7598V43.7598C60.7793 43.7598 62.4854 45.5124 62.4854 48.0098H64.4854ZM64.4854 61.5098V48.0098H62.4854V61.5098H64.4854ZM58.9854 67.7598C62.162 67.7598 64.4854 64.8114 64.4854 61.5098H62.4854C62.4854 64.0071 60.7793 65.7598 58.9854 65.7598V67.7598ZM53.4854 61.5098C53.4854 64.8114 55.8087 67.7598 58.9854 67.7598V65.7598C57.1914 65.7598 55.4854 64.0071 55.4854 61.5098H53.4854ZM53.4854 48.0098V61.5098H55.4854V48.0098H53.4854ZM58.9854 41.7598C55.8087 41.7598 53.4854 44.7082 53.4854 48.0098H55.4854C55.4854 45.5124 57.1914 43.7598 58.9854 43.7598V41.7598Z" fill="#535665"/>
<path fill-rule="evenodd" clip-rule="evenodd" d="M19.2354 56.2598C21.3064 56.2598 22.9854 54.5808 22.9854 52.5098C22.9854 50.4387 21.3064 48.7598 19.2354 48.7598C17.1643 48.7598 15.4854 50.4387 15.4854 52.5098C15.4854 54.5808 17.1643 56.2598 19.2354 56.2598ZM77.7354 56.2598C79.8064 56.2598 81.4854 54.5808 81.4854 52.5098C81.4854 50.4387 79.8064 48.7598 77.7354 48.7598C75.6643 48.7598 73.9854 50.4387 73.9854 52.5098C73.9854 54.5808 75.6643 56.2598 77.7354 56.2598Z" fill="#535665"/>
<path d="M66.4854 66.0098V71.2598C66.4854 77.8872 61.1128 83.2598 54.4854 83.2598H49.9854" stroke="#535665" stroke-width="2"/>
<path d="M19.2354 59.2598V43.5098C19.2354 27.3554 32.331 14.2598 48.4854 14.2598V14.2598C64.6397 14.2598 77.7354 27.3554 77.7354 43.5098V59.2598" stroke="#535665" stroke-width="2"/>
<path d="M19.5806 38.8371C19.5485 38.894 19.5167 38.9505 19.4854 39.0066V36.8551C19.4854 22.535 32.3507 10.7598 48.4367 10.7598C64.5227 10.7598 77.388 22.535 77.388 36.8551C77.388 38.2516 77.3935 39.5125 77.4018 40.6443C76.1577 36.6939 73.8569 31.6105 70.0119 27.2189C65.3476 21.8915 58.414 17.593 48.4367 17.593C38.3409 17.593 30.5979 24.0167 25.4535 30.2439C22.8682 33.3732 20.9011 36.4974 19.5806 38.8371Z" fill="#FF7535" stroke="#535665" stroke-width="2"/>
<path fill-rule="evenodd" clip-rule="evenodd" d="M55.9854 83.2598C55.9854 80.7745 53.9706 78.7598 51.4854 78.7598H48.4854C46.0001 78.7598 43.9854 80.7745 43.9854 83.2598C43.9854 85.745 46.0001 87.7598 48.4854 87.7598H51.4854C53.9706 87.7598 55.9854 85.745 55.9854 83.2598Z" fill="#A3C2F5" stroke="#535665" stroke-width="2"/>
</svg>
