<svg width="97" height="97" viewBox="0 0 97 97" fill="none" xmlns="http://www.w3.org/2000/svg">
<path fill-rule="evenodd" clip-rule="evenodd" d="M53.3425 39.0884C53.3425 37.9838 54.2379 37.0884 55.3425 37.0884H68.6568C73.0751 37.0884 76.6568 40.6701 76.6568 45.0884V53.7969L81.0601 55.1179C81.906 55.3717 82.4854 56.1504 82.4854 57.0336V62.4027V68.1169C82.4854 68.186 82.4819 68.2542 82.475 68.3214C82.3726 69.3299 81.5209 70.1169 80.4854 70.1169L16.4854 70.117C15.3808 70.117 14.4854 69.2215 14.4854 68.1169V62.4027C14.4854 61.2981 15.3808 60.4027 16.4854 60.4027H53.3425V49.4907L53.3425 49.4865V39.0884Z" fill="#D9EAFD"/>
<path d="M76.6568 53.7969H75.6568V54.541L76.3694 54.7548L76.6568 53.7969ZM81.0601 55.1179L81.3474 54.1601L81.0601 55.1179ZM82.475 68.3214L81.4801 68.2204V68.2204L82.475 68.3214ZM80.4854 70.1169V69.1169V70.1169ZM16.4854 70.117V71.117H16.4854L16.4854 70.117ZM53.3425 60.4027V61.4027H54.3425V60.4027H53.3425ZM53.3425 49.4907L52.3425 49.4898V49.4907H53.3425ZM53.3425 49.4865L54.3425 49.4873V49.4865H53.3425ZM55.3425 36.0884C53.6856 36.0884 52.3425 37.4315 52.3425 39.0884H54.3425C54.3425 38.5361 54.7902 38.0884 55.3425 38.0884V36.0884ZM68.6568 36.0884H55.3425V38.0884H68.6568V36.0884ZM77.6568 45.0884C77.6568 40.1178 73.6273 36.0884 68.6568 36.0884V38.0884C72.5228 38.0884 75.6568 41.2224 75.6568 45.0884H77.6568ZM77.6568 53.7969V45.0884H75.6568V53.7969H77.6568ZM81.3474 54.1601L76.9441 52.8391L76.3694 54.7548L80.7727 56.0757L81.3474 54.1601ZM83.4854 57.0336C83.4854 55.7087 82.6163 54.5408 81.3474 54.1601L80.7727 56.0757C81.1957 56.2026 81.4854 56.592 81.4854 57.0336H83.4854ZM83.4854 62.4027V57.0336H81.4854V62.4027H83.4854ZM81.4854 62.4027V68.1169H83.4854V62.4027H81.4854ZM83.4699 68.4225C83.4801 68.3217 83.4854 68.2197 83.4854 68.1169H81.4854C81.4854 68.1522 81.4836 68.1867 81.4801 68.2204L83.4699 68.4225ZM80.4854 71.1169C82.0393 71.1169 83.3162 69.9363 83.4699 68.4225L81.4801 68.2204C81.429 68.7236 81.0025 69.1169 80.4854 69.1169V71.1169ZM80.4854 69.1169L16.4854 69.117L16.4854 71.117L80.4854 71.1169V69.1169ZM16.4854 69.117C15.9331 69.117 15.4854 68.6692 15.4854 68.1169H13.4854C13.4854 69.7738 14.8285 71.117 16.4854 71.117V69.117ZM15.4854 68.1169V62.4027H13.4854V68.1169H15.4854ZM15.4854 62.4027C15.4854 61.8504 15.9331 61.4027 16.4854 61.4027V59.4027C14.8285 59.4027 13.4854 60.7458 13.4854 62.4027H15.4854ZM16.4854 61.4027H53.3425V59.4027H16.4854V61.4027ZM52.3425 49.4907V60.4027H54.3425V49.4907H52.3425ZM52.3425 49.4856L52.3425 49.4898L54.3425 49.4916L54.3425 49.4873L52.3425 49.4856ZM52.3425 39.0884V49.4865H54.3425V39.0884H52.3425Z" fill="#535665"/>
<ellipse cx="24.4854" cy="69.2598" rx="5" ry="4.5" fill="#22BF7D" stroke="#535665" stroke-width="2"/>
<ellipse cx="37.4854" cy="69.2598" rx="5" ry="4.5" fill="#22BF7D" stroke="#535665" stroke-width="2"/>
<ellipse cx="73.4854" cy="69.2598" rx="5" ry="4.5" fill="#22BF7D" stroke="#535665" stroke-width="2"/>
<path d="M58.4854 41.7598H68.4854C70.1422 41.7598 71.4854 43.1029 71.4854 44.7598V50.7598H58.4854V41.7598Z" fill="#22BF7D" stroke="#535665" stroke-width="2"/>
<path d="M32.4854 39.7598H38.6729V42.5723H43.7354V39.7598H50.4854V57.7598H32.4854V39.7598Z" fill="#FF7535" stroke="#535665" stroke-width="2"/>
<path d="M24.4854 22.7598H30.3291V25.416H35.1104V22.7598H41.4854V39.7598H24.4854V22.7598Z" fill="#FF9666" stroke="#535665" stroke-width="2"/>
<path d="M15.4854 39.7598H21.3291V42.5723H26.1104V39.7598H32.4854V57.7598H15.4854V39.7598Z" fill="#FFDCCC" stroke="#535665" stroke-width="2"/>
</svg>
