<svg width="97" height="97" viewBox="0 0 97 97" fill="none" xmlns="http://www.w3.org/2000/svg">
<path d="M19.9854 54.4834C18.6046 52.092 19.424 49.034 21.8155 47.6533L26.1456 45.1533L36.1456 62.4738L31.8155 64.9738C29.424 66.3545 26.3661 65.5352 24.9854 63.1437L19.9854 54.4834Z" fill="white" stroke="#535665" stroke-width="2"/>
<path d="M67.8847 31.4476C69.1977 33.7218 68.8527 36.4981 67.2249 38.3772C66.5016 39.212 65.2408 38.8683 64.6885 37.9117L60.6885 30.9835C60.1363 30.0269 60.469 28.7632 61.5536 28.5543C63.9948 28.084 66.5717 29.1735 67.8847 31.4476Z" fill="#7495E7" stroke="#535665" stroke-width="2"/>
<path d="M34.5019 39.627C34.0835 38.9024 34.1604 37.994 34.6946 37.3501L50.3539 18.4728C51.2433 17.4007 52.9288 17.5434 53.6253 18.7498L72.7518 51.8778C73.4483 53.0842 72.7291 54.6152 71.3559 54.8494L47.1781 58.9721C46.3533 59.1127 45.5282 58.7251 45.1098 58.0006L34.5019 39.627Z" fill="white" stroke="#535665" stroke-width="2"/>
<rect x="21.6815" y="45.4214" width="14" height="24" rx="2" transform="rotate(-30 21.6815 45.4214)" fill="#F7646B" stroke="#535665" stroke-width="2"/>
<path d="M36.2796 64.7061L43.2078 60.7061L53.2078 78.0266C53.7601 78.9831 53.4323 80.2063 52.4757 80.7586L49.0116 82.7586C48.055 83.3109 46.8319 82.9831 46.2796 82.0266L36.2796 64.7061Z" fill="#7495E7" stroke="#535665" stroke-width="2"/>
<circle cx="36.7437" cy="57.5099" r="2" transform="rotate(-30 36.7437 57.5099)" fill="white"/>
</svg>
