<svg width="97" height="97" viewBox="0 0 97 97" fill="none" xmlns="http://www.w3.org/2000/svg">
<g clip-path="url(#clip0_649_4934)">
<mask id="mask0_649_4934" style="mask-type:alpha" maskUnits="userSpaceOnUse" x="23" y="30" width="56" height="37">
<path d="M23.4854 31.2792L30.6706 33.2643C37.9245 35.2684 45.6209 34.9786 52.7037 32.4348C57.6121 30.672 62.8416 29.9827 68.0391 30.4135L78.4854 31.2792V63.6948L68.0391 62.829C62.8416 62.3983 57.6121 63.0876 52.7037 64.8504C45.6209 67.3942 37.9245 67.6839 30.6706 65.6799L23.4854 63.6948V31.2792Z" fill="#C4C4C4"/>
</mask>
<g mask="url(#mask0_649_4934)">
<rect x="24.4854" y="30.2661" width="17" height="38.4935" fill="#0D5939"/>
<rect x="41.4854" y="29.2534" width="19" height="40.5195" fill="white"/>
<rect x="60.4854" y="30.2661" width="18" height="38.4935" fill="#CA161F"/>
<path d="M46.906 46.8776C46.4205 47.4279 46.6228 48.1859 46.7846 48.4961L47.3107 49.2245C47.2972 49.157 47.2621 48.9412 47.2297 48.6175C47.1893 48.2129 47.6344 47.8487 48.2413 47.6868C48.8483 47.525 49.8599 48.3343 50.1431 48.4961C50.4264 48.658 50.2645 49.0221 49.8599 48.9412C49.5362 48.8765 49.1855 48.9682 49.0506 49.0221C48.9967 49.1705 48.9211 49.5158 49.0506 49.71C49.2125 49.4268 49.4148 49.1435 49.779 49.2245C50.0703 49.2892 50.1431 49.8449 50.1431 50.1147C50.2241 50.0337 50.3859 49.7909 50.3859 49.4672C50.3859 49.0626 50.6287 49.1435 50.9929 49.1435C51.357 49.1435 51.438 49.3863 51.438 49.71C51.438 50.0337 51.1952 50.317 50.6287 50.317C50.0622 50.317 49.9813 50.7621 50.1431 50.9239C50.1836 50.6811 50.5882 50.5598 51.1952 50.5598C51.6807 50.5598 51.8561 50.8835 51.8831 51.0453C51.937 51.0453 52.053 50.9887 52.0854 50.7621C52.1258 50.4788 51.7212 50.236 51.7212 49.9933C51.7212 49.7505 52.1663 49.5886 52.3282 49.4672C52.6923 50.0742 53.8658 50.843 53.9872 50.7216C54.1086 50.6002 53.8658 50.4384 53.9872 50.317C54.1086 50.1956 54.2704 50.4181 54.3918 50.317C54.5375 50.1956 54.2704 50.1147 54.3918 49.9933C54.5132 49.8719 54.6751 50.0337 54.7965 49.8719C54.9178 49.71 54.6346 49.6696 54.7155 49.4672C54.7803 49.3054 54.9988 49.6291 55.1202 49.4672C55.2416 49.3054 54.8774 49.0221 53.8658 48.8603C52.8542 48.6984 52.6923 47.6868 53.016 47.3227C53.3398 46.9585 53.7849 47.3227 54.0681 47.9296C54.3514 48.5366 55.5248 48.3343 55.4843 47.8487C55.4439 47.3631 55.2416 45.0162 52.6114 44.0046C50.5073 43.1954 48.6055 44.5846 47.9176 45.3804C48.1065 45.5962 48.4598 46.0683 48.3627 46.2301C48.2413 46.4325 47.513 46.1897 46.906 46.8776Z" fill="#4E0408"/>
<path d="M45.9349 46.1492C46.1291 45.8902 46.3665 45.9604 46.4609 46.0278L46.2181 46.6752L46.7037 46.3111C46.6498 46.4729 46.4609 46.8533 46.1372 47.0799C45.7326 47.3631 46.0563 48.3747 46.5419 48.4961C47.0274 48.6175 47.5939 48.2533 48.2009 48.1319C48.8078 48.0105 49.5362 48.4961 49.7385 48.8603C49.9408 49.2244 49.9813 49.9123 49.6171 50.5193C49.2286 51.1667 48.2818 50.6002 47.7558 50.3979C47.2297 50.1956 46.906 50.5193 47.3107 50.0742C47.7153 49.6291 47.9581 50.1147 48.646 50.317C49.3338 50.5193 50.0217 49.4268 48.9697 48.8603C47.9176 48.2938 47.6748 48.9007 46.906 48.9412C46.1372 48.9817 45.5303 48.3342 45.4898 47.7678C45.4493 47.2013 45.6921 46.4729 45.9349 46.1492Z" fill="#22BF7D"/>
<ellipse cx="48.3665" cy="51.4642" rx="0.578267" ry="0.4337" transform="rotate(20 48.3665 51.4642)" fill="#0D5939"/>
<ellipse cx="49.4922" cy="52.0123" rx="0.8674" ry="0.626455" transform="rotate(20 49.4922 52.0123)" fill="#0D5939"/>
<ellipse cx="0.578267" cy="0.4337" rx="0.578267" ry="0.4337" transform="matrix(-0.939693 0.34202 0.34202 0.939693 54.2856 50.8428)" fill="#0D5939"/>
<ellipse cx="0.8674" cy="0.626455" rx="0.8674" ry="0.626455" transform="matrix(-0.939693 0.34202 0.34202 0.939693 53.3657 51.1108)" fill="#0D5939"/>
<rect x="50.2788" y="51.5713" width="1.69948" height="1.13298" fill="#0D5939"/>
</g>
<path d="M23.4854 31.2792L30.6706 33.2643C37.9245 35.2684 45.6209 34.9786 52.7037 32.4348V32.4348C57.6121 30.672 62.8416 29.9827 68.0391 30.4135L78.4854 31.2792V63.6948L68.0391 62.829C62.8416 62.3983 57.6121 63.0876 52.7037 64.8504V64.8504C45.6209 67.3942 37.9245 67.6839 30.6706 65.6799L23.4854 63.6948V31.2792Z" stroke="#40434F" stroke-width="2" stroke-linecap="round" stroke-linejoin="round"/>
<mask id="mask1_649_4934" style="mask-type:alpha" maskUnits="userSpaceOnUse" x="0" y="0" width="97" height="97">
<path d="M95.9854 48.7598C95.9854 74.9933 74.7189 96.2598 48.4854 96.2598C22.2518 96.2598 0.985352 74.9933 0.985352 48.7598C0.985352 22.5262 22.2518 1.25977 48.4854 1.25977C74.7189 1.25977 95.9854 22.5262 95.9854 48.7598Z" fill="white" stroke="#D3D4D9"/>
</mask>
<g mask="url(#mask1_649_4934)">
<path d="M19.4854 31.2598H23.4854V105.76H19.4854V31.2598Z" fill="#B2B4BD" stroke="#40434F" stroke-width="2" stroke-linecap="round" stroke-linejoin="round"/>
</g>
</g>
<defs>
<clipPath id="clip0_649_4934">
<rect width="96" height="96" fill="white" transform="translate(0.485352 0.759766)"/>
</clipPath>
</defs>
</svg>
