<svg width="97" height="97" viewBox="0 0 97 97" fill="none" xmlns="http://www.w3.org/2000/svg">
<path d="M53.9854 24.4694C53.9854 23.5252 54.7508 22.7598 55.695 22.7598H74.2757C75.2199 22.7598 75.9854 23.5252 75.9854 24.4694V43.0501C75.9854 43.9943 75.2199 44.7598 74.2757 44.7598H55.695C54.7508 44.7598 53.9854 43.9943 53.9854 43.0501V24.4694Z" fill="#22BF7D" stroke="#535665" stroke-width="2" stroke-linecap="round"/>
<path d="M34.4347 54.8603L44.3619 74.6172C44.6463 75.1833 44.4192 75.8638 43.8944 76.14C43.7441 76.2191 43.5789 76.2598 43.4123 76.2598H23.5579C22.9873 76.2598 22.4854 75.7798 22.4854 75.1384C22.4854 74.9561 22.5279 74.7773 22.6084 74.6172L21.7205 74.1711L22.6084 74.6172L32.5356 54.8603C32.8137 54.3068 33.4561 54.1109 33.9672 54.38L34.4297 53.5015L33.9672 54.38C34.1645 54.4838 34.3292 54.6504 34.4347 54.8603L35.3283 54.4114L34.4347 54.8603Z" fill="#8F50CE" stroke="#535665" stroke-width="2"/>
<path d="M45.9854 33.9613C45.9854 40.6633 40.3889 46.2598 33.6868 46.2598C26.5623 46.2598 20.9854 40.644 20.9854 33.9613C20.9854 26.8562 26.5818 21.2598 33.6868 21.2598C40.3696 21.2598 45.9854 26.8367 45.9854 33.9613Z" fill="#EBD8FD" stroke="#535665" stroke-width="2"/>
</svg>
