<svg width="97" height="97" viewBox="0 0 97 97" fill="none" xmlns="http://www.w3.org/2000/svg">
<path d="M42.3483 34.0549L33.6173 34.1258L23.4157 53.3307C23.2168 53.7051 23.2757 54.1643 23.5626 54.4765L43.8393 76.5393C45.1347 77.8139 47.2181 77.797 48.4927 76.5015C49.7644 75.209 49.7504 73.132 48.4636 71.8567L50.5496 73.9091C51.845 75.1836 53.9284 75.1667 55.203 73.8712C56.4769 72.5764 56.4606 70.4945 55.1671 69.2197L56.338 70.3717C57.6334 71.6463 59.7168 71.6294 60.9914 70.3339C62.266 69.0385 62.249 66.955 60.9536 65.6805L59.7808 64.5266C61.0762 65.8011 63.1596 65.7842 64.4342 64.4888C65.7088 63.1933 65.6918 61.1099 64.3964 59.8353L58.5323 54.0658L49.0931 37.8545L43.4144 34.3525C43.0941 34.155 42.7246 34.0518 42.3483 34.0549Z" fill="#FF9666" stroke="#535665" stroke-width="2"/>
<path d="M53.0817 34.0261L64.1783 34.0261L74.2517 53.1434C74.4621 53.5426 74.379 54.0333 74.0489 54.341L66.1076 61.7438L51.0949 46.685L43.8604 50.8195C41.7595 52.0202 39.143 51.8414 37.225 50.366L35.3831 48.9491C34.8625 48.5486 34.8627 47.7636 35.3835 47.3635L52.4724 34.2332C52.6471 34.0989 52.8613 34.0261 53.0817 34.0261Z" fill="#FFDCCC" stroke="#535665" stroke-width="2"/>
<rect x="61.298" y="31.4307" width="12.0793" height="28.8024" rx="2" transform="rotate(-28 61.298 31.4307)" fill="#FF999E" stroke="#535665" stroke-width="2"/>
<rect x="25.7972" y="25.8555" width="11.521" height="28.8024" rx="2" transform="rotate(28 25.7972 25.8555)" fill="#EBD8FD" stroke="#535665" stroke-width="2"/>
<rect x="30.9793" y="56.2207" width="5.57507" height="7.43343" rx="2.78754" transform="rotate(47.2032 30.9793 56.2207)" fill="#FFDCCC" stroke="#535665" stroke-width="2"/>
<rect x="35.4488" y="59.6802" width="5.57507" height="8.36261" rx="2.78754" transform="rotate(47.2032 35.4488 59.6802)" fill="#FFDCCC" stroke="#535665" stroke-width="2"/>
<rect x="38.5547" y="64.4023" width="5.57507" height="7.43343" rx="2.78754" transform="rotate(47.2032 38.5547 64.4023)" fill="#FFDCCC" stroke="#535665" stroke-width="2"/>
<rect x="41.6606" y="69.1245" width="5.57507" height="6.50425" rx="2.78754" transform="rotate(47.2032 41.6606 69.1245)" fill="#FFDCCC" stroke="#535665" stroke-width="2"/>
</svg>
