<svg width="97" height="97" viewBox="0 0 97 97" fill="none" xmlns="http://www.w3.org/2000/svg">
<path d="M47.8368 45.7901C48.0841 45.9974 48.3039 46.1758 48.4873 46.3216C48.6731 46.1738 48.8963 45.9924 49.1477 45.7811C49.909 45.1414 50.9205 44.2338 51.9275 43.1595C52.9375 42.082 53.9227 40.8582 54.6489 39.5876C55.3791 38.3101 55.8097 37.0512 55.8031 35.8841C55.7966 34.7174 55.3568 33.4885 54.6234 32.2599C53.893 31.0363 52.907 29.8729 51.8968 28.8555C50.8898 27.8412 49.8799 26.9932 49.1202 26.398C48.8602 26.1943 48.6305 26.021 48.4413 25.8815C48.2535 26.0237 48.0253 26.2005 47.7671 26.4083C47.0137 27.0145 46.0128 27.878 45.0166 28.9102C44.0175 29.9455 43.0437 31.1291 42.3263 32.3733C41.6062 33.6221 41.178 34.8734 41.1847 36.0632C41.191 37.1942 41.6262 38.4246 42.3588 39.6807C43.0869 40.9288 44.0692 42.1348 45.0744 43.1984C46.0765 44.2588 47.0811 45.1566 47.8368 45.7901Z" fill="#7495E7" stroke="#535665" stroke-width="2"/>
<path d="M48.5255 52.9841C48.5255 52.7942 48.6795 52.6401 48.8695 52.6401H49.1815C49.3715 52.6401 49.5255 52.7942 49.5255 52.9841V73.3361C49.5255 73.5261 49.3715 73.6801 49.1815 73.6801H48.8695C48.6795 73.6801 48.5255 73.5261 48.5255 73.3361V52.9841Z" stroke="#535665" stroke-width="2" stroke-linecap="round"/>
<path d="M43.614 73.6732C43.4036 73.6739 43.1937 73.6748 42.9841 73.6756C41.8921 73.6801 40.8095 73.6845 39.7202 73.6712C35.1979 73.616 31.7035 72.1823 28.7622 69.5506L28.7618 69.5503C26.7153 67.721 25.2233 66.1642 24.2078 63.8977C23.2569 61.7754 22.6882 58.947 22.6135 54.5704C23.6468 54.5758 24.787 54.5691 25.616 54.5643C26.01 54.5619 26.3337 54.5601 26.5422 54.5601C29.085 54.5601 30.9784 54.9081 32.6162 55.5819C34.2583 56.2574 35.7078 57.2863 37.3353 58.7425L37.3355 58.7427C41.0434 62.0588 43.3076 67.0199 43.614 73.6732Z" fill="#D9EAFD" stroke="#535665" stroke-width="2"/>
<path d="M71.3545 54.5643C72.1835 54.5691 73.3237 54.5758 74.357 54.5704C74.2824 58.947 73.7137 61.7754 72.7627 63.8977C71.7472 66.1642 70.2552 67.721 68.2087 69.5503L68.2084 69.5506C65.267 72.1823 61.7727 73.616 57.2504 73.6712C56.161 73.6845 55.0784 73.6801 53.9864 73.6756C53.7768 73.6748 53.5669 73.6739 53.3566 73.6732C53.6629 67.0199 55.9271 62.0588 59.6351 58.7427L59.6352 58.7425C61.2627 57.2863 62.7123 56.2574 64.3543 55.5819C65.9921 54.9081 67.8855 54.5601 70.4283 54.5601C70.6368 54.5601 70.9605 54.5619 71.3545 54.5643Z" fill="#D9EAFD" stroke="#535665" stroke-width="2"/>
</svg>
