<svg width="97" height="97" viewBox="0 0 97 97" fill="none" xmlns="http://www.w3.org/2000/svg">
<circle cx="0.88189" cy="0.88189" r="0.88189" transform="matrix(-1 0 0 1 33.4303 46.2163)" fill="#4ED0CB"/>
<circle cx="0.88189" cy="0.88189" r="0.88189" transform="matrix(-1 0 0 1 38.7215 21.8149)" fill="#4ED0CB"/>
<circle cx="1.32283" cy="1.32283" r="1.32283" transform="matrix(-1 0 0 1 35.1941 37.3975)" fill="#4ED0CB"/>
<circle cx="1.32283" cy="1.32283" r="1.32283" transform="matrix(-1 0 0 1 36.0759 14.7598)" fill="#4ED0CB"/>
<path d="M27.257 55.2402H39.6034L47.5369 69.8512C48.9841 72.5165 47.0545 75.7599 44.0217 75.7599H22.5254C19.4635 75.7599 17.5369 72.4601 19.0421 69.7937L27.257 55.2402Z" fill="#4ED0CB"/>
<rect width="14.1102" height="2.64567" rx="1" transform="matrix(-1 0 0 1 40.4853 26.2241)" stroke="#535665" stroke-width="2"/>
<path d="M36.9578 28.8701H29.9027V49.3898L18.9004 70.9556C17.8821 72.9516 19.3319 75.3189 21.5727 75.3189H45.2877C47.5285 75.3189 48.9784 72.9516 47.9601 70.9556L36.9578 49.3898V28.8701Z" stroke="#535665" stroke-width="2"/>
<line x1="1" y1="-1" x2="2.52756" y2="-1" transform="matrix(-1 0 0 1 36.9578 34.1611)" stroke="#535665" stroke-width="2" stroke-linecap="round"/>
<line x1="1" y1="-1" x2="2.52756" y2="-1" transform="matrix(-1 0 0 1 36.9578 38.689)" stroke="#535665" stroke-width="2" stroke-linecap="round"/>
<line x1="1" y1="-1" x2="2.52756" y2="-1" transform="matrix(-1 0 0 1 36.9578 43.2163)" stroke="#535665" stroke-width="2" stroke-linecap="round"/>
<circle cx="1.76378" cy="1.76378" r="1.76378" transform="matrix(-1 0 0 1 36.0759 52.3896)" fill="#4ED0CB"/>
<circle cx="1.76378" cy="1.76378" r="1.76378" transform="matrix(-1 0 0 1 31.6665 18.2871)" fill="#4ED0CB"/>
<path d="M78.84 39.2234L75.1551 37.8257C75.0418 37.7828 74.9216 37.7607 74.8005 37.7607H59.5021C59.4045 37.7607 59.3074 37.775 59.214 37.8032L54.3922 39.254C53.9696 39.3812 53.6804 39.7703 53.6804 40.2116V74.3695C53.6804 74.9218 54.1281 75.3695 54.6804 75.3695H78.4854C79.0376 75.3695 79.4854 74.9218 79.4854 74.3695V40.1584C79.4854 39.743 79.2285 39.3708 78.84 39.2234Z" fill="#F3BC16"/>
<path d="M70.2919 34.7631V30.6245C70.2919 30.0722 69.8442 29.6245 69.2919 29.6245H63.8738C63.3215 29.6245 62.8738 30.0722 62.8738 30.6245V34.7631C62.8738 35.1593 62.6398 35.5182 62.2772 35.6781L54.2769 39.2054C53.9143 39.3653 53.6804 39.7241 53.6804 40.1204V74.3697C53.6804 74.922 54.1281 75.3697 54.6804 75.3697H78.4854C79.0376 75.3697 79.4854 74.922 79.4854 74.3697V40.1204C79.4854 39.7241 79.2514 39.3653 78.8888 39.2054L70.8885 35.6781C70.5259 35.5182 70.2919 35.1593 70.2919 34.7631Z" stroke="#535665" stroke-width="2"/>
<rect width="14.0755" height="5.86477" rx="1" transform="matrix(-1 0 0 1 73.6206 24.7598)" fill="#4ED0CB" stroke="#535665" stroke-width="2"/>
<line x1="1" y1="-1" x2="4.86477" y2="-1" transform="matrix(5.24537e-08 1 1 -3.64262e-08 71.2747 24.7598)" stroke="#535665" stroke-width="2" stroke-linecap="round"/>
<line x1="1" y1="-1" x2="4.86477" y2="-1" transform="matrix(5.24537e-08 1 1 -3.64262e-08 67.7558 24.7598)" stroke="#535665" stroke-width="2" stroke-linecap="round"/>
<line x1="1" y1="-1" x2="4.86477" y2="-1" transform="matrix(5.24537e-08 1 1 -3.64262e-08 64.2369 24.7598)" stroke="#535665" stroke-width="2" stroke-linecap="round"/>
<rect width="25.805" height="18.7673" transform="matrix(-1 0 0 1 79.4854 46.0459)" fill="white" stroke="#535665" stroke-width="2"/>
<path fill-rule="evenodd" clip-rule="evenodd" d="M64.3194 49.8579H68.553V53.3859L72.0811 53.3859L72.0811 57.6196H68.553V61.1476H64.3194V57.6196H60.7914V53.3859L64.3194 53.3859V49.8579Z" fill="#4ED0CB"/>
</svg>
