<svg width="97" height="97" viewBox="0 0 97 97" fill="none" xmlns="http://www.w3.org/2000/svg">
<path d="M69.4854 73.7598V20.2598H18.9854V73.2598C18.9854 75.4689 20.7762 77.2598 22.9854 77.2598H72.9854L69.4854 73.7598Z" fill="#D9EAFD"/>
<path d="M74.4854 77.2598H24.4854C21.1716 77.2598 18.4854 74.5735 18.4854 71.2598V20.7598C18.4854 20.2075 18.9331 19.7598 19.4854 19.7598H68.5094C69.0617 19.7598 69.5094 20.2075 69.5094 20.7598V72.4848" stroke="#535665" stroke-width="2"/>
<path d="M78.4854 31.7598V73.4555C78.4854 73.5838 78.4692 73.7115 78.4374 73.8357C77.283 78.335 70.8952 78.3159 69.552 73.8693C69.5082 73.7244 69.4854 73.5718 69.4854 73.4204V31.7598H78.4854Z" fill="#D9EAFD" stroke="#535665" stroke-width="2"/>
<rect x="22.4854" y="25.7598" width="29" height="6" rx="1" fill="#29327A"/>
<rect x="22.4854" y="34.7598" width="43" height="2" rx="1" fill="#29327A"/>
<rect x="44.4854" y="39.7598" width="21" height="2" rx="1" fill="#29327A"/>
<rect x="44.4854" y="44.7598" width="21" height="2" rx="1" fill="#29327A"/>
<rect x="44.4854" y="49.7598" width="21" height="2" rx="1" fill="#29327A"/>
<rect x="44.4854" y="54.7598" width="21" height="2" rx="1" fill="#29327A"/>
<rect x="44.4854" y="59.7598" width="21" height="2" rx="1" fill="#29327A"/>
<rect x="44.4854" y="64.7598" width="11" height="2" rx="1" fill="#29327A"/>
<rect x="22.4854" y="69.7598" width="33" height="2" rx="1" fill="#29327A"/>
<rect x="22.4854" y="39.7598" width="20" height="27" rx="2" fill="white"/>
<path d="M27.9854 52.2598L22.4854 55.7598V64.7598C22.4854 65.8643 23.3799 66.7598 24.4845 66.7598H40.4917C41.5963 66.7598 42.4854 65.8643 42.4854 64.7598V59.7598L38.9854 56.7598L33.9854 58.7598L27.9854 52.2598Z" fill="#4ED0CB"/>
<circle cx="36.4854" cy="47.7598" r="3" fill="#FF9666"/>
</svg>
