<svg width="97" height="97" viewBox="0 0 97 97" fill="none" xmlns="http://www.w3.org/2000/svg">
<path d="M34.9642 51.3738C34.7561 51.3555 34.5682 51.3367 34.4041 51.3188C34.386 51.1519 34.367 50.9602 34.3485 50.7477C34.2773 49.9266 34.2165 48.8027 34.2559 47.5846C34.2954 46.3622 34.4351 45.0745 34.7512 43.9147C35.0695 42.7473 35.5468 41.7825 36.2098 41.1269C36.8725 40.4717 37.8246 40.0172 38.9642 39.7296C40.098 39.4435 41.35 39.3395 42.5367 39.3353C43.719 39.331 44.8065 39.4257 45.6002 39.5221C45.8161 39.5483 46.0095 39.5746 46.1763 39.5989C46.1985 39.7665 46.2224 39.9609 46.2459 40.178C46.3321 40.9744 46.4124 42.0657 46.3914 43.2521C46.3703 44.4427 46.2474 45.6994 45.9417 46.8377C45.6346 47.9813 45.1606 48.9403 44.4839 49.6094C43.8424 50.2438 42.8919 50.7021 41.7352 51.0066C40.5872 51.3087 39.3114 51.4396 38.0999 51.4738C36.8927 51.5079 35.7784 51.4454 34.9642 51.3738Z" fill="#8F50CE" stroke="#535665" stroke-width="2"/>
<path d="M34.9642 23.1057C34.7561 23.124 34.5682 23.1428 34.4041 23.1607C34.386 23.3276 34.367 23.5192 34.3485 23.7318C34.2773 24.5529 34.2165 25.6768 34.2559 26.8949C34.2954 28.1173 34.4351 29.405 34.7512 30.5648C35.0695 31.7322 35.5468 32.697 36.2098 33.3525C36.8725 34.0078 37.8246 34.4623 38.9642 34.7499C40.098 35.036 41.35 35.14 42.5367 35.1442C43.719 35.1484 44.8065 35.0538 45.6002 34.9574C45.8161 34.9311 46.0095 34.9049 46.1763 34.8806C46.1985 34.713 46.2224 34.5186 46.2459 34.3015C46.3321 33.5051 46.4124 32.4138 46.3914 31.2274C46.3703 30.0367 46.2474 28.7801 45.9417 27.6418C45.6346 26.4982 45.1606 25.5392 44.4839 24.87C43.8424 24.2357 42.8919 23.7774 41.7352 23.4729C40.5872 23.1708 39.3114 23.0399 38.0999 23.0057C36.8927 22.9715 35.7784 23.0341 34.9642 23.1057Z" fill="#8F50CE" stroke="#535665" stroke-width="2"/>
<path d="M62.0065 51.3738C62.2146 51.3555 62.4025 51.3367 62.5666 51.3188C62.5847 51.1519 62.6037 50.9602 62.6222 50.7477C62.6934 49.9266 62.7542 48.8027 62.7148 47.5846C62.6753 46.3622 62.5357 45.0745 62.2195 43.9147C61.9012 42.7473 61.4239 41.7825 60.7609 41.1269C60.0982 40.4717 59.1461 40.0172 58.0065 39.7296C56.8727 39.4435 55.6207 39.3395 54.434 39.3353C53.2517 39.331 52.1642 39.4257 51.3705 39.5221C51.1546 39.5483 50.9612 39.5746 50.7944 39.5989C50.7722 39.7665 50.7483 39.9609 50.7248 40.178C50.6386 40.9744 50.5583 42.0657 50.5793 43.2521C50.6005 44.4427 50.7233 45.6994 51.029 46.8377C51.3361 47.9813 51.8101 48.9403 52.4868 49.6094C53.1283 50.2438 54.0788 50.7021 55.2355 51.0066C56.3835 51.3087 57.6593 51.4396 58.8708 51.4738C60.078 51.5079 61.1923 51.4454 62.0065 51.3738Z" fill="#8F50CE" stroke="#535665" stroke-width="2"/>
<path d="M62.0065 23.1057C62.2146 23.124 62.4025 23.1428 62.5666 23.1607C62.5847 23.3276 62.6037 23.5192 62.6222 23.7318C62.6934 24.5529 62.7542 25.6768 62.7148 26.8949C62.6753 28.1173 62.5357 29.405 62.2195 30.5648C61.9012 31.7322 61.4239 32.697 60.7609 33.3525C60.0982 34.0078 59.1461 34.4623 58.0065 34.7499C56.8727 35.036 55.6207 35.14 54.434 35.1442C53.2517 35.1484 52.1642 35.0538 51.3705 34.9574C51.1546 34.9311 50.9612 34.9049 50.7944 34.8806C50.7722 34.713 50.7483 34.5186 50.7248 34.3015C50.6386 33.5051 50.5583 32.4138 50.5793 31.2274C50.6005 30.0367 50.7233 28.7801 51.029 27.6418C51.3361 26.4982 51.8101 25.5392 52.4868 24.87C53.1283 24.2357 54.0788 23.7774 55.2355 23.4729C56.3835 23.1708 57.6593 23.0399 58.8708 23.0057C60.078 22.9715 61.1923 23.0341 62.0065 23.1057Z" fill="#8F50CE" stroke="#535665" stroke-width="2"/>
<path d="M43.6142 75.5931C43.4039 75.5938 43.1939 75.5947 42.9844 75.5956C41.8924 75.6 40.8098 75.6044 39.7204 75.5911C35.1981 75.5359 31.7037 74.1023 28.7624 71.4705L28.762 71.4702C26.7155 69.641 25.2236 68.0841 24.208 65.8176C23.2571 63.6953 22.6884 60.867 22.6138 56.4904C23.647 56.4957 24.7873 56.489 25.6163 56.4842C26.0103 56.4819 26.334 56.48 26.5425 56.48C29.0852 56.48 30.9787 56.8281 32.6165 57.5018C34.2585 58.1773 35.7081 59.2062 37.3356 60.6624L37.3357 60.6626C41.0437 63.9787 43.3079 68.9399 43.6142 75.5931Z" fill="#EBD8FD" stroke="#535665" stroke-width="2"/>
<path d="M71.3544 56.4842C72.1834 56.489 73.3236 56.4957 74.3569 56.4904C74.2822 60.867 73.7136 63.6953 72.7626 65.8176C71.7471 68.0841 70.2551 69.641 68.2086 71.4702L68.2082 71.4705C65.2669 74.1023 61.7725 75.5359 57.2502 75.5911C56.1609 75.6044 55.0783 75.6 53.9863 75.5956C53.7767 75.5947 53.5668 75.5938 53.3564 75.5931C53.6628 68.9399 55.927 63.9787 59.6349 60.6626L59.6351 60.6624C61.2626 59.2062 62.7121 58.1773 64.3542 57.5018C65.992 56.8281 67.8854 56.48 70.4282 56.48C70.6367 56.48 70.9604 56.4819 71.3544 56.4842Z" fill="#EBD8FD" stroke="#535665" stroke-width="2"/>
<path d="M48.4854 74.2598V52.5098" stroke="#535665" stroke-width="2" stroke-linecap="round"/>
</svg>
