<svg width="97" height="97" viewBox="0 0 97 97" fill="none" xmlns="http://www.w3.org/2000/svg">
<path d="M17.5737 34.2725C17.5737 32.0633 19.3645 30.2725 21.5737 30.2725H75.397C77.6062 30.2725 79.397 32.0633 79.397 34.2725V69.9904C79.397 72.1995 77.6062 73.9904 75.397 73.9904H21.5737C19.3645 73.9904 17.5737 72.1996 17.5737 69.9904V34.2725Z" fill="#7495E7" stroke="#40434F" stroke-width="2" stroke-linejoin="round"/>
<path d="M34.3543 30.2724V25.5288C34.3543 23.3197 36.1452 21.5288 38.3543 21.5288H58.6164C60.8256 21.5288 62.6164 23.3197 62.6164 25.5288V30.2724" stroke="#535665" stroke-width="2"/>
<path d="M30.989 54.1293L20.0202 33.2009C19.3222 31.8692 20.2881 30.2725 21.7916 30.2725H75.1791C76.6826 30.2725 77.6485 31.8692 76.9505 33.2009L65.9817 54.1293C65.2912 55.4469 63.9264 56.2725 62.4388 56.2725H34.5319C33.0443 56.2725 31.6795 55.4469 30.989 54.1293Z" fill="#D9EAFD" stroke="#535665" stroke-width="2"/>
<rect x="42.4854" y="53.7598" width="12" height="5" rx="1" fill="#FF9666" stroke="#535665" stroke-width="2"/>
</svg>
