<svg width="97" height="97" viewBox="0 0 97 97" fill="none" xmlns="http://www.w3.org/2000/svg">
<path d="M11.8543 34.3616C11.2983 33.4033 11.6271 32.1757 12.5877 31.6238L51.4917 9.26831C52.4466 8.71961 53.6654 9.04611 54.2181 9.99867L84.2838 61.8155C84.8398 62.7737 84.5109 64.0013 83.5503 64.5533L44.6463 86.9088C43.6914 87.4574 42.4727 87.1309 41.9199 86.1784L11.8543 34.3616Z" fill="#CCA3F5" stroke="#535665" stroke-width="2"/>
<path d="M23.9854 18.7598C23.9854 17.6552 24.8808 16.7598 25.9854 16.7598H70.9854C72.0899 16.7598 72.9854 17.6552 72.9854 18.7598V78.7598C72.9854 79.8643 72.0899 80.7598 70.9854 80.7598H25.9854C24.8808 80.7598 23.9854 79.8643 23.9854 78.7598V18.7598Z" fill="#F4F4F6" stroke="#535665" stroke-width="2"/>
<path d="M73.3982 21.8857C75.186 20.1593 78.0348 20.209 79.7612 21.9968L84.9712 27.3918C86.6976 29.1796 86.6479 32.0284 84.8601 33.7548L81.0836 37.4018L69.6217 25.5327L73.3982 21.8857Z" fill="#D9EAFD" stroke="#535665" stroke-width="2"/>
<path d="M69.6218 25.5327L81.0836 37.4018L53.4644 64.9361C53.2268 65.1729 52.905 65.306 52.5696 65.306L42.3609 65.306C41.6609 65.306 41.0934 64.7385 41.0934 64.0385L41.0934 53.7954C41.0934 53.453 41.232 53.1251 41.4775 52.8865L69.6218 25.5327Z" fill="#22BF7D" stroke="#535665" stroke-width="2"/>
<path fill-rule="evenodd" clip-rule="evenodd" d="M28.9854 29.2598H65.7869L63.7292 31.2598H28.9854V29.2598ZM41.0934 55.2598V53.7954C41.0934 53.6084 41.1347 53.4259 41.2122 53.2598H28.9854V55.2598H41.0934ZM51.3824 43.2598L53.4402 41.2598H28.9854V43.2598H51.3824ZM39.4854 65.2598H28.9854V67.2598H39.4854V65.2598ZM71.3747 38.7019L69.9854 37.2632L54.8792 51.851L56.2685 53.2897L71.3747 38.7019Z" fill="#535665"/>
</svg>
