<svg width="97" height="97" viewBox="0 0 97 97" fill="none" xmlns="http://www.w3.org/2000/svg">
<path d="M59.4854 61.7598C45.8823 61.7598 34.4854 52.7656 34.4854 41.2598C34.4854 29.7539 45.8823 20.7598 59.4854 20.7598C73.0884 20.7598 84.4854 29.7539 84.4854 41.2598C84.4854 46.7632 81.8492 51.7208 77.6315 55.3677L79.691 59.4388C80.184 60.4133 80.0191 61.4798 79.4805 62.2286C78.9374 62.9835 77.9517 63.4817 76.8559 63.1631L67.9211 60.565C65.2834 61.3391 62.4428 61.7598 59.4854 61.7598Z" fill="#7495E7" stroke="#535665" stroke-width="2" stroke-linecap="round"/>
<path d="M39.9854 76.7598C54.3936 76.7598 66.4854 67.4485 66.4854 55.5098C66.4854 43.571 54.3936 34.2598 39.9854 34.2598C25.5771 34.2598 13.4854 43.571 13.4854 55.5098C13.4854 61.176 16.2405 66.28 20.6498 70.0495L18.4437 73.7223C17.3135 75.6038 19.0161 77.9144 21.148 77.3923L30.0394 75.2148C33.1134 76.212 36.4715 76.7598 39.9854 76.7598Z" fill="white" stroke="#535665" stroke-width="2"/>
<path fill-rule="evenodd" clip-rule="evenodd" d="M31.923 49.5331L31.4173 49.2412C30.0342 48.4427 28.3416 49.5986 28.5821 51.1774L29.1926 55.1859C29.3151 55.9903 30.152 56.4735 30.9099 56.1774L34.6866 54.7019C36.1742 54.1207 36.3289 52.0769 34.9458 51.2784L34.242 50.872C34.8251 50.2503 35.5093 49.7232 36.2714 49.3156C37.8313 48.4813 39.6265 48.1965 41.3679 48.5071C43.1093 48.8176 44.6954 49.7054 45.8708 51.0273C47.0461 52.3493 47.7421 54.0284 47.8466 55.7942C47.9512 57.56 47.4583 59.3096 46.4472 60.761C45.4361 62.2125 43.9659 63.2812 42.2733 63.7951C40.5807 64.309 38.7644 64.2381 37.117 63.5938C35.4702 62.9497 34.0881 61.7702 33.1933 60.2451L33.1924 60.2435L30.928 61.5714L30.9293 61.5737C31.4466 62.4552 32.0859 63.2501 32.8232 63.9378C33.7866 64.8365 34.9171 65.552 36.1609 66.0385C38.3574 66.8975 40.7791 66.9921 43.0359 66.3069C45.2927 65.6217 47.253 64.1967 48.6011 62.2614C49.9492 60.3262 50.6065 57.9934 50.4671 55.639C50.3276 53.2847 49.3996 51.0458 47.8325 49.2832C46.2655 47.5206 44.1506 46.3369 41.8287 45.9228C39.5068 45.5088 37.1132 45.8885 35.0335 47.0008C33.8558 47.6307 32.8176 48.4747 31.967 49.4807C31.9523 49.4982 31.9376 49.5156 31.923 49.5331Z" fill="#FF9666"/>
</svg>
