<svg width="97" height="97" viewBox="0 0 97 97" fill="none" xmlns="http://www.w3.org/2000/svg">
<path d="M20.3061 53.8843H18.3334C15.8366 53.8843 13.8126 55.9083 13.8126 58.4051C13.8126 60.9018 15.8366 62.9258 18.3334 62.9258H20.3061V53.8843Z" fill="#EBD8FD" stroke="#535665" stroke-width="2"/>
<path d="M20.3061 57.2817H18.3334C17.713 57.2817 17.21 57.7847 17.21 58.4051C17.21 59.0255 17.713 59.5285 18.3334 59.5285H20.3061V57.2817Z" fill="white" stroke="#535665" stroke-width="2"/>
<path d="M19.7581 51.3364H45.7867V62.6263C45.0444 67.2019 41.092 70.5702 36.4493 70.5702H29.0955C24.4528 70.5702 20.5003 67.2019 19.7581 62.6263V51.3364Z" fill="#DDF8F8" stroke="#535665" stroke-width="2"/>
<path d="M75.4854 23.7598C75.4854 21.5506 73.6945 19.7598 71.4854 19.7598H43.4854C41.2762 19.7598 39.4854 21.5506 39.4854 23.7598V27.7598C39.4854 29.9689 41.2762 31.7598 43.4854 31.7598H75.4854V23.7598Z" fill="#FF9666"/>
<path d="M21.4854 37.7598C21.4854 35.5506 23.2762 33.7598 25.4854 33.7598H42.4854C44.6945 33.7598 46.4854 35.5506 46.4854 37.7598V41.7598C46.4854 43.9689 44.6945 45.7598 42.4854 45.7598H21.4854V37.7598Z" fill="#EBD8FD"/>
<path d="M75.4722 46.0649H80.3151C82.9898 46.0649 85.1581 48.2332 85.1581 50.9079C85.1581 53.5826 82.9898 55.7508 80.3151 55.7508H75.4722V46.0649Z" fill="#FF9666" stroke="#535665" stroke-width="2"/>
<path d="M75.4722 49.1401H80.3151C81.2914 49.1401 82.0828 49.9316 82.0828 50.9078C82.0828 51.8841 81.2914 52.6756 80.3151 52.6756H75.4722V49.1401Z" fill="white" stroke="#535665" stroke-width="2"/>
<path d="M51.4854 41.7598H78.3926V63.9261C77.6253 68.7779 73.4417 72.3573 68.5223 72.3573H61.3556C56.4362 72.3573 52.2526 68.7779 51.4854 63.9261V41.7598Z" fill="#7495E7" stroke="#535665" stroke-width="2"/>
<path d="M58.7885 41.9897V53.0606" stroke="#535665" stroke-width="2" stroke-linecap="square"/>
<rect x="57.0208" y="54.0605" width="4.15047" height="5.99561" rx="1" fill="#FF9666" stroke="#535665" stroke-width="2"/>
</svg>
