<svg width="97" height="97" viewBox="0 0 97 97" fill="none" xmlns="http://www.w3.org/2000/svg">
<path fill-rule="evenodd" clip-rule="evenodd" d="M10.9893 34.8634C10.1553 33.4261 10.6486 31.5847 12.0895 30.7567L50.9935 8.40127C52.4258 7.57822 54.254 8.06797 55.083 9.4968L85.1487 61.3136C85.9827 62.751 85.4894 64.5924 84.0486 65.4203L45.1445 87.7758C43.7122 88.5988 41.8841 88.1091 41.055 86.6803L10.9893 34.8634Z" fill="#FFDCCC" stroke="#535665" stroke-width="2"/>
<path d="M22.9854 18.7598C22.9854 17.1029 24.3285 15.7598 25.9854 15.7598H70.9854C72.6422 15.7598 73.9854 17.1029 73.9854 18.7598V78.7598C73.9854 80.4166 72.6422 81.7598 70.9854 81.7598H25.9854C24.3285 81.7598 22.9854 80.4166 22.9854 78.7598V18.7598Z" fill="white"/>
<path d="M48.4853 50.2595L40.0574 54.6904C39.177 55.1532 38.1481 54.4057 38.3162 53.4254L39.9258 44.0407L33.1075 37.3944C32.3953 36.7002 32.7883 35.4906 33.7725 35.3476L43.1953 33.9784L47.4093 25.4399C47.8494 24.548 49.1213 24.548 49.5614 25.4399L53.7754 33.9784L63.1982 35.3476C64.1824 35.4906 64.5754 36.7002 63.8632 37.3944L57.0449 44.0407L58.6545 53.4254C58.8226 54.4057 57.7937 55.1532 56.9133 54.6904L48.4853 50.2595Z" fill="#F3BC16" stroke="#535665" stroke-width="2"/>
<rect x="37.9854" y="60.7598" width="21" height="3" rx="1.05" fill="#7495E7"/>
<rect x="37.9854" y="66.7598" width="21" height="3" rx="1.05" fill="#7495E7"/>
<rect x="22.9854" y="15.7598" width="51" height="66" rx="3" stroke="#535665" stroke-width="2" stroke-linejoin="round"/>
</svg>
