<svg width="97" height="97" viewBox="0 0 97 97" fill="none" xmlns="http://www.w3.org/2000/svg">
<path d="M45.4854 27.7598C27.8122 27.7598 13.4854 42.2884 13.4854 60.2105C13.4854 62.9992 15.2567 66.7598 18.4854 66.7598L73.8943 45.2598C68.5622 34.8616 57.8416 27.7598 45.4854 27.7598Z" fill="#FCF3C5" stroke="#535665" stroke-width="2"/>
<path d="M38.7888 39.0805C42.2859 45.351 40.3175 53.1131 40.3175 53.1131C40.3175 53.1131 32.6791 50.7089 29.1819 44.4385C25.6847 38.1681 27.6532 30.406 27.6532 30.406C27.6532 30.406 35.2916 32.8101 38.7888 39.0805Z" fill="#22BF7D" stroke="#535665" stroke-width="2"/>
<path d="M22.9407 49.453C29.9107 51.1757 34.2412 57.9117 34.2412 57.9117C34.2412 57.9117 27.2712 61.8544 20.3012 60.1316C13.3313 58.4088 9.00077 51.6729 9.00077 51.6729C9.00077 51.6729 15.9708 47.7302 22.9407 49.453Z" fill="#22BF7D" stroke="#535665" stroke-width="2"/>
<path d="M72.0509 47.1939C68.1666 53.2322 60.3922 55.1516 60.3922 55.1516C60.3922 55.1516 58.9154 47.2811 62.7996 41.2429C66.6839 35.2046 74.4583 33.2851 74.4583 33.2851C74.4583 33.2851 75.9351 41.1556 72.0509 47.1939Z" fill="#22BF7D" stroke="#535665" stroke-width="2"/>
<circle cx="27.4854" cy="48.7598" r="10" fill="#E9353E" stroke="#535665" stroke-width="2"/>
<circle cx="21.9854" cy="60.2598" r="5.5" fill="#FF9666" stroke="#535665" stroke-width="2"/>
<circle cx="50.4854" cy="36.7598" r="10" fill="#E9353E" stroke="#535665" stroke-width="2"/>
<circle cx="40.9854" cy="38.2598" r="5.5" fill="#FF9666" stroke="#535665" stroke-width="2"/>
<circle cx="61.9854" cy="37.2598" r="5.5" fill="#FF9666" stroke="#535665" stroke-width="2"/>
<circle cx="74.4854" cy="52.7598" r="10" fill="#E9353E" stroke="#535665" stroke-width="2"/>
<path d="M83.4854 66.7598H19.4854C19.4854 49.0867 33.8122 34.7598 51.4854 34.7598C69.1585 34.7598 83.4854 49.0867 83.4854 66.7598Z" fill="#FCF3C5" stroke="#535665" stroke-width="2"/>
<circle cx="26.9854" cy="61.2598" r="1.5" fill="#FF9666"/>
<circle cx="60.9854" cy="53.2598" r="1.5" fill="#FF9666"/>
<circle cx="75.9854" cy="61.2598" r="1.5" fill="#FF9666"/>
<circle cx="37.4854" cy="47.7598" r="1" fill="#FF9666"/>
<circle cx="60.4854" cy="41.7598" r="1" fill="#FF9666"/>
<circle cx="47.4854" cy="60.7598" r="1" fill="#FF9666"/>
</svg>
