<svg width="97" height="97" viewBox="0 0 97 97" fill="none" xmlns="http://www.w3.org/2000/svg">
<path d="M30.1059 17.5944L23.7758 17.575C23.1713 17.5732 22.5984 17.8448 22.2173 18.314L16.0488 25.9079C15.904 26.0862 15.825 26.3088 15.825 26.5384L15.825 33.1164C15.825 34.7516 16.8204 36.2222 18.3385 36.8299L27.2309 40.3894L27.2309 26.0397L31.518 26.0397L35.3203 28.2282C37.3324 29.3863 39.8432 29.2224 41.6876 27.8126C42.1882 27.4299 42.1903 26.6768 41.6918 26.2914L30.7145 17.8033C30.5402 17.6685 30.3262 17.5951 30.1059 17.5944Z" fill="#FFDCCC"/>
<mask id="path-2-inside-1_649_4895" fill="white">
<path fill-rule="evenodd" clip-rule="evenodd" d="M45.1201 46.582C46.2247 46.582 47.1201 45.6865 47.1201 44.582V40.086C48.8311 39.427 50.0452 37.7672 50.0452 35.8239C50.0452 33.8807 48.8311 32.2209 47.1201 31.5619V27.1709C47.1201 26.0663 46.2247 25.1709 45.1201 25.1709L27.709 25.1709C26.6044 25.1709 25.709 26.0663 25.709 27.1709L25.709 44.582C25.709 45.6865 26.6044 46.582 27.709 46.582H32.2167C32.6142 46.582 32.9605 46.3111 33.0563 45.9254C33.9259 42.4236 38.9033 42.4236 39.7728 45.9254C39.8686 46.3111 40.2149 46.582 40.6124 46.582H45.1201Z"/>
</mask>
<path fill-rule="evenodd" clip-rule="evenodd" d="M45.1201 46.582C46.2247 46.582 47.1201 45.6865 47.1201 44.582V40.086C48.8311 39.427 50.0452 37.7672 50.0452 35.8239C50.0452 33.8807 48.8311 32.2209 47.1201 31.5619V27.1709C47.1201 26.0663 46.2247 25.1709 45.1201 25.1709L27.709 25.1709C26.6044 25.1709 25.709 26.0663 25.709 27.1709L25.709 44.582C25.709 45.6865 26.6044 46.582 27.709 46.582H32.2167C32.6142 46.582 32.9605 46.3111 33.0563 45.9254C33.9259 42.4236 38.9033 42.4236 39.7728 45.9254C39.8686 46.3111 40.2149 46.582 40.6124 46.582H45.1201Z" fill="#D9EAFD"/>
<path d="M47.1201 40.086L46.4013 38.2196L45.1201 38.7131V40.086H47.1201ZM47.1201 31.5619H45.1201V32.9348L46.4013 33.4283L47.1201 31.5619ZM45.1201 25.1709V27.1709V25.1709ZM27.709 25.1709L27.709 23.1709H27.709V25.1709ZM25.709 27.1709L27.709 27.1709L25.709 27.1709ZM25.709 44.582H23.709H25.709ZM33.0563 45.9254L34.9974 46.4074L33.0563 45.9254ZM39.7728 45.9254L41.7138 45.4434V45.4434L39.7728 45.9254ZM45.1201 44.582V48.582C47.3292 48.582 49.1201 46.7911 49.1201 44.582H45.1201ZM45.1201 40.086V44.582H49.1201V40.086H45.1201ZM48.0452 35.8239C48.0452 36.9128 47.3661 37.848 46.4013 38.2196L47.8389 41.9523C50.2962 41.0059 52.0452 38.6217 52.0452 35.8239H48.0452ZM46.4013 33.4283C47.3661 33.7999 48.0452 34.7351 48.0452 35.8239H52.0452C52.0452 33.0262 50.2962 30.642 47.8389 29.6956L46.4013 33.4283ZM45.1201 27.1709V31.5619H49.1201V27.1709H45.1201ZM45.1201 27.1709V27.1709H49.1201C49.1201 24.9618 47.3292 23.1709 45.1201 23.1709V27.1709ZM27.709 27.1709L45.1201 27.1709V23.1709L27.709 23.1709L27.709 27.1709ZM27.709 27.1709L27.709 27.1709V23.1709C25.4999 23.1709 23.709 24.9618 23.709 27.1709L27.709 27.1709ZM27.709 44.582L27.709 27.1709L23.709 27.1709L23.709 44.582H27.709ZM27.709 44.582H27.709H23.709C23.709 46.7911 25.4999 48.582 27.709 48.582V44.582ZM32.2167 44.582H27.709V48.582H32.2167V44.582ZM31.1153 45.4434C31.2409 44.9373 31.6953 44.582 32.2167 44.582V48.582C33.5331 48.582 34.6801 47.685 34.9974 46.4074L31.1153 45.4434ZM41.7138 45.4434C40.3417 39.9176 32.4874 39.9176 31.1153 45.4434L34.9974 46.4074C35.3643 44.9296 37.4648 44.9296 37.8317 46.4074L41.7138 45.4434ZM40.6124 44.582C41.1338 44.582 41.5882 44.9373 41.7138 45.4434L37.8317 46.4074C38.149 47.685 39.296 48.582 40.6124 48.582V44.582ZM45.1201 44.582H40.6124V48.582H45.1201V44.582Z" fill="#535665" mask="url(#path-2-inside-1_649_4895)"/>
<mask id="path-4-inside-2_649_4895" fill="white">
<path fill-rule="evenodd" clip-rule="evenodd" d="M50.7012 44.582C50.7012 45.6865 51.5966 46.582 52.7012 46.582L56.1863 46.582C56.2421 49.055 58.2643 51.0426 60.7508 51.0426C63.2372 51.0426 65.2594 49.055 65.3152 46.582L70.1123 46.582C71.2168 46.582 72.1123 45.6865 72.1123 44.582L72.1123 27.1709C72.1123 26.0663 71.2168 25.1709 70.1123 25.1709L52.7012 25.1709C51.5966 25.1709 50.7012 26.0663 50.7012 27.1709L50.7012 31.6786C50.7012 32.0761 50.972 32.4224 51.3578 32.5182C54.8595 33.3877 54.8595 38.3651 51.3578 39.2347C50.972 39.3305 50.7012 39.6768 50.7012 40.0742L50.7012 44.582Z"/>
</mask>
<path fill-rule="evenodd" clip-rule="evenodd" d="M50.7012 44.582C50.7012 45.6865 51.5966 46.582 52.7012 46.582L56.1863 46.582C56.2421 49.055 58.2643 51.0426 60.7508 51.0426C63.2372 51.0426 65.2594 49.055 65.3152 46.582L70.1123 46.582C71.2168 46.582 72.1123 45.6865 72.1123 44.582L72.1123 27.1709C72.1123 26.0663 71.2168 25.1709 70.1123 25.1709L52.7012 25.1709C51.5966 25.1709 50.7012 26.0663 50.7012 27.1709L50.7012 31.6786C50.7012 32.0761 50.972 32.4224 51.3578 32.5182C54.8595 33.3877 54.8595 38.3651 51.3578 39.2347C50.972 39.3305 50.7012 39.6768 50.7012 40.0742L50.7012 44.582Z" fill="#EBD8FD"/>
<path d="M50.7012 44.582L48.7012 44.582L50.7012 44.582ZM56.1863 46.582L58.1858 46.5369L58.1417 44.582L56.1863 44.582L56.1863 46.582ZM65.3152 46.582L65.3152 44.582L63.3598 44.582L63.3157 46.5369L65.3152 46.582ZM72.1123 44.582L70.1123 44.582L72.1123 44.582ZM72.1123 27.1709L74.1123 27.1709V27.1709L72.1123 27.1709ZM70.1123 25.1709L70.1123 27.1709L70.1123 25.1709ZM52.7012 25.1709L52.7012 23.1709L52.7012 25.1709ZM50.7012 27.1709L48.7012 27.1709L50.7012 27.1709ZM50.7012 31.6786L52.7012 31.6786L50.7012 31.6786ZM51.3578 32.5182L50.8758 34.4592L51.3578 32.5182ZM51.3578 39.2347L51.8398 41.1757L51.8398 41.1757L51.3578 39.2347ZM50.7012 40.0742L52.7012 40.0742L50.7012 40.0742ZM52.7012 44.582L48.7012 44.582C48.7012 46.7911 50.4921 48.582 52.7012 48.582L52.7012 44.582ZM56.1863 44.582L52.7012 44.582L52.7012 48.582L56.1863 48.582L56.1863 44.582ZM60.7508 49.0426C59.3538 49.0426 58.2172 47.9257 58.1858 46.5369L54.1869 46.6271C54.2671 50.1844 57.1749 53.0426 60.7508 53.0426L60.7508 49.0426ZM63.3157 46.5369C63.2844 47.9257 62.1477 49.0426 60.7508 49.0426L60.7508 53.0426C64.3267 53.0426 67.2344 50.1844 67.3147 46.6271L63.3157 46.5369ZM70.1123 44.582L65.3152 44.582L65.3152 48.582L70.1123 48.582L70.1123 44.582ZM70.1123 44.582L70.1123 44.582L70.1123 48.582C72.3214 48.582 74.1123 46.7911 74.1123 44.582L70.1123 44.582ZM70.1123 27.1709L70.1123 44.582L74.1123 44.582L74.1123 27.1709L70.1123 27.1709ZM70.1123 27.1709L70.1123 27.1709L74.1123 27.1709C74.1123 24.9618 72.3214 23.1709 70.1123 23.1709L70.1123 27.1709ZM52.7012 27.1709L70.1123 27.1709L70.1123 23.1709L52.7012 23.1709L52.7012 27.1709ZM52.7012 27.1709L52.7012 27.1709L52.7012 23.1709C50.4921 23.1709 48.7012 24.9618 48.7012 27.1709L52.7012 27.1709ZM52.7012 31.6786L52.7012 27.1709L48.7012 27.1709L48.7012 31.6786L52.7012 31.6786ZM51.8398 30.5771C52.3459 30.7028 52.7012 31.1572 52.7012 31.6786L48.7012 31.6786C48.7012 32.995 49.5982 34.142 50.8758 34.4592L51.8398 30.5771ZM51.8398 41.1757C57.3655 39.8036 57.3655 31.9493 51.8398 30.5771L50.8758 34.4592C52.3535 34.8262 52.3535 36.9267 50.8758 37.2936L51.8398 41.1757ZM52.7012 40.0742C52.7012 40.5957 52.3459 41.0501 51.8398 41.1757L50.8758 37.2936C49.5982 37.6109 48.7012 38.7579 48.7012 40.0742L52.7012 40.0742ZM52.7012 44.582L52.7012 40.0742L48.7012 40.0742L48.7012 44.582L52.7012 44.582Z" fill="#535665" mask="url(#path-4-inside-2_649_4895)"/>
<path d="M29.0864 17.5913L24.7317 17.578C23.5227 17.5742 22.3769 18.1175 21.6147 19.0559L17.1712 24.5261C16.6367 25.1842 17.1122 26.1672 17.96 26.1565L27.2309 26.0397L31.518 26.0397L35.3203 28.2282C37.3324 29.3863 39.8432 29.2224 41.6876 27.8126C42.1882 27.4299 42.1903 26.6768 41.6918 26.2914L31.521 18.4269C30.8237 17.8877 29.9679 17.594 29.0864 17.5913Z" fill="#FFDCCC"/>
<path d="M25.709 39.6285L15.825 35.8238L15.825 26.5384C15.825 26.3088 15.904 26.0862 16.0488 25.9079L21.6147 19.0559C22.3769 18.1175 23.5227 17.5742 24.7317 17.578L29.0864 17.5913C29.9679 17.594 30.8237 17.8877 31.521 18.4269L41.6918 26.2914C42.1903 26.6768 42.1882 27.4299 41.6876 27.8126V27.8126C39.8432 29.2224 37.3324 29.3863 35.3203 28.2282L31.518 26.0397L26.4699 26.0397" stroke="#535665" stroke-width="2" stroke-linecap="round"/>
<path d="M66.9408 79.9251L73.2709 79.9445C73.8754 79.9464 74.4483 79.6747 74.8294 79.2055L80.9979 71.6116C81.1427 71.4334 81.2217 71.2107 81.2217 70.9811L81.2217 64.4032C81.2217 62.7679 80.2264 61.2973 78.7082 60.6896L69.8158 57.1301L69.8158 71.4798L65.5287 71.4798L61.7264 69.2913C59.7143 68.1332 57.2036 68.2971 55.3591 69.7069C54.8585 70.0896 54.8564 70.8427 55.3549 71.2281L66.3322 79.7162C66.5065 79.851 66.7205 79.9244 66.9408 79.9251Z" fill="#FFDCCC"/>
<mask id="path-9-inside-3_649_4895" fill="white">
<path fill-rule="evenodd" clip-rule="evenodd" d="M51.9266 50.9376C50.8221 50.9376 49.9266 51.833 49.9266 52.9376L49.9266 57.4336C48.2156 58.0926 47.0015 59.7523 47.0015 61.6956C47.0015 63.6389 48.2156 65.2986 49.9266 65.9576L49.9266 70.3486C49.9266 71.4532 50.8221 72.3486 51.9266 72.3486L69.3377 72.3486C70.4423 72.3486 71.3377 71.4532 71.3377 70.3486L71.3377 52.9376C71.3377 51.833 70.4423 50.9376 69.3377 50.9376L64.83 50.9376C64.4325 50.9376 64.0862 51.2084 63.9904 51.5941C63.1209 55.0959 58.1435 55.0959 57.2739 51.5941C57.1781 51.2084 56.8318 50.9376 56.4344 50.9376L51.9266 50.9376Z"/>
</mask>
<path fill-rule="evenodd" clip-rule="evenodd" d="M51.9266 50.9376C50.8221 50.9376 49.9266 51.833 49.9266 52.9376L49.9266 57.4336C48.2156 58.0926 47.0015 59.7523 47.0015 61.6956C47.0015 63.6389 48.2156 65.2986 49.9266 65.9576L49.9266 70.3486C49.9266 71.4532 50.8221 72.3486 51.9266 72.3486L69.3377 72.3486C70.4423 72.3486 71.3377 71.4532 71.3377 70.3486L71.3377 52.9376C71.3377 51.833 70.4423 50.9376 69.3377 50.9376L64.83 50.9376C64.4325 50.9376 64.0862 51.2084 63.9904 51.5941C63.1209 55.0959 58.1435 55.0959 57.2739 51.5941C57.1781 51.2084 56.8318 50.9376 56.4344 50.9376L51.9266 50.9376Z" fill="#4ED0CB"/>
<path d="M49.9266 57.4336L50.6455 59.2999L51.9266 58.8065L51.9266 57.4336L49.9266 57.4336ZM49.9266 65.9576L51.9266 65.9576L51.9266 64.5847L50.6455 64.0912L49.9266 65.9576ZM49.9266 70.3486L47.9266 70.3486L49.9266 70.3486ZM51.9266 72.3486L51.9266 70.3486L51.9266 72.3486ZM69.3377 72.3486L69.3377 74.3486L69.3377 74.3486L69.3377 72.3486ZM71.3377 70.3486L69.3377 70.3486L71.3377 70.3486ZM71.3377 52.9376L73.3377 52.9376L71.3377 52.9376ZM63.9904 51.5941L62.0494 51.1121L63.9904 51.5941ZM57.2739 51.5941L55.3329 52.0761L55.3329 52.0761L57.2739 51.5941ZM51.9266 52.9376L51.9266 48.9376C49.7175 48.9376 47.9266 50.7284 47.9266 52.9376L51.9266 52.9376ZM51.9266 57.4336L51.9266 52.9376L47.9266 52.9376L47.9266 57.4336L51.9266 57.4336ZM49.0015 61.6956C49.0015 60.6067 49.6806 59.6715 50.6455 59.2999L49.2078 55.5672C46.7506 56.5136 45.0015 58.8979 45.0015 61.6956L49.0015 61.6956ZM50.6455 64.0912C49.6806 63.7196 49.0015 62.7844 49.0015 61.6956L45.0015 61.6956C45.0015 64.4933 46.7505 66.8775 49.2078 67.824L50.6455 64.0912ZM51.9266 70.3486L51.9266 65.9576L47.9266 65.9576L47.9266 70.3486L51.9266 70.3486ZM51.9266 70.3486L51.9266 70.3486L47.9266 70.3486C47.9266 72.5578 49.7175 74.3486 51.9266 74.3486L51.9266 70.3486ZM69.3377 70.3486L51.9266 70.3486L51.9266 74.3486L69.3377 74.3486L69.3377 70.3486ZM69.3377 70.3486L69.3377 70.3486L69.3377 74.3486C71.5468 74.3486 73.3377 72.5578 73.3377 70.3486L69.3377 70.3486ZM69.3377 52.9376L69.3377 70.3486L73.3377 70.3486L73.3377 52.9376L69.3377 52.9376ZM69.3377 52.9376L69.3377 52.9376L73.3377 52.9376C73.3377 50.7284 71.5468 48.9376 69.3377 48.9376L69.3377 52.9376ZM64.83 52.9376L69.3377 52.9376L69.3377 48.9376L64.83 48.9376L64.83 52.9376ZM65.9315 52.0761C65.8058 52.5822 65.3514 52.9376 64.83 52.9376L64.83 48.9376C63.5136 48.9376 62.3666 49.8346 62.0494 51.1121L65.9315 52.0761ZM55.3329 52.0761C56.705 57.6019 64.5593 57.6019 65.9315 52.0761L62.0494 51.1121C61.6824 52.5899 59.5819 52.5899 59.215 51.1121L55.3329 52.0761ZM56.4344 52.9376C55.9129 52.9376 55.4585 52.5822 55.3329 52.0761L59.215 51.1121C58.8977 49.8346 57.7507 48.9376 56.4344 48.9376L56.4344 52.9376ZM51.9266 52.9376L56.4344 52.9376L56.4344 48.9376L51.9266 48.9376L51.9266 52.9376Z" fill="#535665" mask="url(#path-9-inside-3_649_4895)"/>
<mask id="path-11-inside-4_649_4895" fill="white">
<path fill-rule="evenodd" clip-rule="evenodd" d="M46.3455 52.9376C46.3455 51.833 45.4501 50.9376 44.3455 50.9376L40.8604 50.9376C40.8046 48.4645 38.7824 46.4769 36.296 46.4769C33.8095 46.4769 31.7873 48.4645 31.7315 50.9376L26.9345 50.9376C25.8299 50.9376 24.9345 51.833 24.9345 52.9376L24.9344 70.3486C24.9344 71.4532 25.8299 72.3486 26.9344 72.3486L44.3455 72.3486C45.4501 72.3486 46.3455 71.4532 46.3455 70.3486L46.3455 65.8409C46.3455 65.4434 46.0747 65.0971 45.6889 65.0013C42.1872 64.1318 42.1872 59.1544 45.6889 58.2849C46.0747 58.1891 46.3455 57.8428 46.3455 57.4453L46.3455 52.9376Z"/>
</mask>
<path fill-rule="evenodd" clip-rule="evenodd" d="M46.3455 52.9376C46.3455 51.833 45.4501 50.9376 44.3455 50.9376L40.8604 50.9376C40.8046 48.4645 38.7824 46.4769 36.296 46.4769C33.8095 46.4769 31.7873 48.4645 31.7315 50.9376L26.9345 50.9376C25.8299 50.9376 24.9345 51.833 24.9345 52.9376L24.9344 70.3486C24.9344 71.4532 25.8299 72.3486 26.9344 72.3486L44.3455 72.3486C45.4501 72.3486 46.3455 71.4532 46.3455 70.3486L46.3455 65.8409C46.3455 65.4434 46.0747 65.0971 45.6889 65.0013C42.1872 64.1318 42.1872 59.1544 45.6889 58.2849C46.0747 58.1891 46.3455 57.8428 46.3455 57.4453L46.3455 52.9376Z" fill="#8F50CE"/>
<path d="M44.3455 50.9376L44.3455 52.9376L44.3455 50.9376ZM40.8604 50.9376L38.8609 50.9827L38.905 52.9376L40.8604 52.9376L40.8604 50.9376ZM31.7315 50.9376L31.7315 52.9376L33.6869 52.9376L33.731 50.9827L31.7315 50.9376ZM26.9345 50.9376L26.9345 52.9376L26.9345 50.9376ZM46.3455 70.3486L48.3455 70.3486L46.3455 70.3486ZM46.3455 65.8409L44.3455 65.8409L46.3455 65.8409ZM45.6889 65.0013L46.1709 63.0603L45.6889 65.0013ZM45.6889 58.2849L45.207 56.3438L45.207 56.3438L45.6889 58.2849ZM44.3455 52.9376L48.3455 52.9376C48.3455 50.7284 46.5547 48.9376 44.3455 48.9376L44.3455 52.9376ZM40.8604 52.9376L44.3455 52.9376L44.3455 48.9376L40.8604 48.9376L40.8604 52.9376ZM36.296 48.4769C37.6929 48.4769 38.8296 49.5939 38.8609 50.9827L42.8599 50.8925C42.7796 47.3352 39.8718 44.4769 36.296 44.4769L36.296 48.4769ZM33.731 50.9827C33.7624 49.5939 34.899 48.4769 36.296 48.4769L36.296 44.4769C32.7201 44.4769 29.8123 47.3352 29.7321 50.8925L33.731 50.9827ZM26.9345 52.9376L31.7315 52.9376L31.7315 48.9376L26.9345 48.9376L26.9345 52.9376ZM26.9345 52.9376L26.9345 52.9376L26.9345 48.9376C24.7253 48.9376 22.9345 50.7284 22.9345 52.9376L26.9345 52.9376ZM26.9344 70.3486L26.9345 52.9376L22.9345 52.9376L22.9344 70.3486L26.9344 70.3486ZM26.9344 70.3486L26.9344 70.3486L22.9344 70.3486C22.9344 72.5578 24.7253 74.3486 26.9344 74.3486L26.9344 70.3486ZM44.3455 70.3486L26.9344 70.3486L26.9344 74.3486L44.3455 74.3486L44.3455 70.3486ZM44.3455 70.3486L44.3455 70.3486L44.3455 74.3486C46.5547 74.3486 48.3455 72.5578 48.3455 70.3486L44.3455 70.3486ZM44.3455 65.8409L44.3455 70.3486L48.3455 70.3486L48.3455 65.8409L44.3455 65.8409ZM45.2069 66.9424C44.7009 66.8167 44.3455 66.3624 44.3455 65.8409L48.3455 65.8409C48.3455 64.5245 47.4485 63.3775 46.1709 63.0603L45.2069 66.9424ZM45.207 56.3438C39.6812 57.7159 39.6812 65.5703 45.2069 66.9424L46.1709 63.0603C44.6932 62.6933 44.6932 60.5929 46.1709 60.2259L45.207 56.3438ZM44.3455 57.4453C44.3455 56.9238 44.7009 56.4695 45.207 56.3438L46.1709 60.2259C47.4485 59.9087 48.3455 58.7617 48.3455 57.4453L44.3455 57.4453ZM44.3455 52.9376L44.3455 57.4453L48.3455 57.4453L48.3455 52.9376L44.3455 52.9376Z" fill="#535665" mask="url(#path-11-inside-4_649_4895)"/>
<path d="M67.1984 79.574L73.5285 79.5934C74.133 79.5953 74.7059 79.3236 75.087 78.8544L80.1331 72.6423C80.6677 71.9842 80.1921 71.0012 79.3443 71.0119L70.0734 71.1288L65.7863 71.1288L61.984 68.9403C59.9719 67.7822 57.4612 67.9461 55.6167 69.3559C55.1161 69.7385 55.114 70.4916 55.6125 70.8771L66.5898 79.3651C66.7641 79.4999 66.9781 79.5734 67.1984 79.574Z" fill="#FFDCCC"/>
<path d="M71.3377 57.8911L81.2217 61.6957L81.2217 70.9811C81.2217 71.2107 81.1427 71.4334 80.9979 71.6116L74.8294 79.2055C74.4483 79.6747 73.8754 79.9464 73.2709 79.9445L66.9408 79.9251C66.7205 79.9244 66.5065 79.851 66.3322 79.7162L55.3549 71.2281C54.8564 70.8427 54.8585 70.0896 55.3591 69.7069V69.7069C57.2036 68.2971 59.7143 68.1332 61.7264 69.2913L65.5287 71.4798L70.5768 71.4798" stroke="#535665" stroke-width="2" stroke-linecap="round"/>
</svg>
