<svg width="97" height="97" viewBox="0 0 97 97" fill="none" xmlns="http://www.w3.org/2000/svg">
<rect x="30.4854" y="17.7598" width="36" height="62" rx="3" fill="#D9EAFD" stroke="#535665" stroke-width="2"/>
<rect x="34.4854" y="21.7598" width="28" height="48" rx="2" fill="white" stroke="#535665" stroke-width="2"/>
<rect x="42.4854" y="73.7598" width="12" height="2" rx="1" fill="#29327A"/>
<path d="M25.4854 34.7598C25.4854 32.5506 27.2762 30.7598 29.4854 30.7598H46.4854C48.6945 30.7598 50.4854 32.5506 50.4854 34.7598V39.7598C50.4854 41.9689 48.6945 43.7598 46.4854 43.7598H25.4854V34.7598Z" fill="#4ED0CB"/>
<path d="M72.4854 48.7598C72.4854 46.5506 70.6945 44.7598 68.4854 44.7598H51.4854C49.2762 44.7598 47.4854 46.5506 47.4854 48.7598V53.7598C47.4854 55.9689 49.2762 57.7598 51.4854 57.7598H72.4854V48.7598Z" fill="#FF7535"/>
</svg>
