<svg width="97" height="97" viewBox="0 0 97 97" fill="none" xmlns="http://www.w3.org/2000/svg">
<path d="M41.0193 17.8127C39.6395 17.7645 38.4818 18.8441 38.4336 20.224L36.549 74.1911C36.5009 75.5709 37.5804 76.7286 38.9603 76.7768L74.9383 78.0332C76.3182 78.0813 77.4759 77.0018 77.5241 75.6219L79.4086 21.6548C79.4568 20.275 78.3773 19.1173 76.9974 19.0691L41.0193 17.8127Z" fill="#D9EAFD" stroke="#535665" stroke-width="2"/>
<path d="M13.6516 26.385C12.3244 26.7656 11.557 28.1501 11.9375 29.4773L26.822 81.3854C27.2025 82.7127 28.587 83.4801 29.9142 83.0995L64.5196 73.1765C65.8469 72.796 66.6143 71.4115 66.2337 70.0843L51.3493 18.1762C50.9687 16.8489 49.5843 16.0815 48.257 16.4621L13.6516 26.385Z" fill="#FF9666" stroke="#535665" stroke-width="2"/>
<path fill-rule="evenodd" clip-rule="evenodd" d="M28.9789 37.1L26.9372 37.6854L25.8825 36.1403L22.5834 37.0863L22.5077 38.9556L20.4775 39.5377L21.1613 30.6031L23.6529 29.8887L28.9789 37.1ZM22.8173 31.6763L22.6511 35.4939L24.9812 34.8258L22.8173 31.6763ZM62.2337 59.76L68.5267 59.9797L68.6724 55.8063L61.0234 55.5391L62.2337 59.76ZM59.5912 50.5442L69.6157 34.9825L69.622 34.8026L54.9302 34.2896L56.1301 38.474L61.5264 38.6624L57.8412 44.4412L59.5912 50.5442ZM50.1544 60.9411L55.2068 59.4923L38.9865 37.9279L32.6883 39.7338L30.3255 66.6269L35.4125 65.1682L35.7973 59.0658L46.5942 55.9698L50.1544 60.9411ZM36.0358 55.065L36.8396 42.326L44.2719 52.7034L36.0358 55.065Z" fill="#535665"/>
</svg>
